<svg xmlns="http://www.w3.org/2000/svg" viewBox="0 0 300 300"><path d="M153.1 85H244c4.6 0 4.6 0 4.6 4.4 0 7.4 0 7.4-7.3 7.4H62.1c-4.7 0-4.7 0-4.7-4.6 0-7.3 0-7.3 7.2-7.3 29.4.1 58.9.1 88.5.1zm95.4-12.5H57.3c0-3.4-.1-6.6.1-9.9 0-.5.9-1.3 1.6-1.5 1-.3 2.1-.1 3.2-.1h181.7c4.7 0 4.7 0 4.7 4.9-.1 2.1-.1 4.2-.1 6.6zm-65.6 108c-16.7 0-33.3-.1-50 .1-2.9 0-3.8-.7-3.8-3.7.2-8.4.1-8.4 8.4-8.4h94.9c4.2 0 4.2 0 4.2 4.2 0 7.9 0 7.9-7.9 7.9-15.2-.1-30.5-.1-45.8-.1zm-53.6-47.9v-11.5h107.2c0 3.3.1 6.7-.1 10 0 .5-.8 1.2-1.3 1.3-.8.2-1.7.1-2.5.1h-99.8c-1 .1-2.1.1-3.5.1zm0 95.7v-11.5h107.2c0 3.3.1 6.7-.1 10 0 .5-.8 1.2-1.3 1.3-.8.2-1.7.1-2.5.1h-99.8c-1 .1-2.1.1-3.5.1zm-54.1 12.1c-5.8-7.7-11.3-15.2-16.8-22.6.2-.3.3-.5.5-.8 3.7 1.3 7.6 2.3 11.2 3.9 3.5 1.5 6.4 1.2 9.7-1 7.4-4.8 15-9.2 22.5-13.7l.6.6c-9 11.1-18.1 22.1-27.7 33.6zm0-95.9c-5.8-7.8-11.3-15-16.7-22.3.2-.3.3-.5.5-.8 2.6.9 5.4 1.5 7.8 2.8 5.8 3 10.7 2.3 16-1.6 5.2-3.8 11-6.8 16.5-10.1 1.1-.6 2.2-1.2 3.7-1.2-9.1 10.8-18.3 21.8-27.8 33.2zm27.9 14.4c-9.5 11.4-18.5 22.1-27.9 33.4-5.7-7.6-11.2-14.9-17.2-22.8 1.5.2 2.3.2 3 .4 1.5.5 3 1 4.5 1.6 10.1 3.5 10 3.4 19.1-2.3 5.5-3.4 11.1-6.7 16.6-10 .3-.2.6-.2 1.9-.3z"/></svg>