<svg xmlns="http://www.w3.org/2000/svg" viewBox="0 0 300 300"><path d="M75.7 227.6c0-.5 0-.9-.1-1.3.1.4.1.8.1 1.3zm-11 4.3l.5.5c-.2-.1-.4-.3-.5-.5zM50.5 67.7c67.9-.1 135.5-.1 203.7-.1H50.5v.1zm32.1 173.5c-3.4 3.4-8.2 5.4-13.3 5.4 5.1.1 9.8-2 13.3-5.4zM254.2 67.6v-7.3c0-2.5 0-3.7-.6-4.2.5.6.5 1.8.5 4.1.1 2.5.1 5 .1 7.4zM72.5 172.4c1.9 1.2 3.2 3.3 3.2 5.6.1-2.4-1.2-4.5-3.2-5.6zM69 184c-3.4-.1-5.8-2.8-5.8-6.2 0-2.5 1.3-4.5 3.3-5.6-2 1-3.4 3.1-3.4 5.7 0 3.4 2.5 6.1 5.9 6.1 1.1.1 2.2-.1 3.1-.6-.9.4-2 .7-3.1.6zm5.9 40.2c.1.1.1.3.2.4 0-.1-.1-.3-.2-.4zm.4 1c.1.3.2.6.2.9 0-.4-.1-.7-.2-.9zm-11.5 5.4l-.3-.6.3.6zm-.5-1.2c0-.2-.1-.4-.1-.6.1.2.1.4.1.6zm6.3-20.7c-10-.1-19.3 9-19.2 19 0-10 9.2-19.1 19.2-19zm-5.2 22.9c-.1-.2-.3-.4-.4-.5.1.1.2.3.4.5zM50.5 125.8c.2 9.8 9.1 18.6 18.9 18.6-9.8 0-18.7-8.9-18.9-18.6zm12.6 102c0-.1 0 0 0 0zm11.3-4.4zm-8.9 9.3c1 .8 2.4 1.3 3.9 1.3 1.4 0 2.7-.3 3.6-1-1 .6-2.2.9-3.6.9-1.6 0-2.9-.4-3.9-1.2zm-2.4-106.4v-.7.7zm.1.6v-.1.1zm6.4-20.2c10 0 18.7 8.7 18.8 18.8-.1-10.1-8.7-18.8-18.8-18.8zm-5.5 22.5c0-.1 0-.1 0 0 0-.1 0-.1 0 0zM50.4 89.3c.3-8.2.1-8.2 8.2-8.2h190.7c2.4 0 3.7 0 4.3.6-.6-.7-1.9-.7-4.4-.7H58.5c-8.1 0-7.9 0-8.2 8.2 0 1.4.1 2.3.5 3-.3-.7-.5-1.6-.4-2.9zm14.9 41.2l-.3-.3.3.3zm4 1.4c-1.5 0-2.9-.5-3.9-1.4 1 .9 2.3 1.4 3.9 1.4zm-4.5-1.8l-.2-.2c.1 0 .2.1.2.2zm-.4-.5l-.1-.1c.1 0 .1.1.1.1z" fill="none"/><path d="M50.5 67.6h203.7c0-2.4 0-4.9-.1-7.4 0-2.3 0-3.5-.5-4.1-.6-.6-1.7-.7-4.2-.7H55c-.9 0-1.9-.2-2.7.1-.7.3-1.8 1.1-1.8 1.8-.2 3.4-.1 6.8 0 10.3-.1 0 0 0 0 0zm203.1 14.1c-.6-.6-1.9-.6-4.3-.6H58.6c-8.1 0-7.9 0-8.2 8.2-.1 1.3.1 2.2.4 2.9.6 1.1 1.9 1.4 4 1.4 32.4-.1 64.8-.1 97.2-.1 31.6 0 63.2 0 94.9.1 7.4 0 7.4 0 7.4-7.6 0-2.5 0-3.7-.7-4.3zM236.8 170H123.3c-8.9 0-8.7 0-9 8.9-.1 3.3 1 4 4 4 19.9-.2 39.7-.1 59.5-.1h55.7c8 0 8 0 8-7.9 0-4.9 0-4.9-4.7-4.9zm4.5-50.5H114.6v11.9h126.7v-11.9zm-126.7 114h126.8v-12.1H114.6v12.1zm-44.4-74.7c-9.9-.4-19.3 8.4-19.8 18.5-.4 10 8.6 19.4 19 19.7 10.2.3 18.5-7.8 19-18.5.5-10.6-7.5-19.3-18.2-19.7zm1.9 24.6c-1 .5-2 .7-3.2.7-3.3-.1-5.8-2.8-5.8-6.2 0-2.5 1.4-4.7 3.4-5.7.9-.5 2-.8 3.2-.7 1 .1 1.9.4 2.8.9 2 1.1 3.3 3.2 3.2 5.6-.1 2.4-1.5 4.5-3.6 5.4zm-2.5 25.3c-10-.1-19.2 9-19.2 19s8.9 18.8 18.9 18.9c5.1 0 9.8-2.1 13.3-5.4 3.5-3.4 5.7-8 5.7-13.2.2-10.3-8.4-19.2-18.7-19.3zM73 233c-1 .6-2.2 1-3.6 1-1.6 0-2.9-.5-3.9-1.3-.1-.1-.2-.1-.3-.2-.2-.2-.4-.3-.5-.5-.1-.1-.2-.2-.3-.4-.1-.2-.3-.4-.4-.5-.1-.1-.2-.3-.2-.5l-.3-.6c-.1-.2-.1-.4-.2-.5 0-.2-.1-.4-.1-.6-.1-.3-.1-.6-.1-.9v-.3c-.1-3.7 2.5-6.4 6.3-6.5 2.2 0 3.9.8 5 2.2.2.2.4.5.5.8.1.1.1.3.2.4.1.2.2.4.2.6.1.3.2.6.2.9v.2c.1.4.1.9.1 1.3.1 2.5-.9 4.4-2.6 5.4zm-3.4-126.3c-10-.1-19.3 9.2-19.1 19.1.2 9.7 9.1 18.6 18.9 18.6 10.3.1 19.1-8.6 19-18.9-.1-10.1-8.8-18.8-18.8-18.8zm-.3 25.2c-1.6 0-2.9-.5-3.9-1.4 0 0-.1 0-.1-.1l-.3-.3c-.1 0-.1-.1-.2-.1l-.2-.2c-.1-.1-.1-.2-.2-.2l-.1-.1c-.1-.1-.2-.2-.2-.3v-.1c-.4-.6-.7-1.4-.8-2.2v-.1c0-.2-.1-.3-.1-.5v-.7c0-3.7 2.6-6.4 6.4-6.4s6.2 2.5 6.2 6.5c-.1 3.9-2.6 6.3-6.5 6.2z"/><path d="M72.5 172.4c-.8-.5-1.8-.8-2.8-.9-1.2 0-2.3.2-3.2.7-2 1-3.3 3.1-3.3 5.6 0 3.4 2.4 6.1 5.8 6.2 1.1.1 2.2-.2 3.1-.6 2.1-1 3.5-3 3.6-5.4 0-2.3-1.3-4.4-3.2-5.6zm3.1 53.6c-.1-.3-.1-.6-.2-.9-.1-.2-.1-.4-.2-.6-.1-.1-.1-.3-.2-.4-.1-.3-.3-.6-.5-.8-1.1-1.4-2.8-2.2-5-2.2-3.8.1-6.4 2.8-6.3 6.5v.2c0 .3.1.6.1.9 0 .2.1.4.1.6 0 .2.1.4.2.5l.3.6c.1.2.2.3.2.5.1.2.2.4.4.5.1.1.2.3.3.4l.5.5c.1.1.2.1.3.2 1 .8 2.4 1.2 3.9 1.2 1.4 0 2.7-.3 3.6-.9 1.7-1 2.7-2.9 2.7-5.4 0-.5 0-.9-.1-1.3-.1.1-.1 0-.1-.1zm.1-100.3c0-4-2.4-6.5-6.2-6.5s-6.4 2.7-6.4 6.4v.7c0 .2 0 .4.1.5v.1c.1.8.4 1.5.8 2.2v.1c.1.1.2.2.2.3l.1.1c.1.1.1.2.2.2l.2.2s.1.1.2.1l.3.3s.1 0 .1.1c1 .8 2.4 1.3 3.9 1.4 4 .1 6.5-2.3 6.5-6.2z" fill="#fff"/></svg>