<svg xmlns="http://www.w3.org/2000/svg" viewBox="0 0 300 300"><path d="M149.8 248.5H73.5c-9.3 0-14.9-5.6-14.9-15V94.7c0-9.3 5.7-14.9 14.9-14.9h8.9c4.4 0 4.4 0 4.4-4.3 0-3.2-.3-6.4.2-9.5 1.3-7.8 6.8-13.1 14.7-14.2 6-.9 12.1-1.1 17.7 1.8 6.1 3.2 9 8.5 9.3 15.2.1 2.7.1 5.5 0 8.2-.1 1.9.5 2.9 2.6 2.9h37.2c2 0 2.7-.9 2.6-2.8-.1-2.4-.1-4.8 0-7.2.5-10.5 6.7-17.3 17-18.2 6.1-.6 12.3-.6 17.7 3.2 4.7 3.4 7.6 7.8 7.3 13.9-.1 2.4.2 4.8-.1 7.2-.3 3.3 1.2 4.3 4.2 4.1 3.2-.2 6.4-.1 9.5 0 8.4.1 14 5.4 14.7 13.7.1 1 0 2 0 3v135.5c0 11.2-5.4 16.5-16.5 16.5-24.9-.3-50-.3-75.1-.3zm39.1-70c0-4.9-.1-9.9.1-14.8.1-2.4-.6-3.2-3.1-3.2-9.9.1-19.7.1-29.6 0-2.2 0-3.1.6-3 2.9.1 10 .1 19.9 0 29.9 0 2.1.6 2.9 2.8 2.9 10.1-.1 20.1-.1 30.2 0 2 0 2.7-.6 2.7-2.6-.2-5.1-.1-10.1-.1-15.1zm-42.5-18c-11.4 0-22.2 0-33 .1-.7 0-2 1.6-2 2.5-.1 10.1-.1 20.2-.1 30.3 0 2.2.9 2.8 3 2.8 9.8-.1 19.5-.1 29.3 0 2.3 0 3.1-.6 3-3-.2-4.8-.1-9.6-.1-14.5-.1-5.8-.1-11.7-.1-18.2zM129.1 203c-4.9 0-9.9.1-14.8 0-2.3-.1-3.1.8-3 3 .1 8.5.1 17.1 0 25.6 0 2.4.7 3.4 3.2 3.3 9.6-.1 19.3-.1 28.9 0 2.2 0 3.1-.7 3.1-3-.1-8.8-.1-17.5 0-26.3 0-2-.6-2.7-2.6-2.7-5 .2-9.9.1-14.8.1zm42.2 0c-5.2 0-10.3.1-15.5 0-1.8 0-2.6.5-2.5 2.4.1 8.9.1 17.8 0 26.6 0 2.1.8 3 2.9 2.9 10-.1 19.9-.1 29.9 0 2.2 0 2.9-.9 2.8-3-.1-8.8-.1-17.5 0-26.3 0-2.3-.8-2.8-2.9-2.7-4.9.2-9.8.1-14.7.1zm17.6-49.6v-29c0-2.3-1.2-2.7-3.1-2.7-9.8 0-19.5.1-29.3 0-2.4 0-3.3.7-3.3 3.2.1 8.7.1 17.3 0 26 0 2.2.7 2.8 2.8 2.8 10.2-.1 20.4 0 30.6-.1.7 0 1.3-.1 2.3-.2zm7.2 7.1v35.6h29.2c1.9 0 2.4-1 2.4-2.7v-30.2c0-1.7-.6-2.7-2.4-2.7-9.7.1-19.3 0-29.2 0zm-67.3-6.9c4.9 0 9.9-.1 14.8.1 2.4.1 3-.7 2.9-3-.1-8.5-.1-17.1 0-25.6 0-2.4-.7-3.3-3.2-3.3-9.6.1-19.3.1-28.9 0-2.2 0-3.2.7-3.2 3 .1 8.8.1 17.5 0 26.3 0 2 .8 2.7 2.7 2.6 5-.1 9.9-.1 14.9-.1zm-56.4 24.8c0 4.9.1 9.9 0 14.8 0 2 .4 3 2.7 3 8.8-.1 17.5-.1 26.3 0 2 0 2.7-.6 2.7-2.6-.1-10.1-.1-20.2 0-30.2 0-2.2-.8-2.8-2.9-2.8-8.7.1-17.3.1-26 0-2.4 0-3 1-2.9 3.1.1 4.8.1 9.8.1 14.7zm31.7 40.7c0-4.5-.1-9 0-13.5 0-1.9-.5-2.7-2.6-2.7-8.8.1-17.5.1-26.3 0-2.1 0-2.9.7-2.8 2.8.1 8.7.1 17.3 0 26 0 2.5 1 3.2 3.3 3.2 8.4-.1 16.9-.1 25.3 0 2.5 0 3.2-1 3.2-3.3-.2-4.1-.1-8.3-.1-12.5zM211.7 203c-4.4 0-8.8.1-13.1 0-1.9 0-2.8.4-2.8 2.5.1 8.9.1 17.7 0 26.6 0 2.2.9 2.9 2.9 2.9 8.6-.1 17.3-.1 25.9 0 2.3 0 3.1-.9 3.1-3.2-.1-8.6-.1-17.3 0-25.9 0-2.1-.7-2.9-2.9-2.9-4.3.1-8.7 0-13.1 0zm-.2-49.4c4.4 0 8.8-.1 13.1 0 2 0 3.1-.5 3.1-2.7-.1-8.8-.1-17.5 0-26.3 0-2.1-.9-2.9-2.9-2.9h-26.3c-2 0-2.7.8-2.7 2.7.1 9 .1 17.9 0 26.9 0 2 .9 2.3 2.6 2.3h13.1zM72.4 137.7c0 4.5.1 9 0 13.5 0 1.8.6 2.5 2.5 2.5 8.9-.1 17.7-.1 26.6 0 2 0 2.7-.7 2.7-2.7-.1-8.8-.1-17.5 0-26.3 0-2.1-.6-3-2.8-3-8.7.1-17.3.1-26 0-2.3 0-3.1.9-3 3.1v12.9zm112.9-52.8V100c0 2.9 1.5 4.4 4.4 4.6h2.6c6.2 0 7.3-1.1 7.3-7.2v-23c0-8.8-.8-9.6-9.6-9.2-3.4.2-4.8 1.5-4.8 4.8 0 5 .1 9.9.1 14.9zm-70.6-.2V72.5c0-6.9-.4-7.4-7.5-7.3h-.7c-4.7 0-5.8 1.2-5.8 5.8v25c0 8.3.4 8.7 8.7 8.5h.7c3.2-.2 4.6-1.5 4.6-4.7V84.7z"/></svg>