<svg version="1.1" id="Layer_1" xmlns="http://www.w3.org/2000/svg" x="0" y="0" viewBox="0 0 72 72" xml:space="preserve"><style>.st0{fill:#959595}</style><path class="st0" d="M35.8 42.7c.6 0 1-.4 1-1V10.3c0-.6-.4-1-1-1s-1 .4-1 1v31.4c0 .5.5 1 1 1z"/><path class="st0" d="M35.1 50.8c.2.2.4.3.7.3.3 0 .5-.1.7-.3l17.7-17.7c.4-.4.4-1 0-1.4-.2-.2-.4-.3-.7-.3s-.5.1-.7.3l-17 17-17-17c-.2-.2-.4-.3-.7-.3s-.5.1-.7.3c-.2.2-.3.4-.3.7s.1.5.3.7l17.7 17.7z"/><path class="st0" d="M62.2 39.3c-.6 0-1 .5-1 1V61H10.5V40.3c0-.6-.4-1-1-1s-1 .5-1 1V62c0 .6.5 1 1 1h52.7c.6 0 1-.4 1-1V40.3c0-.5-.5-1-1-1z"/></svg>