<svg version="1.1" id="Layer_1" xmlns="http://www.w3.org/2000/svg" x="0" y="0" viewBox="0 0 72 72" xml:space="preserve"><style>.st0{fill:#464646}</style><path class="st0" d="M36.8 42.7c-.6 0-1-.4-1-1V10.3c0-.6.5-1 1-1s1 .4 1 1v31.4c0 .5-.4 1-1 1z"/><path class="st0" d="M36.8 51.1c-.3 0-.5-.1-.7-.3L18.4 33.1c-.2-.2-.3-.4-.3-.7s.1-.5.3-.7c.2-.2.4-.3.7-.3s.5.1.7.3l17 17 17-17c.2-.2.4-.3.7-.3s.5.1.7.3c.4.4.4 1 0 1.4L37.5 50.8c-.2.2-.4.3-.7.3z"/><path class="st0" d="M10.5 63c-.6 0-1-.4-1-1V40.3c0-.6.5-1 1-1s1 .5 1 1V61h50.7V40.3c0-.6.4-1 1-1s1 .5 1 1V62c0 .6-.5 1-1 1H10.5z"/></svg>