<svg version="1.1" id="Layer_1" xmlns="http://www.w3.org/2000/svg" x="0" y="0" viewBox="0 0 72 72" xml:space="preserve"><style>.st0{fill:#222}</style><path class="st0" d="M58.3 34.7h-2V9.4c0-.6-.5-1-1-1H31.7c-.1 0-.3 0-.4.1s-.2.1-.3.2L12.8 27.1c-.3.3-.4.7-.2 1.1s.5.6 1 .6h18.2c.6 0 1-.5 1-1V10.4h21.4v24.3H14.5V33c0-.6-.5-1-1-1-.6 0-1 .5-1 1v30.3c0 .6.5 1 1 1h41.8c.6 0 1-.5 1-1v-2.1c0-.6-.5-1-1-1s-1 .5-1 1v1H14.5v-4.9h43.7c.6 0 1-.5 1-1V35.8c.1-.6-.3-1.1-.9-1.1zm-27.6-8H16l14.7-14.8v14.8zm26.5 28.7H14.5V36.8h42.7v18.6z"/><path class="st0" d="M44.5 51.6c.6 0 1-.5 1-1V48h3.1c.6 0 1-.5 1-1s-.5-1-1-1h-3.1v-3.2h5.1c.6 0 1-.5 1-1s-.5-1-1-1h-6.1c-.6 0-1 .5-1 1v9c0 .4.4.8 1 .8zm-23.4 0c.6 0 1-.5 1-1V48h2.5c2.5 0 3.9-1.9 3.9-3.7s-1.4-3.7-3.9-3.7H21c-.6 0-1 .5-1 1v9c.1.6.6 1 1.1 1zm1.1-9h2.5c1.3 0 1.8.8 1.8 1.6s-.5 1.6-1.8 1.6h-2.5v-3.2zm10.2 9h2.5c3.4 0 5.5-2.1 5.5-5.5s-2.1-5.5-5.5-5.5h-2.5c-.6 0-1 .5-1 1v9c0 .3.1.5.3.7s.5.3.7.3zm1.1-9h1.4c1.5 0 3.4.6 3.4 3.5s-1.8 3.5-3.4 3.5h-1.4v-7z"/></svg>