<svg version="1.1" id="Layer_1" xmlns="http://www.w3.org/2000/svg" x="0" y="0" viewBox="0 0 72 72" xml:space="preserve"><style>.st0{fill:#959595}</style><path class="st0" d="M58.3 35.1h-2V9.8c0-.6-.5-1-1-1H31.7c-.1 0-.3 0-.4.1-.1-.1-.2 0-.3.1L12.8 27.4c-.3.3-.4.7-.2 1.1s.5.6 1 .6h18.2c.6 0 1-.5 1-1V10.8h21.4v24.3H14.5v-1.7c0-.6-.5-1-1-1s-1 .5-1 1v30.3c0 .6.5 1 1 1h41.8c.6 0 1-.5 1-1v-2.1c0-.6-.5-1-1-1s-1 .5-1 1v1H14.5v-4.9h43.7c.6 0 1-.5 1-1V36.1c.1-.6-.3-1-.9-1zm-27.6-8H16l14.7-14.8v14.8zm26.5 28.7H14.5V37.2h42.7v18.6z"/><path class="st0" d="M33.6 52h6.1c.6 0 1-.5 1-1s-.5-1-1-1h-5.1v-8c0-.6-.5-1-1-1s-1 .5-1 1v9c-.1.5.4 1 1 1zm-10.1-5.5l-3.1 3.8c-.4.4-.3 1.1.1 1.5.2.2.4.2.7.2.3 0 .6-.1.8-.4l2.9-3.5 2.9 3.5c.2.2.5.4.8.4.2 0 .5-.1.7-.2.4-.4.5-1 .1-1.5l-3.1-3.8 3.1-3.8c.2-.2.3-.5.2-.8 0-.3-.2-.5-.4-.7-.2-.2-.4-.2-.7-.2-.3 0-.6.1-.8.4l-2.9 3.5-2.8-3.6c-.2-.2-.5-.4-.8-.4-.2 0-.5.1-.7.2-.2.2-.4.4-.4.7 0 .3.1.6.2.8l3.2 3.9zM44.2 51c1.2.7 2.5 1.1 3.7 1.1.7 0 1.3-.1 1.8-.3.9-.4 1.5-1 1.7-1.8.4-1.3.5-3.3-3.5-4.6-.7-.2-1-.5-1.2-.6l-.5-.2.2-.7c.1-.2.2-.3.3-.5.2-.2.6-.3 1-.3.6 0 1.4.3 1.8.7.2.2.5.3.7.3.3 0 .5-.1.7-.3.4-.4.4-1.1 0-1.5-.8-.8-2.1-1.4-3.3-1.4-.6 0-1.5.1-2.3.8-.8.7-1.2 1.8-1 2.8.1.7.7 2 3 2.8.7.2 1.3.5 1.7.7h.6v1.1l-.1.3-.3.2c-.3.2-.8.3-1.2.3-.5 0-1.5-.1-2.8-.8-.1-.1-.3-.1-.5-.1-.4 0-.7.2-.9.5-.1.2-.2.5-.1.8.1.3.3.5.5.7z"/></svg>