<svg version="1.1" id="Layer_1" xmlns="http://www.w3.org/2000/svg" x="0" y="0" viewBox="0 0 72 72" xml:space="preserve"><style>.st0{fill:#fff}</style><path class="st0" d="M58.2 34.5h-2V9.2c0-.6-.5-1-1-1H31.7c-.1 0-.3 0-.4.1s-.2.1-.3.2L12.7 26.9c-.3.3-.4.7-.2 1.1s.5.6 1 .6h18.2c.6 0 1-.5 1-1V10.3h21.4v24.3H14.5v-1.7c0-.6-.5-1-1-1s-1 .5-1 1v30.3c0 .6.5 1 1 1h41.8c.6 0 1-.5 1-1v-2.1c0-.6-.5-1-1-1s-1 .5-1 1v1H14.5v-4.9h43.7c.6 0 1-.5 1-1V35.6c.1-.6-.4-1.1-1-1.1zm-27.6-7.9H15.9l14.7-14.8v14.8zm26.6 28.6H14.5V36.6h42.7v18.6z"/><path class="st0" d="M39.3 41c-.2-.4-.5-.6-1-.6s-.8.2-1 .6l-4.2 9c-.2.5 0 1.1.5 1.4.1.1.3.1.4.1.4 0 .8-.2 1-.6l.4-.8h5.7l.4.8c.2.4.5.6 1 .6.2 0 .3 0 .4-.1.5-.2.8-.9.5-1.4l-4.1-9zm-2.9 7l1.9-4 1.9 4h-3.8zm-5.5-7.6h-.3c-.5 0-.9.3-1 .8L28.1 47l-2.2-5.9c-.2-.4-.5-.7-1-.7s-.8.3-1 .7L21.7 47l-1.5-5.8c-.1-.5-.5-.8-1-.8h-.3c-.6.1-.9.7-.7 1.3l2.4 9c.1.4.5.8 1 .8h.1c.4 0 .8-.3 1-.7l2.3-6.3 2.3 6.3c.2.4.5.7 1 .7s.8-.3 1-.8l2.4-9c.1-.3 0-.6-.1-.8-.2-.2-.4-.4-.7-.5zm21.9.1c-.1-.1-.3-.1-.4-.1-.4 0-.8.3-1 .7l-2.7 6.6L46 41c-.2-.4-.5-.7-1-.7-.1 0-.3 0-.4.1-.3.1-.5.3-.6.6s-.1.5 0 .8l3.7 9c.2.4.5.7 1 .7s.8-.3 1-.7l3.7-9c.1-.3.1-.5 0-.8-.2-.2-.4-.4-.6-.5z"/></svg>