<svg version="1.1" id="Layer_1" xmlns="http://www.w3.org/2000/svg" x="0" y="0" viewBox="0 0 72 72" xml:space="preserve"><style>.st0{fill:#222}</style><path class="st0" d="M57.7 34.6h-2V9.3c0-.6-.5-1-1-1H31.1c-.1 0-.3 0-.4.1s-.2.1-.3.2L12.1 27c-.3.3-.4.7-.2 1.1s.5.6 1 .6h18.2c.6 0 1-.5 1-1V10.3h21.4v24.3H13.9v-1.7c0-.6-.5-1-1-1s-1 .5-1 1v30.3c0 .6.5 1 1 1h41.8c.6 0 1-.5 1-1v-2.1c0-.6-.5-1-1-1s-1 .5-1 1v1H13.9v-4.9h43.7c.6 0 1-.5 1-1V35.7c.1-.6-.4-1.1-.9-1.1zm-27.6-7.9H15.4l14.7-14.8v14.8zm26.5 28.6H13.9V36.7h42.7v18.6z"/><path class="st0" d="M21.7 51.5h6.1c.6 0 1-.5 1-1s-.5-1-1-1h-5.1V47h3.1c.6 0 1-.5 1-1s-.5-1-1-1h-3.1v-2.4h5.1c.6 0 1-.5 1-1s-.5-1-1-1h-6.1c-.6 0-1 .5-1 1v9c0 .5.4.9 1 .9zm10.9 0c.6 0 1-.5 1-1v-2.6h2.5c2.5 0 3.9-1.9 3.9-3.7s-1.4-3.7-3.9-3.7h-3.6c-.6 0-1 .5-1 1v9c.1.6.5 1 1.1 1zm1.1-9h2.5c1.3 0 1.8.8 1.8 1.6s-.5 1.6-1.8 1.6h-2.5v-3.2zm8.8 8c1.2.7 2.5 1.1 3.7 1.1.7 0 1.3-.1 1.8-.3.9-.4 1.5-1 1.7-1.8.4-1.3.5-3.3-3.5-4.6-.7-.2-1-.5-1.2-.6l-.5-.3.2-.7c.1-.2.2-.4.3-.5.2-.2.6-.3 1-.3.6 0 1.4.3 1.8.7.2.2.5.3.7.3.3 0 .5-.1.7-.3.4-.4.4-1.1 0-1.5-.8-.8-2.1-1.4-3.3-1.4-.6 0-1.5.1-2.3.8s-1.2 1.8-1 2.8c.1.7.7 2 3 2.8 1.2.4 1.7.7 1.9.8l-.5.1-.8.7 1.6.1v.3l-.1.3-.3.2c-.3.2-.8.3-1.2.3-.5 0-1.5-.1-2.8-.8-.2-.1-.3-.1-.5-.1-.4 0-.7.2-.9.5-.1.2-.2.5-.1.8s.3.5.6.6z"/></svg>