<svg version="1.1" id="Layer_1" xmlns="http://www.w3.org/2000/svg" x="0" y="0" viewBox="0 0 72 72" xml:space="preserve"><style>.st0{fill:#959595}</style><path class="st0" d="M58 34.3h-2V9c0-.6-.5-1-1-1H31c-.1.1-.2.1-.3.2L12.5 26.7c-.3.3-.4.7-.2 1.1s.5.6 1 .6h18.2c.6 0 1-.5 1-1V10.1h21.4v24.3H14.2v-1.7c0-.6-.5-1-1-1s-1 .5-1 1V63c0 .6.5 1 1 1H55c.6 0 1-.5 1-1v-2.1c0-.6-.5-1-1-1s-1 .5-1 1v1H14.2v-4.8H58c.6 0 1-.5 1-1V35.4c0-.6-.4-1.1-1-1.1zm-27.6-7.9H15.7l14.7-14.8v14.8zM56.9 55H14.2V36.4h42.7V55z"/><path class="st0" d="M27.4 40.2h-7.1c-.6 0-1 .5-1 1s.5 1 1 1h2.5v8c0 .6.5 1 1 1s1-.5 1-1v-8h2.5c.6 0 1-.5 1-1s-.4-1-.9-1zm23.5 0h-7.1c-.6 0-1 .5-1 1s.5 1 1 1h2.5v8c0 .6.5 1 1 1s1-.5 1-1v-8h2.5c.6 0 1-.5 1-1s-.3-1-.9-1zm-14 5.5l3.1-3.8c.4-.4.3-1.1-.1-1.5-.2-.2-.4-.2-.7-.2-.3 0-.6.1-.8.4l-2.9 3.5-2.9-3.5c-.2-.2-.5-.4-.8-.4-.2 0-.5.1-.7.2-.4.4-.5 1-.1 1.5l3.1 3.8-3.1 3.8c-.2.2-.3.5-.2.8 0 .3.2.5.4.7.2.2.4.2.7.2.3 0 .6-.1.8-.4l2.9-3.5 2.9 3.5c.2.2.5.4.8.4.2 0 .5-.1.7-.2.2-.2.4-.4.4-.7 0-.3-.1-.6-.2-.8l-3.3-3.8z"/></svg>