<svg version="1.1" id="Layer_1" xmlns="http://www.w3.org/2000/svg" x="0" y="0" viewBox="0 0 72 72" xml:space="preserve"><style>.st0{fill:#222}</style><path class="st0" d="M57.9 34.3h-2V8.9c0-.6-.5-1-1-1H31.4c-.1 0-.3 0-.4.1s-.2.1-.3.2L12.4 26.6c-.3.3-.4.7-.2 1.1s.5.6 1 .6h18.2c.6 0 1-.5 1-1V10h21.4v24.3H14.2v-1.7c0-.6-.5-1-1-1s-1 .5-1 1v30.3c0 .6.5 1 1 1H55c.6 0 1-.5 1-1v-2.1c0-.6-.5-1-1-1s-1 .5-1 1v1H14.2V57h43.7c.6 0 1-.5 1-1V35.3c.1-.6-.4-1-1-1zm-27.5-8H15.7l14.7-14.8v14.8zM56.9 55H14.2V36.4h42.7V55z"/><path class="st0" d="M45.2 40.1h-3.6c-.6 0-1 .5-1 1v9c0 .6.5 1 1 1s1-.5 1-1v-2.6h2.5c2.5 0 3.9-1.9 3.9-3.7.1-1.8-1.3-3.7-3.8-3.7zm0 5.3h-2.5v-3.2h2.5c1.3 0 1.8.8 1.8 1.6 0 .7-.5 1.6-1.8 1.6zm-9.6-5.3c-.6 0-1 .5-1 1v9c0 .6.5 1 1 1s1-.5 1-1v-9c.1-.5-.4-1-1-1zm-5.3 9h-5.1l5.9-7.3c.3-.3.3-.7.1-1.1-.2-.4-.5-.6-.9-.6h-7.2c-.6 0-1 .5-1 1s.5 1 1 1h5.1l-5.9 7.3c-.3.3-.3.7-.1 1.1.2.4.5.6.9.6h7.2c.6 0 1-.5 1-1s-.4-1-1-1z"/></svg>