<svg version="1.1" id="Layer_1" xmlns="http://www.w3.org/2000/svg" x="0" y="0" viewBox="0 0 72 72" xml:space="preserve"><style>.st0{fill:#222}</style><path class="st0" d="M58.3 34.5h-2V9.2c0-.6-.5-1-1-1H31.8c-.1 0-.3 0-.4.1s-.2.1-.3.2L12.8 26.9c-.3.3-.4.7-.2 1.1s.5.6 1 .6h18.2c.6 0 1-.5 1-1V10.3h21.4v24.3H14.6v-1.7c0-.6-.5-1-1-1s-1 .5-1 1v30.3c0 .6.5 1 1 1h41.8c.6 0 1-.5 1-1v-2.1c0-.6-.5-1-1-1s-1 .5-1 1v1H14.6v-4.9h43.7c.6 0 1-.5 1-1V35.6c.1-.6-.4-1.1-1-1.1zm-27.6-7.9H16.1l14.7-14.8-.1 14.8zm26.6 28.6H14.6V36.6h42.7v18.6z"/><path class="st0" d="M38.8 40.4h-3.6c-.6 0-1 .5-1 1v9c0 .6.5 1 1 1s1-.5 1-1v-2.6h2.5c2.5 0 3.9-1.9 3.9-3.7 0-1.8-1.3-3.7-3.8-3.7zm0 5.3h-2.5v-3.2h2.5c1.3 0 1.8.8 1.8 1.6 0 .7-.5 1.6-1.8 1.6zm14.7-.7c.5-.8.6-1.9.2-2.9-.5-1-1.6-1.5-2.6-1.8-.6-.2-1.3-.2-2-.2-1.6 0-3 .4-3.9 1.2-.2.2-.4.4-.4.7s0 .6.2.8c.2.3.5.4.8.4.2 0 .5-.1.7-.2.7-.6 1.8-.7 2.6-.7s1.8.1 2.4.5l.7.4-.4.7c-.4.6-1.6.9-3.2.9-.6 0-1 .5-1 1s.5 1 1 1c1.9 0 2.9.5 3.1.9l.1.2v.3l-.1.5-.3.2c-.6.4-1.6.5-2.4.5-.8 0-1.9-.1-2.6-.7-.2-.1-.4-.2-.7-.2s-.6.1-.8.4c-.2.2-.3.5-.2.8 0 .3.2.5.4.7.9.7 2.3 1.2 3.9 1.2.7 0 1.4-.1 2-.2.9-.2 2.1-.7 2.6-1.8.4-1 .4-2-.2-2.9-.1-.1-.1-.2-.2-.3l-.4-.5.4-.5c.2-.2.2-.3.3-.4zm-24.1-3.8c-.1-.5-.5-.8-.9-.8h-.1c-.4 0-.8.3-1 .6l-2.8 6.7-2.8-6.7c-.2-.4-.5-.6-1-.6h-.1c-.5 0-.8.4-.9.8l-1.9 9c-.1.3 0 .6.1.8s.4.4.7.5h.2c.5 0 .9-.4 1-.8l1.2-5.7 2.5 5.9c.2.4.5.6 1 .6s.8-.3 1-.6l2.5-5.9 1.2 5.7c.1.5.5.8 1 .8h.2c.6-.1.9-.7.8-1.2l-1.9-9.1z"/></svg>