<svg version="1.1" id="Layer_1" xmlns="http://www.w3.org/2000/svg" x="0" y="0" viewBox="0 0 72 72" xml:space="preserve"><style>.st0{fill:#959595}</style><path class="st0" d="M58.3 34.5h-2V9.2c0-.6-.5-1-1-1H31.8c-.1 0-.3 0-.4.1-.1.1-.2.1-.3.2L12.8 26.8c-.3.3-.4.7-.2 1.1s.5.6 1 .6h18.2c.6 0 1-.5 1-1V10.2h21.4v24.3H14.6v-1.7c0-.6-.5-1-1-1s-1 .5-1 1v30.3c0 .6.5 1 1 1h41.8c.6 0 1-.5 1-1V61c0-.6-.5-1-1-1s-1 .5-1 1v1H14.6v-4.9h43.7c.6 0 1-.5 1-1V35.5c.1-.6-.4-1-1-1zm-27.6-8H16.1l14.7-14.8v14.8zm26.6 28.7H14.6V36.6h42.7v18.6z"/><path class="st0" d="M38 40.3h-3.6c-.6 0-1 .5-1 1v9c0 .6.5 1 1 1s1-.5 1-1v-2.6H38c2.5 0 3.9-1.9 3.9-3.7 0-1.8-1.4-3.7-3.9-3.7zm0 5.3h-2.5v-3.2H38c1.3 0 1.8.8 1.8 1.6s-.5 1.6-1.8 1.6zm-9.2-4.4c-.1-.5-.5-.8-.9-.8h-.1c-.4 0-.8.3-1 .6L24 47.7 21.2 41c-.2-.4-.5-.6-1-.6h-.1c-.5 0-.8.4-.9.8l-1.9 9c-.1.3 0 .6.1.8s.4.4.7.5h.2c.5 0 .9-.3 1-.8l1.2-5.7 2.5 5.9c.2.4.5.6 1 .6.4 0 .8-.3 1-.6l2.5-5.9 1.2 5.7c.1.5.5.8 1 .8h.2c.3-.1.5-.2.7-.5s.2-.5.1-.8l-1.9-9zm24.7 3.5h-3.3c-.6 0-1 .5-1 1s.5 1 1 1h2.3v1.6l-.3.2c-.6.5-1.4.7-2.4.7-1.6 0-3.5-.6-3.5-3.5s1.9-3.5 3.5-3.5h2.7c.6 0 1-.5 1-1s-.5-1-1-1h-2.7c-3.4 0-5.6 2.1-5.6 5.5s2.1 5.5 5.6 5.5c2 0 3.6-.7 4.6-2.1.1-.2.2-.4.2-.6v-3c0-.3-.5-.8-1.1-.8z"/></svg>