<svg version="1.1" id="Layer_1" xmlns="http://www.w3.org/2000/svg" x="0" y="0" viewBox="0 0 72 72" xml:space="preserve"><style>.st0{fill:#959595}</style><path class="st0" d="M58.2 34.6h-2V9.3c0-.6-.5-1-1-1H31.7c-.1 0-.3 0-.4.1-.1.1-.2.1-.3.2L12.7 27c-.3.3-.4.7-.2 1.1.2.4.5.6 1 .6h18.2c.6 0 1-.5 1-1V10.3h21.4v24.3H14.5v-1.7c0-.6-.5-1-1-1s-1 .5-1 1v30.3c0 .6.5 1 1 1h41.8c.6 0 1-.5 1-1v-2.1c0-.6-.5-1-1-1s-1 .5-1 1v1H14.5v-4.9h43.7c.6 0 1-.5 1-1V35.7c.1-.6-.4-1.1-1-1.1zm-27.6-7.9H15.9l14.7-14.8v14.8zm26.6 28.6H14.5V36.7h42.7v18.6z"/><path class="st0" d="M20.4 50.5c1.2.7 2.5 1.1 3.7 1.1.7 0 1.3-.1 1.8-.3.9-.4 1.5-1 1.7-1.8.4-1.3.5-3.3-3.5-4.6-.7-.2-1-.5-1.2-.6l-.6-.3.2-.7c.1-.2.2-.3.3-.5.2-.2.6-.3 1-.3.6 0 1.4.3 1.8.7.2.2.5.3.7.3.3 0 .5-.1.7-.3.2-.2.3-.5.3-.7s-.1-.5-.3-.7c-.8-.8-2.1-1.4-3.3-1.4-.6 0-1.5.1-2.3.8-.8.7-1.2 1.8-1 2.8.1.7.7 2 3 2.8.9.3 1.4.6 1.7.7h.6v1.1l-.1.4-.3.2c-.3.2-.8.3-1.2.3-.5 0-1.5-.1-2.8-.8-.2-.1-.3-.1-.5-.1-.4 0-.7.2-.9.5-.2.5-.1 1.1.5 1.4zm26.7 1c2 0 3.6-.7 4.6-2.1.1-.2.2-.4.2-.6v-3c0-.6-.5-1-1-1h-3.3c-.6 0-1 .5-1 1s.5 1 1 1h2.3v1.6l-.3.2c-.6.5-1.4.7-2.4.7-1.6 0-3.5-.6-3.5-3.5s1.9-3.5 3.5-3.5h2.7c.6 0 1-.5 1-1s-.5-1-1-1h-2.7c-3.4 0-5.6 2.1-5.6 5.5s2 5.7 5.5 5.7zm-13.2-.6c.2.4.5.6 1 .6s.8-.3 1-.7l3.7-9c.1-.3.1-.5 0-.8-.1-.3-.3-.5-.6-.6-.1-.1-.3-.1-.4-.1-.4 0-.8.3-1 .7l-2.7 6.6-2.7-6.6c-.2-.4-.5-.7-1-.7-.1 0-.3 0-.4.1-.3.1-.5.3-.6.6-.1.3-.1.5 0 .8l3.7 9.1z"/></svg>