<svg version="1.1" id="Layer_1" xmlns="http://www.w3.org/2000/svg" x="0" y="0" viewBox="0 0 72 72" xml:space="preserve"><style>.st0{fill:#fff}</style><path class="st0" d="M15.2 65c-.6 0-1-.5-1-1V33.6c0-.6.5-1 1-1s1 .5 1 1v29.3H56V11H34.5v17.4c0 .6-.5 1-1 1H15.2c-.4 0-.8-.3-1-.6s-.1-.8.2-1.1L32.7 9.2c.1-.1.2-.2.4-.2.1-.1.3-.1.4-.1H57c.6 0 1 .5 1 1v54c0 .6-.5 1-1 1l-41.8.1zm2.5-37.7h14.7V12.5L17.7 27.3z"/><path class="st0" d="M36.1 56.8c-.6 0-1-.5-1-1V39.1l-9 9c-.2.2-.5.3-.7.3-.3 0-.5-.1-.7-.3-.4-.4-.4-1.1 0-1.5l10.8-10.8c.2-.2.5-.3.7-.3s.5.1.7.3l.1.1 10.8 10.8c.4.4.4 1.1 0 1.5-.2.2-.5.3-.7.3s-.5-.1-.7-.3l-9-9v16.7c-.2.5-.7.9-1.3.9z"/></svg>