<svg version="1.1" id="Layer_1" xmlns="http://www.w3.org/2000/svg" x="0" y="0" viewBox="0 0 72 72" xml:space="preserve"><style>.st0{fill:#222}</style><path class="st0" d="M58.3 34.5h-2V9.2c0-.6-.5-1-1-1H31.7c-.1 0-.3 0-.4.1s-.2.1-.3.2L12.7 26.8c-.3.3-.4.7-.2 1.1s.5.6 1 .6h18.2c.6 0 1-.5 1-1V10.2h21.4v24.3H14.5v-1.7c0-.6-.5-1-1-1s-1 .5-1 1v30.3c0 .6.5 1 1 1h41.8c.6 0 1-.5 1-1V61c0-.6-.5-1-1-1s-1 .5-1 1v1H14.5v-4.9h43.7c.6 0 1-.5 1-1V35.5c.1-.5-.3-1-.9-1zm-27.6-8H16l14.7-14.8v14.8zm26.5 28.7H14.5V36.6h42.7v18.6z"/><path class="st0" d="M46 50.8c.2.4.5.6 1 .6s.8-.3 1-.7l3.7-9c.1-.3.1-.5 0-.8s-.3-.5-.6-.6c-.1-.1-.3-.1-.4-.1-.4 0-.8.3-1 .7L47 47.6 44.2 41c-.2-.4-.5-.6-1-.6-.1 0-.3 0-.4.1-.3.1-.5.3-.6.6s-.1.5 0 .8l3.8 8.9zm-13.4-.4c1.2.7 2.5 1.1 3.7 1.1.7 0 1.3-.1 1.8-.3.9-.4 1.5-1 1.7-1.8.4-1.3.5-3.3-3.5-4.6-.7-.2-1-.5-1.2-.6l-.6-.2.2-.7c.1-.2.2-.3.3-.5.2-.2.6-.3 1-.3.6 0 1.4.3 1.8.7.2.2.5.3.7.3.3 0 .5-.1.7-.3s.3-.5.3-.7-.1-.5-.3-.7c-.8-.8-2.1-1.4-3.3-1.4-.6 0-1.5.1-2.3.8s-1.2 1.8-1 2.8c.1.7.7 2 3 2.8.7.2 1.3.5 1.7.7h.6v1.1l-.1.3-.3.2c-.3.2-.8.3-1.2.3-.5 0-1.5-.1-2.8-.8-.2-.1-.3-.1-.5-.1-.4 0-.7.2-.9.5-.1.2-.2.5-.1.8s.4.4.6.6zm-7.4 1c1.8 0 3.3-.8 4.2-2.1.2-.2.2-.5.1-.8s-.2-.5-.5-.7c-.2-.1-.4-.2-.6-.2-.4 0-.7.2-.9.5-.3.5-1 1.2-2.4 1.2-2 0-3-1.2-3-3.5s1-3.5 3-3.5c1.2 0 2 .4 2.5 1.3.2.3.5.5.9.5.2 0 .4 0 .5-.1.5-.3.7-.9.4-1.4-.8-1.5-2.4-2.3-4.3-2.3-3.1 0-5.1 2.1-5.1 5.5s2 5.6 5.2 5.6z"/></svg>