<svg version="1.1" id="Layer_1" xmlns="http://www.w3.org/2000/svg" x="0" y="0" viewBox="0 0 72 72" xml:space="preserve"><style>.st0{fill:#959595}</style><path class="st0" d="M58.3 35.1h-2V9.7c0-.6-.5-1-1-1H31.7c-.1 0-.3 0-.4.1-.1 0-.2.1-.3.2L12.7 27.4c-.3.3-.4.7-.2 1.1.2.4.5.6 1 .6h18.2c.6 0 1-.5 1-1V10.8h21.4v24.3H14.5v-1.7c0-.6-.5-1-1-1s-1 .5-1 1v30.3c0 .6.5 1 1 1h41.8c.6 0 1-.5 1-1v-2.1c0-.6-.5-1-1-1s-1 .5-1 1v1H14.5v-4.9h43.7c.6 0 1-.5 1-1V36.1c.1-.6-.4-1-.9-1zm-27.6-8H16l14.7-14.8v14.8zm26.5 28.6H14.5V37.2h42.7v18.5z"/><path class="st0" d="M39.2 40.9h-3.6c-.6 0-1 .5-1 1v9c0 .6.5 1 1 1s1-.5 1-1v-2.6h2.5c2.5 0 3.9-1.9 3.9-3.7.1-1.8-1.2-3.7-3.8-3.7zm0 5.3h-2.5V43h2.5c1.3 0 1.8.8 1.8 1.6 0 .7-.4 1.6-1.8 1.6zm13.1-5.3c-.6 0-1 .5-1 1v4.6h-3.5l1.5-4.2c.2-.5-.1-1.1-.6-1.3-.1 0-.2-.1-.3-.1-.4 0-.8.3-1 .7l-2 5.6c-.1.3-.1.7.1 1 .2.3.5.4.9.4h4.9v2.3c0 .6.5 1 1 1s1-.5 1-1v-9c.1-.5-.4-1-1-1zm-22.4.8c-.1-.5-.5-.8-.9-.8h-.1c-.4 0-.8.3-1 .6l-2.8 6.7-2.8-6.7c-.2-.4-.5-.6-1-.6h-.1c-.5 0-.8.4-.9.8l-1.9 9c-.1.3 0 .6.1.8.2.2.4.4.7.5h.2c.5 0 .9-.4 1-.8l1.2-5.7 2.5 5.9c.2.4.5.6 1 .6s.8-.3 1-.6l2.5-5.9 1.2 5.7c.1.5.5.8 1 .8h.2c.6-.1.9-.7.8-1.2l-1.9-9.1z"/></svg>