<svg version="1.1" id="Layer_1" xmlns="http://www.w3.org/2000/svg" x="0" y="0" viewBox="0 0 72 72" xml:space="preserve"><style>.st0{fill:#222}</style><path class="st0" d="M57.8 34.5h-2V9.2c0-.6-.5-1-1-1H31.3c-.1 0-.3 0-.4.1s-.2.1-.3.2L12.3 26.9c-.3.3-.4.7-.2 1.1s.5.6 1 .6h18.2c.6 0 1-.5 1-1V10.3h21.4v24.3H14.1v-1.7c0-.6-.5-1-1-1s-1 .5-1 1v30.3c0 .6.5 1 1 1h41.8c.6 0 1-.5 1-1v-2.1c0-.6-.5-1-1-1s-1 .5-1 1v1H14.1v-4.9h43.7c.6 0 1-.5 1-1V35.6c.1-.6-.4-1.1-1-1.1zm-27.5-7.9H15.6l14.7-14.8v14.8zm26.5 28.6H14.1V36.6h42.7v18.6z"/><path class="st0" d="M47 40.4c-.6 0-1 .5-1 1v9c0 .6.5 1 1 1s1-.5 1-1v-9c0-.5-.5-1-1-1zm-17.9.6c-.2-.4-.5-.6-1-.6-.4 0-.8.2-1 .6L23 50c-.2.5 0 1.1.5 1.4.1.1.3.1.4.1.4 0 .8-.2 1-.6l.4-.8H31l.4.8c.2.4.5.6 1 .6.2 0 .3 0 .4-.1.3-.1.4-.3.5-.6s.1-.5 0-.8l-4.2-9zm-2.9 7l1.9-4 1.9 4h-3.8zm16.4-7.5c-.1-.1-.3-.1-.4-.1-.4 0-.8.3-1 .7l-2.7 6.6-2.7-6.7c-.2-.4-.5-.7-1-.7-.1 0-.3 0-.4.1-.5.2-.8.8-.6 1.4l3.7 9c.2.4.5.7 1 .7s.8-.3 1-.7l3.7-9c.1-.3.1-.5 0-.8-.2-.2-.4-.4-.6-.5z"/></svg>