<svg version="1.1" id="Layer_1" xmlns="http://www.w3.org/2000/svg" x="0" y="0" viewBox="0 0 72 72" xml:space="preserve"><style>.st0{fill:#fff}</style><path class="st0" d="M57.9 34.8h-2V9.5c0-.6-.5-1-1-1H31.4c-.1 0-.3 0-.4.1s-.2.1-.3.2L12.4 27.2c-.3.3-.4.7-.2 1.1s.5.6 1 .6h18.2c.6 0 1-.5 1-1V10.6h21.4v24.3H14.2v-1.7c0-.6-.5-1-1-1s-1 .5-1 1v30.3c0 .6.5 1 1 1H55c.6 0 1-.5 1-1v-2.1c0-.6-.5-1-1-1s-1 .5-1 1v1H14.2v-4.9h43.7c.6 0 1-.5 1-1V35.9c.1-.6-.4-1.1-1-1.1zm-27.6-7.9H15.6l14.7-14.8v14.8zm26.6 28.6H14.2V36.9h42.7v18.6z"/><path class="st0" d="M50.3 41.3c-.2-.4-.5-.7-1-.7s-.8.3-1 .7l-3.7 9c-.2.5 0 1.1.6 1.4.1.1.3.1.4.1.4 0 .8-.3 1-.7l.3-.8h4.8l.3.8c.2.4.5.7 1 .7.1 0 .3 0 .4-.1.5-.2.8-.8.6-1.4l-3.7-9zm-2.5 7l1.5-3.8 1.5 3.8h-3zm-8.4-7.6c-.5 0-.8.3-1 .7l-2.2 6.2-2.2-6.2c0-.4-.4-.7-1-.7-.5 0-.9.4-.9.9l-1.6 9c0 .3 0 .6.2.8s.4.4.7.4h.2c.5 0 .9-.4 1-.9l.9-5.1 1.8 5.2c.1.4.5.7 1 .7.4 0 .8-.3 1-.7l1.8-5.2.9 5.1c.1.5.5.9 1 .9h.2c.3 0 .5-.2.7-.4s.2-.5.2-.8l-1.6-9c-.1-.5-.5-.9-1.1-.9zm-10.9 0h-.2c-.5 0-.9.3-1 .8L26 46.9l-1.8-5.5c-.1-.4-.5-.7-1-.7s-.9.3-1 .7l-1.8 5.5-1.3-5.4c-.1-.5-.5-.8-1-.8h-.2c-.6.1-.9.7-.8 1.3l2.1 9c.1.5.5.8 1 .8s.9-.3 1-.7l2-6 2 6c.1.4.6.7 1 .7.5 0 .9-.4 1-.8l2.1-9c.1-.3 0-.6-.1-.8-.2-.3-.4-.4-.7-.5z"/></svg>