<svg version="1.1" id="Layer_1" xmlns="http://www.w3.org/2000/svg" x="0" y="0" viewBox="0 0 72 72" xml:space="preserve"><style>.st0{fill:#fff}</style><path class="st0" d="M58.3 34.5h-2V9.2c0-.6-.5-1-1-1H31.8c-.1 0-.3 0-.4.1s-.2.1-.3.2L12.8 26.8c-.3.3-.4.7-.2 1.1s.5.6 1 .6h18.2c.6 0 1-.5 1-1V10.2h21.4v24.3H14.6v-1.7c0-.6-.5-1-1-1s-1 .5-1 1v30.3c0 .6.5 1 1 1h41.8c.6 0 1-.5 1-1V61c0-.6-.5-1-1-1s-1 .5-1 1v1H14.6v-4.9h43.7c.6 0 1-.5 1-1V35.5c0-.5-.4-1-1-1zm-27.6-8H16l14.7-14.8v14.8zm26.5 28.7H14.6V36.6h42.7v18.6h-.1z"/><path class="st0" d="M20.1 51.4h2.5c3.4 0 5.5-2.1 5.5-5.5s-2.1-5.5-5.5-5.5h-2.5c-.6 0-1 .5-1 1v9c0 .3.1.5.3.7.2.2.5.3.7.3zm1.1-9h1.4c1.5 0 3.4.6 3.4 3.5s-1.8 3.5-3.4 3.5h-1.4v-7zm14.5 9c3.1 0 5.1-2.1 5.1-5.5s-1.9-5.5-5.1-5.5c-3.1 0-5.1 2.1-5.1 5.5s1.9 5.5 5.1 5.5zm0-9c2 0 3 1.2 3 3.5s-1 3.5-3 3.5-3-1.2-3-3.5 1-3.5 3-3.5zm12.5 9c1.8 0 3.3-.8 4.2-2.1.3-.5.2-1.1-.3-1.4-.2-.1-.4-.2-.6-.2-.4 0-.7.2-.9.5-.3.5-1 1.2-2.4 1.2-2 0-3-1.2-3-3.5s1-3.5 3-3.5c1.2 0 2 .4 2.5 1.3.2.3.5.5.9.5.2 0 .4 0 .5-.1.2-.1.4-.4.5-.6.1-.3 0-.6-.1-.8-.8-1.5-2.4-2.3-4.3-2.3-3.1 0-5.1 2.1-5.1 5.5s2 5.5 5.1 5.5z"/></svg>