<svg version="1.1" id="Layer_1" xmlns="http://www.w3.org/2000/svg" x="0" y="0" viewBox="0 0 72 72" xml:space="preserve"><style>.st0{fill:#959595}</style><path class="st0" d="M56.9 8.2H33.3c-.1 0-.3 0-.4.1-.1.1-.2.1-.3.2L14.4 27c-.3.3-.4.7-.2 1.1.2.4.5.6 1 .6h18.2c.6 0 1-.5 1-1V10.3h21.4v51.9H16.1V32.9c0-.6-.5-1-1-1s-1 .5-1 1v30.3c0 .6.5 1 1 1h41.8c.6 0 1-.5 1-1v-54c0-.5-.4-1-1-1zM32.3 26.7H17.6l14.7-14.8v14.8z"/><path class="st0" d="M24.2 37.6h23.5c.6 0 1-.5 1-1s-.5-1-1-1H24.2c-.6 0-1 .5-1 1s.5 1 1 1zm0 6.1h23.5c.6 0 1-.5 1-1s-.5-1-1-1H24.2c-.6 0-1 .5-1 1s.5 1 1 1zm0 6.1h23.5c.6 0 1-.5 1-1s-.5-1-1-1H24.2c-.6 0-1 .5-1 1s.5 1 1 1zm0 6.1h12.5c.6 0 1-.5 1-1s-.5-1-1-1H24.2c-.6 0-1 .5-1 1s.5 1 1 1z"/></svg>