<svg version="1.1" id="Layer_1" xmlns="http://www.w3.org/2000/svg" x="0" y="0" viewBox="0 0 72 72" xml:space="preserve"><style>.st0{fill:#959595}</style><path class="st0" d="M57.8 34.6h-2V9.3c0-.6-.5-1-1-1H31.3c-.1 0-.3 0-.4.1-.1.1-.2.1-.3.2L12.3 27c-.3.3-.4.7-.2 1.1s.5.6 1 .6h18.2c.6 0 1-.5 1-1V10.3h21.4v24.3H14.1v-1.7c0-.6-.5-1-1-1s-1 .5-1 1v30.3c0 .6.5 1 1 1h41.8c.6 0 1-.5 1-1v-2.1c0-.6-.5-1-1-1s-1 .5-1 1v1H14.1v-4.8h43.7c.6 0 1-.5 1-1V35.7c0-.6-.4-1.1-1-1.1zm-27.6-7.9H15.5l14.7-14.8v14.8zm26.5 28.6H14.1V36.7h42.7v18.6z"/><path class="st0" d="M22.5 51.5c3.1 0 5.1-2.1 5.1-5.5v-4.5c0-.6-.5-1-1-1s-1 .5-1 1V46c0 2.3-1 3.5-3 3.5-1.6 0-2.3-1-2.5-2.1-.1-.5-.5-.9-1-.9h-.2c-.6.1-1 .6-.9 1.2.1 1.3 1.4 3.8 4.5 3.8zm24.7 0c2 0 3.6-.7 4.6-2.1.1-.2.2-.4.2-.6v-3c0-.6-.5-1-1-1h-3.3c-.6 0-1 .5-1 1s.5 1 1 1H50v1.6l-.3.2c-.6.5-1.4.7-2.4.7-1.6 0-3.5-.6-3.5-3.5s1.9-3.5 3.5-3.5H50c.6 0 1-.5 1-1s-.5-1-1-1h-2.7c-3.4 0-5.6 2.1-5.6 5.5-.1 3.6 2 5.7 5.5 5.7zm-15.5 0c.6 0 1-.5 1-1v-2.6h2.5c2.5 0 3.9-1.9 3.9-3.7 0-1.8-1.4-3.7-3.9-3.7h-3.6c-.6 0-1 .5-1 1v9c.1.6.6 1 1.1 1zm1.1-9h2.5c1.3 0 1.8.8 1.8 1.6s-.5 1.6-1.8 1.6h-2.5v-3.2z"/></svg>