<svg version="1.1" id="Layer_1" xmlns="http://www.w3.org/2000/svg" x="0" y="0" viewBox="0 0 72 72" xml:space="preserve"><style>.st0{fill:#fff}</style><path class="st0" d="M58.5 35h-2V9.6c0-.6-.5-1-1-1H32c-.1 0-.3 0-.4.1s-.2.1-.3.2L13 27.3c-.3.3-.4.7-.2 1.1s.5.6 1 .6H32c.6 0 1-.5 1-1V10.7h21.4V35H14.8v-1.7c0-.6-.5-1-1-1s-1 .5-1 1v30.3c0 .6.5 1 1 1h41.8c.6 0 1-.5 1-1v-2.1c0-.6-.5-1-1-1s-1 .5-1 1v1H14.8v-4.8h43.7c.6 0 1-.5 1-1V36c.1-.6-.4-1-1-1zm-27.6-8H16.2l14.7-14.8V27zm26.6 28.6H14.8V37.1h42.7v18.5z"/><path class="st0" d="M43.6 42.9h2.5v8c0 .6.5 1 1 1s1-.5 1-1v-8h2.5c.6 0 1-.5 1-1s-.5-1-1-1h-7.1c-.6 0-1 .5-1 1s.5 1 1.1 1zm-10.7 9c.6 0 1-.5 1-1v-2.6h2.5c2.5 0 3.9-1.9 3.9-3.7s-1.4-3.7-3.9-3.7h-3.6c-.6 0-1 .5-1 1v9c.1.5.6 1 1.1 1zm1.1-9h2.5c1.3 0 1.8.8 1.8 1.6s-.5 1.6-1.8 1.6H34v-3.2zm-12.4 9c.6 0 1-.5 1-1v-2.6h2.5c2.5 0 3.9-1.9 3.9-3.7s-1.4-3.7-3.9-3.7h-3.6c-.6 0-1 .5-1 1v9c0 .5.5 1 1.1 1zm1-9h2.5c1.3 0 1.8.8 1.8 1.6s-.5 1.6-1.8 1.6h-2.5v-3.2z"/></svg>