<svg xmlns="http://www.w3.org/2000/svg" viewBox="0 0 72 72"><path d="M38 58.3c-.2 0-.3 0-.5-.1-15.6-7.7-25.6-18-27.4-28-.8-4.6.2-8.7 2.9-11.6 2.7-3 6.2-4.5 9.9-4.5h.5c6.7.2 11.9 4.7 13.8 6.7l.6.6.6-.6c1.9-1.9 7.1-6.5 13.8-6.7h.5c3.7 0 7.1 1.6 9.9 4.5 2.7 2.9 3.9 7.1 3.2 11.6-1.4 8.9-9.6 18.3-22.6 25.6-.2.1-.3.1-.5.1-.4 0-.7-.2-.9-.5-.3-.5-.1-1.1.4-1.4 12.4-7 20.2-15.7 21.5-24 .6-3.9-.3-7.4-2.6-9.8-2.4-2.6-5.2-3.8-8.5-3.8h-.3c-4.6.1-10 3.1-13.6 7.5-.2.2-.5.3-.8.3s-.6-.1-.8-.3c-3.6-4.4-9-7.3-13.6-7.5h-.3c-3.2 0-6.1 1.3-8.5 3.8-2.3 2.4-3.1 5.9-2.4 9.8 1.6 9 11.4 19 26.2 26.3.3.1.4.3.5.6.1.3.1.5-.1.8-.1.4-.5.6-.9.6z" fill="#959595"/></svg>