<svg version="1.1" id="Layer_1" xmlns="http://www.w3.org/2000/svg" x="0" y="0" viewBox="0 0 72 72" xml:space="preserve"><style>.st0{fill:#959595}</style><path class="st0" d="M45.3 36.4h-.8c-.3 0-.6-.2-.8-.4-.2-.2-.3-.5-.3-.8.1-.6.5-1.1 1.1-1.1h.7c1.6 0 3-.6 4.1-1.7l10.8-10.8c1.1-1.1 1.7-2.6 1.7-4.1 0-1.6-.6-3-1.7-4.1l-1.6-1.6c-1.1-1.1-2.6-1.7-4.1-1.7-1.6 0-3.1.6-4.2 1.7L39.6 22.5c-1.2 1.2-1.8 2.9-1.7 4.7.1.6-.4 1.2-1 1.3h-.1c-.6 0-1.1-.4-1.2-1.1-.2-2.4.6-4.8 2.4-6.6L48.8 10c1.5-1.5 3.6-2.3 5.8-2.3 2.2 0 4.3.8 5.8 2.3l1.6 1.6c1.5 1.5 2.4 3.6 2.4 5.8s-.9 4.2-2.4 5.8L51.1 34c-1.5 1.5-3.6 2.4-5.8 2.4z"/><path class="st0" d="M25.6 47.5c-.3 0-.6-.1-.8-.3-.5-.5-.5-1.2 0-1.6l20.8-20.8c.2-.2.5-.3.8-.3.3 0 .6.1.8.3.5.5.5 1.2 0 1.6L26.4 47.2c-.2.2-.5.3-.8.3z"/><path class="st0" d="M17.4 64.3c-2.2 0-4.3-.8-5.8-2.4L10 60.3c-3.2-3.2-3.2-8.4 0-11.6l10.8-10.8c1.5-1.5 3.6-2.4 5.8-2.4h.8c.3 0 .6.2.8.4s.3.5.3.8c-.1.6-.5 1.1-1.2 1.1h-.6c-1.6 0-3.1.6-4.2 1.7L11.7 50.4c-2.3 2.3-2.3 6 0 8.3l1.6 1.6c1.1 1.1 2.6 1.7 4.2 1.7s3.1-.6 4.2-1.7l10.8-10.8c1.2-1.2 1.8-2.9 1.7-4.7 0-.3.1-.6.3-.8.2-.2.5-.4.8-.4h.1c.6 0 1.1.5 1.1 1.1.2 2.4-.6 4.8-2.4 6.5L23.2 61.9c-1.5 1.5-3.6 2.4-5.8 2.4z"/></svg>