<svg xmlns="http://www.w3.org/2000/svg" viewBox="0 0 72 72"><path d="M60.5 8.6c-.3 0-.4.1-.7.3l-6.7 6.7c-.1.3-.3.4-.3.7 0 .4.1.5.3.7.3.3.4.3.7.3.3 0 .5 0 .7-.3l5.3-5.1V61c0 .5.4.9.9.9s.9-.3.9-.9V11.8l5.3 5.3c.1.1.4.3.7.3.3 0 .4-.1.7-.3.1-.1.3-.4.3-.7 0-.3-.1-.4-.3-.7L61.4 9c-.4-.2-.7-.4-.9-.4zM4.1 58.3c-.5 0-.9.4-.9.9 0 .7.4 1.1.9 1.1h40.3c.5 0 .9-.4.9-1.1 0-.5-.4-.9-.9-.9H4.1zm8.7-11.7c-.5 0-.9.4-.9 1.1 0 .4.4.9.9.9h31.8c.4 0 .9-.4.9-.9s-.4-1.1-.9-1.1H12.8zM21.3 35c-.4 0-.9.3-.9.9 0 .4.4.9.9.9h23.1c.5 0 .9-.4.9-.9s-.3-.9-.9-.9H21.3zM30 23.2c-.5 0-.9.4-.9.9s.3.9.9.9h14.5c.5 0 .9-.4.9-.9s-.4-.9-.9-.9H30zm9.4-12.7c-.4 0-.9.3-.9.9 0 .5.4.9.9.9h5c.5 0 .9-.4.9-.9 0-.7-.4-.9-.9-.9h-5z" fill="#959595"/></svg>