<svg xmlns="http://www.w3.org/2000/svg" viewBox="0 0 20 20"><path d="M10 17.7h.2C15.6 15 19 11.5 19.7 8c.3-1.6-.1-3.1-1-4-1-1.1-2.1-1.6-3.4-1.6h-.2c-2.3.1-4.1 1.6-4.8 2.3l-.3.2-.2-.3C9.2 4 7.4 2.4 5.1 2.3h-.2c-1.3 0-2.5.6-3.4 1.6-.9 1-1.3 2.4-1.1 4 .5 3.1 3.3 6.3 7.8 8.8h.2c.1 0 .2-.1.3-.2.1-.2 0-.4-.2-.5-4.3-2.4-7-5.4-7.5-8.3-.1-1.2.1-2.4.9-3.3.9-.9 1.8-1.3 3-1.3H5c1.6 0 3.4 1.1 4.7 2.6.1.1.2.1.3.1.1 0 .2 0 .3-.1 1.2-1.6 3.1-2.5 4.7-2.6 1.1 0 2.1.4 3 1.3.8.9 1.1 2.1.8 3.4-.5 3.2-3.9 6.6-9 9.1-.1 0-.2.1-.2.2v.3c.1.2.3.3.4.3z" fill="#fff"/></svg>