<svg version="1.1" id="Layer_1" xmlns="http://www.w3.org/2000/svg" x="0" y="0" viewBox="0 0 22 24" xml:space="preserve"><style>.st0{fill:#525252}</style><path class="st0" d="M8.1 21H8c-2.2-.7-4.1-2.2-5.4-4.2s-1.7-4.4-1.3-6.7c.4-2.3 1.6-4.4 3.4-5.9 1.8-1.5 4.1-2.3 6.4-2.3 1.4 0 2.7.3 3.9.8 1.2.5 2.4 1.3 3.3 2.3.9.9 1.6 1.9 2 3.1.4 1.2.7 2.4.6 3.6-.1 2-.9 3.9-2.1 5.5-.1.1-.2.1-.3.1-.1 0-.2 0-.3-.1l-.1-.1v-.4c0-.1 0-.1.1-.1 1.1-1.5 1.8-3.2 1.9-5 0-1.1-.2-2.2-.6-3.3-.4-1-1-2-1.8-2.8-.9-.9-1.9-1.6-3-2.1s-2.4-.7-3.6-.7c-2.1 0-4.2.7-5.9 2.1-1.6 1.4-2.7 3.3-3.1 5.4-.3 2.1.1 4.3 1.2 6.1s2.8 3.2 4.9 3.9c.1 0 .2.1.3.2.1.1.1.2.1.3 0 .1-.1.2-.2.3h-.3z"/><path class="st0" d="M7.1 18.4l.4 1.9L6.4 22l4.6-1-3.9-2.6zm4.2-3.7h-.2c-.1 0-.1-.1-.1-.1l-.1-.1V6.7c0-.1 0-.1.1-.2l.1-.1h.4c.1 0 .1.1.1.1s.1.1.1.2v7.8c0 .1-.1.1-.1.1l-.1.1h-.2z"/><path class="st0" d="M11.3 14.7c-.1 0-.2 0-.3-.1l-2.7-2.7-.1-.1v-.4c0-.1.1-.1.1-.1l.1-.1h.4c.1 0 .1.1.1.1l2.7 2.7.1.1v.4c0 .1-.1.1-.1.1-.1.1-.2.1-.3.1z"/></svg>