<svg xmlns="http://www.w3.org/2000/svg" viewBox="0 0 512 512"><path d="M256 32C114.8 32 0 113.3 0 213.3c0 51.4 30.6 100.1 84.2 134.5-6 22.9-37.5 70.3-57.9 97.2-.1.1-.1.2-.2.3-3.1 3.8-4.8 8.5-4.8 13.4 0 11.8 9.6 21.3 21.3 21.3 2.9 0 5.8-.7 8.7-2 27.8-7.9 115.7-35.8 166.3-85.5 13.4 1.5 25.9 2.2 38.3 2.2 141.2 0 256-81.3 256-181.3S397.2 32 256 32zm0 341.3c-13.3 0-27-.9-41.8-2.7-4.4-.5-8.3 1.8-10.3 5.5-48.6 48.6-141 76.4-159.2 81.6-.7.2-1.3.6-1.9 1 .5-.5.9-1 1.2-1.6 8.5-11.3 61.1-82.4 62.5-114.1.2-3.9-1.8-7.6-5.2-9.6-50.9-30.5-80-74.3-80-120 0-88.2 105.3-160 234.7-160s234.7 71.8 234.7 160S385.4 373.3 256 373.3z"/></svg>