<svg xmlns="http://www.w3.org/2000/svg" viewBox="0 0 72 72"><path d="M61.4 10.7c5 4.8 7.6 11.3 7.6 18.1 0 6.9-2.6 13.4-7.6 18.2-4.8 4.8-11.3 7.6-18.2 7.6S29.9 51.8 25 47c-4.8-4.8-7.6-11.3-7.6-18.2s2.8-13.3 7.6-18.2C29.8 5.8 36.3 3 43.2 3c6.9.1 13.4 2.7 18.2 7.7zm-34.6 1.6C22.5 16.6 20 22.5 20 28.8s2.5 12 6.8 16.6c4.4 4.3 10.4 6.8 16.6 6.8s12-2.5 16.4-6.8c4.4-4.4 6.9-10.4 6.9-16.6s-2.5-12-6.9-16.4C55.5 8 49.6 5.5 43.4 5.5s-12.2 2.4-16.6 6.8zm32.7 16.5c0 9-7.3 16.2-16.2 16.2-.7 0-1.2-.6-1.2-1.2s.7-1.1 1.2-1.1C50.9 42.7 57 36.6 57 29s-6.1-13.7-13.7-13.7c-.7 0-1.2-.6-1.2-1.2s.7-1.1 1.2-1.1c9-.4 16.2 6.9 16.2 15.8zm-41 17.3c0 .4-.1.7-.4.8L6.9 58.2c-1 1-1.5 2.2-1.5 3.5 0 1.4.6 2.5 1.4 3.5l.2.1c1 .8 2.1 1.4 3.5 1.4 1.2 0 2.5-.6 3.5-1.4l11.2-11.2c.4-.6 1.2-.6 1.7 0 .3.1.4.6.4.8 0 .3-.1.6-.4.8L15.6 67c-1.4 1.4-3.3 2.1-5.1 2.1-1.9 0-3.7-.7-5.2-2.1l-.1-.3c-1.4-1.4-2.1-3-2.1-5.1 0-1.9.7-3.7 2.1-5.1l11.2-11.2c.6-.6 1.4-.6 1.8 0 .1.2.3.6.3.8z" fill="#959595"/></svg>