<svg xmlns="http://www.w3.org/2000/svg" viewBox="0 0 272.5 68.5"><path d="M245.7 22.1c-6.7 0-12.2 2.1-16.4 6.2a21.3 21.3 0 0 0-3.4 4.5l-.7 1.3-.6-1.3c-.9-1.9-2.1-3.5-3.6-4.9-3.8-3.8-9-5.7-15.4-5.7-6.7 0-12.2 2.1-16.4 6.2-.3.3-.5.5-.7.8l-1.3 1.4v-7.5h-30.6V1h-14.2v25l-1.2-.9c-2.5-2-6.1-2.9-10.5-2.9-6.3 0-11.2 2.1-15.1 6.3-1.3 1.4-2.4 3-3.2 4.7l-.6 1.2-.7-1.2c-1-1.7-2.2-3.3-3.7-4.7-4.4-4.2-10.1-6.3-17.1-6.3s-12.5 2.1-17 6.3c-1.5 1.4-2.8 3-3.8 4.8l-.9 1.6-.5-1.7c-2-7.1-7.5-11-15.7-11-5.4 0-9.5 1.9-12.4 5.8l-.6.8-.6-.8c-2.9-3.9-7.3-5.8-13.3-5.8-4.6 0-7.9 1.3-9.9 3.8l-1.3 1.6v-4.5H1.1v43.4h14.2V43.1c0-6.5 3.5-7.8 6.4-7.8S28 36.6 28 43v23.5h14.2V43.1c0-5.2 2.2-7.8 6.5-7.8 2.8 0 6.2 1.3 6.2 7.7v23.5h14.2V55.7l1.4 2c.8 1.3 1.8 2.4 3 3.5 4.5 4.2 10 6.3 17 6.3 6.9 0 12.7-2.1 17.1-6.3 1.5-1.4 2.7-3 3.7-4.7l.7-1.2.6 1.2c.9 1.7 1.9 3.3 3.2 4.7 3.9 4.2 8.9 6.2 15.1 6.2 4.7 0 8.5-1.2 11.3-3.7l1.2-1.1v3.8h44.3v-6.9l1.4 1.5.3.3c4.1 4 9.7 6.1 16.7 6.1 5.3 0 9.8-1.3 13.6-3.8 2.4-1.6 4.3-3.6 5.4-6l.6-1.2.7 1.2c.8 1.4 1.9 2.7 3 3.8 4.1 4 9.7 6.1 16.7 6.1 5.3 0 9.8-1.3 13.6-3.8 3.6-2.4 5.8-5.5 6.6-9.4l-14.4-.7c-.7 1.7-2.4 3.4-6.3 3.4-4.8 0-7.3-2.6-7.3-7.8v-.7h28.5v-4.3c0-7-1.9-12.3-5.8-16.1-3.7-4-8.8-6-15.3-6zM90.4 55.5c-5.7 0-9.2-4.1-9.2-10.7 0-6.5 3.6-10.7 9.2-10.7 5.7 0 9.3 4.1 9.3 10.7s-3.6 10.7-9.3 10.7zm52.1-9.9c0 5.8-3.7 9.9-9 9.9-5.7 0-9.2-4.1-9.2-10.7s3.5-10.7 9.2-10.7c5.3 0 9 4.1 9 9.9v1.6zm14.2 9.8V34.2h14.7l-14.7 21.2zm14.9-.1l12.3-17.9-.4 3.2c-.2 1.4-.3 2.8-.3 4.3 0 3.5.5 6.7 1.6 9.5l.4 1h-13.6v-.1zm26.8-15.5c.3-4.7 3-7.6 7.1-7.6 3.1 0 6.8 1.3 7 7.6v.8h-14.2l.1-.8zm13.5 13.6c-.7 1.7-2.4 3.4-6.3 3.4-4.8 0-7.3-2.6-7.3-7.8v-.7h25l.1.6c.2 1.4.5 2.8.9 4.1l.3 1-12.7-.6zm26.5-12.8v-.8c.3-4.7 3-7.6 7.1-7.6 3.1 0 6.8 1.3 7 7.6v.8h-14.1zm27.7 23.1v3h-.4v-3h-1.2v-.4h2.9v.4h-1.3zm4.9 3v-2.4l-1.2 2.4h-.3l-1.2-2.4v2.4h-.5v-3.3h.4l1.4 2.7 1.4-2.7h.4v3.3h-.4z" fill="#3fba89"/></svg>