<svg version="1.1" id="Layer_1" xmlns="http://www.w3.org/2000/svg" x="0" y="0" viewBox="0 0 25 25" xml:space="preserve"><style>.st0{fill:#525252}</style><path class="st0" d="M22.1 9.3H21c-.6 0-1.1-.4-1.4-1-.2-.7-.2-1.3.2-1.8l.7-.5c.3-.3.4-.7.3-1.2-.1-.4-.3-.8-.6-1.1l-.7-.7c-.4-.4-1-.7-1.5-.7-.3 0-.5.1-.8.3l-.7.8c-.2.3-.6.4-1 .4-.9 0-1.8-.8-1.8-1.5v-.9c0-.8-.8-1.4-1.8-1.4H11c-1 0-1.8.5-1.8 1.2v1.1c0 .4-.1.7-.4 1-.2.4-.7.6-1.2.6-.4 0-.8-.1-1-.4L6 2.9c-.2-.2-.6-.4-.9-.4-.5 0-1 .2-1.4.6l-.7.7c-.7.7-.9 1.7-.4 2.2l.8.8c.4.4.5 1 .3 1.7s-.9 1-1.4 1h-.9c-.8 0-1.4.7-1.4 1.8v.9c0 1 .5 1.8 1.2 1.8h1.1c.6 0 1.1.4 1.4 1 .2.7.2 1.3-.2 1.8l-.6.6c-.2.2-.3.5-.3.9 0 .5.2 1 .6 1.4l.6.6c.4.4 1 .7 1.5.7.2 0 .5 0 .7-.2l.8-.8c.2-.3.6-.4 1-.4.9 0 1.8.8 1.8 1.5v.9c0 .8.8 1.4 1.8 1.4h.9c1 0 1.8-.5 1.8-1.2v-1.1c0-.4.1-.7.4-1 .3-.3.8-.5 1.3-.5.4 0 .8.1 1 .4l.6.6c.2.2.5.3.9.3.5 0 1-.2 1.4-.6l.6-.6c.8-.8.9-1.7.4-2.2l-.7-.8c-.4-.4-.5-1-.3-1.7s.8-1.1 1.4-1.1h.9c.8 0 1.4-.8 1.4-1.8v-.9c0-1.1-.6-1.9-1.3-1.9zm.4 2.8c0 .5-.2.8-.3.9h-1.1c-.9 0-1.8.7-2.2 1.6-.4 1-.2 2 .5 2.6l.8.8v.2c0 .1-.1.4-.4.7l-.8.6c-.2.2-.5.4-.8.4H18l-.8-.7c-.4-.4-1-.6-1.6-.6-.8 0-1.5.3-2 .8s-.7 1-.7 1.6v1.1l.1.2c-.1 0-.3.2-.8.2h-.9c-.5 0-.8-.2-.9-.3l-.1-.1v-1c0-1.3-1.2-2.4-2.6-2.4-.6 0-1.2.2-1.6.7l-.8.8h-.2c-.2 0-.5-.2-.7-.4l-.6-.6c-.3-.3-.4-.7-.4-.8v-.1l.7-.7c.6-.6.8-1.7.4-2.7-.4-1-1.2-1.5-2.2-1.5H1.2l-.1-.4c0-.1-.2-.3-.2-.8v-.9c0-.5.2-.8.3-.9l.1-.1h1c.9 0 1.8-.7 2.2-1.6.4-1 .2-2-.5-2.6l-.8-.8v-.2c0-.1.1-.4.4-.7l.6-.6c.2-.2.5-.4.8-.4h.2l.8.7c.4.4 1 .6 1.6.6.8 0 1.5-.3 2-.8s.7-1 .7-1.6V1.2l.2-.1c.1 0 .3-.2.8-.2h.9c.5 0 .8.2.9.3l-.1.1v1c0 1.3 1.2 2.4 2.6 2.4.6 0 1.2-.2 1.6-.7l.8-.8h.2c.2 0 .5.2.7.4l.6.6c.4.5.5.8.5 1v.1l-.7.7c-.6.6-.8 1.7-.4 2.7.4 1 1.2 1.5 2.2 1.5h1.1l.1.2c0 .1.2.3.2.8v.9z"/><path class="st0" d="M11.7 6.6c-2.8 0-5.1 2.3-5.1 5.1s2.3 5.1 5.1 5.1c.9 0 1.8-.2 2.6-.7.2-.1.3-.4.2-.6-.1-.1-.2-.2-.4-.2h-.2c-.7.4-1.4.6-2.2.6-2.3 0-4.2-1.9-4.2-4.2 0-2.3 1.9-4.2 4.2-4.2 2.3 0 4.2 1.9 4.2 4.2 0 .7-.2 1.3-.4 1.9v.3c0 .1.1.2.2.2h.2c.2 0 .3-.1.4-.2.3-.7.5-1.5.5-2.2 0-2.8-2.3-5.1-5.1-5.1z"/></svg>