<svg xmlns="http://www.w3.org/2000/svg" viewBox="0 0 512 512"><path d="M44 495c-6 0-9-4-9-9V26c0-6 4-9 9-9h425c5 0 9 4 9 9 0 4-4 8-9 8H52v444h408V69c0-5 4-8 8-8 5 0 9 4 9 8v417c0 6-4 9-9 9H44zm154-43c-5 0-9-4-9-8V338H90c-6 0-9-4-9-9 0-4 4-8 9-8h99V192H90c-6 0-9-4-9-9 0-4 4-8 9-8h99V73c0-5 4-8 8-8s9 4 9 8v101h216c6 0 9 4 9 9 0 4-4 8-9 8H207v129h216c5 0 9 4 9 9 0 4-4 8-9 8H207v107c0 5-4 8-9 8zm-76-3c-14 0-22-8-25-12-2-4-1-9 4-12 1-1 2-1 4-1 3 0 6 2 7 4l1 1c2 1 5 3 9 3 2 0 3 0 4-1l3-1 1-2c1-3 1-6-1-10-2-2-4-4-7-4s-6-2-8-4c-1-3-1-6 0-9l5-9h-12c-5 0-9-5-9-9s4-8 9-8h29c3 0 6 1 7 4 2 2 2 6 0 9l-7 12 4 4c5 5 8 12 8 20 0 7-2 13-6 18-5 4-12 7-20 7zm-17-155c-5 0-9-4-9-8 0-15 11-21 22-28 7-5 13-8 13-14 0-3-3-8-9-8-3 0-6 2-8 5-1 2-4 5-7 5-2 0-3 0-5-1-4-3-6-8-4-12 4-9 14-15 23-15 15 0 27 12 27 26 0 9-4 15-11 21l-10 9 14 2c4 1 7 5 7 9 0 5-5 9-9 9h-34zm21-149c-5 0-8-4-8-8v-35l-10 6c-2 1-4 2-6 2s-5-1-6-2c-2-2-3-5-3-6 0-3 1-5 3-6l23-24c2-2 5-3 6-3s3 0 4 1c3 2 5 4 5 9v58c1 5-3 8-8 8z"/></svg>