<svg version="1.1" id="Layer_1" xmlns="http://www.w3.org/2000/svg" xmlns:xlink="http://www.w3.org/1999/xlink" x="0" y="0" viewBox="0 0 15 15" xml:space="preserve"><style>.st1{fill:#fff}</style><defs><path id="SVGID_1_" d="M0 0h15v15H0z"/></defs><clipPath id="SVGID_2_"><use xlink:href="#SVGID_1_" overflow="visible"/></clipPath><g clip-path="url(#SVGID_2_)"><path class="st1" d="M11.4 1.1c-.1-.1-.2-.2-.3-.1-.1.1-.2.2-.2.3v1.8c-1.8 0-2.7.8-2.9.9-.9.7-1.5 1.8-1.7 2.9-.1.5-.1 1.1-.1 1.7l.1.4c0 .1.1.2.3.3.1 0 .3 0 .3-.2l.2-.4c.7-1 1.5-1.7 2.4-2.1.4-.2.9-.2 1.3-.2v1.8c0 .1.1.3.2.3.1.1.3 0 .4-.1L14.9 5c.1-.1.1-.3 0-.5l-3.5-3.4zm.1 6.4V6.1c0-.2-.1-.3-.3-.3-.3 0-1-.1-1.9.2-1 .3-1.8 1-2.4 2 0-.3 0-.6.1-.9.2-1 .7-1.9 1.5-2.5 0 0 .9-.8 2.7-.8.2 0 .3-.1.3-.3V2.1l2.7 2.7-2.7 2.7z"/><path class="st1" d="M13.8 10.7c-.2 0-.3.1-.3.3v1.4c0 .5-.4 1-1 1H1.7c-.5 0-1-.4-1-1V4.5c0-.5.4-1 1-1H4c.2 0 .3-.1.3-.3 0-.2-.1-.3-.3-.3H1.7c-1 0-1.7.7-1.7 1.6v7.9c0 .9.7 1.7 1.7 1.7h10.8c.9 0 1.7-.7 1.7-1.7V11c-.1-.2-.2-.3-.4-.3z"/></g></svg>