<svg xmlns="http://www.w3.org/2000/svg" viewBox="0 0 512 512"><path d="M56 373.8c-2.2 0-4.4-1.1-6.7-3.3-2.2-1.1-3.3-3.3-3.3-6.7 0-2.2 0-5.6 3.3-7.8 1.1-1.1 3.3-3.3 6.7-3.3 14.4 0 31.1-5.6 46.7-70C113.8 236 139.3 126 256 126c115.5 0 142.2 108.9 153.3 156.6 14.4 62.2 31.1 70 46.7 70 2.2 0 4.4 1.1 6.7 3.3 2.2 2.2 3.3 4.4 3.3 7.8 0 2.2-1.1 4.4-3.3 6.7-1.1 2.2-3.3 3.3-6.7 3.3-32.2 0-51.1-25.6-65.5-85.5C360.4 163.8 306 146 254.9 146 166 146 136 218.2 120.5 288.2c-14.5 60-33.4 85.6-64.5 85.6zm0 44.4c-2.2 0-4.4-1.1-6.7-3.3-3.3-2.2-3.3-4.4-3.3-6.7 0-5.6 3.3-8.9 8.9-8.9H456c2.2 0 4.4 0 6.7 3.3 2.2 1.1 3.3 3.3 3.3 6.7 0 2.2-1.1 4.4-3.3 6.7-1.1 2.2-3.3 3.3-6.7 3.3l-400-1.1zm204.4 85.5c-13.3 0-25.6-5.6-34.4-14.4-10-10-14.4-21.1-14.4-35.6 0-2.2 1.1-4.4 3.3-6.7 1.1-1.1 3.3-3.3 6.7-3.3 2.2 0 5.6 1.1 7.8 3.3 1.1 1.1 3.3 4.4 3.3 6.7 0 16.7 13.3 30 30 30 7.8 0 15.6-2.2 21.1-7.8s8.9-13.3 8.9-22.2c0-2.2 0-4.4 2.2-6.7 2.2-1.1 4.4-3.3 7.8-3.3 5.6 0 8.9 4.4 8.9 10 0 13.3-4.4 25.6-13.3 34.4-11.2 10.1-24.5 15.6-37.9 15.6zm30-363.2c-5.6 0-8.9-3.3-8.9-8.9V49.4c0-5.6-3.3-11.1-7.8-14.4-4.4-4.4-10-6.7-16.7-6.7h-3.3c-12.2 0-23.3 10-23.3 22.2v81.1c0 2.2-1.1 5.6-3.3 7.8-1.1 1.1-3.3 3.3-6.7 3.3-2.2 0-4.4-1.1-7.8-3.3-1.1-2.2-2.2-4.4-2.2-7.8V49.4c0-23.3 18.9-41.1 42.2-41.1h3.3c11.1 0 22.2 3.3 30 11.1s12.2 18.9 12.2 30v82.2c2.3 5.5-2.1 8.9-7.7 8.9z"/></svg>