<svg version="1.1" id="Layer_1" xmlns="http://www.w3.org/2000/svg" x="0" y="0" viewBox="0 0 20 20" xml:space="preserve"><style>.st0{fill:#fff}</style><path class="st0" d="M10.1 11.1h.1c.1 0 .2-.1.2-.1 0-.1.1-.1 0-.2 0-.1-.1-.1-.1-.2-1.9-1.1-3-2.4-3.3-4-.1-.8 0-1.8.7-2.7.6-.7 1.3-1 2.3-1 1.6 0 2.7.9 3 2.3.3 1.4-.3 3.3-2.1 4.1-.1.1-.2.2-.1.4.1.1.1.2.3.2h.1c2.1-.9 2.8-3.1 2.4-4.7-.3-1.4-1.4-2.8-3.6-2.8-1.5 0-2.3.6-2.8 1.2-.8 1-.9 2.3-.8 3.1.5 2.4 2.3 3.7 3.7 4.4z"/><path class="st0" d="M16.8 17.4H3.5v-.2c0-2.2.2-3.6.4-4.3.4-1 2-1.8 2.7-2.1l.2-.1.2.1c.7 1.2 1.8 2 3.1 2 1.2 0 2.3-.7 3-2l.1-.2.2.1c.7.3 2.3 1.1 2.7 2.1.3.9.3 1.9.3 2.8v.5c0 .2.1.3.3.3.1 0 .3-.1.3-.3v-.6c0-.9 0-2-.4-3-.6-1.5-3.2-2.5-3.5-2.6H13c-.1 0-.2.1-.3.2-.6 1.3-1.6 2.1-2.7 2.1s-2.2-.8-2.8-2.1c0-.1-.1-.1-.3-.1h-.1c-.3.1-2.9 1.1-3.5 2.6-.4 1.1-.4 3.4-.4 5 0 .2.1.3.3.3h13.5c.2 0 .3-.1.3-.3 0-.1-.1-.2-.2-.2z"/></svg>