<svg version="1.1" id="Layer_1" xmlns="http://www.w3.org/2000/svg" x="0" y="0" viewBox="0 0 72 72" xml:space="preserve"><style>.st0{fill:#37ba8a}</style><path class="st0" d="M59.5 14.3c-.6 0-1 .5-1 1v46.8H13.6V10.3h45.9c.6 0 1-.5 1-1s-.5-1-1-1H12.6c-.6 0-1 .5-1 1v54c0 .6.5 1 1 1h46.9c.6 0 1-.5 1-1v-48c0-.5-.5-1-1-1z"/><path class="st0" d="M39.6 21.7H18.4c-.6 0-1 .5-1 1s.5 1 1 1h21.2c.6 0 1-.5 1-1s-.4-1-1-1zm0 13.7H18.4c-.6 0-1 .5-1 1s.5 1 1 1h21.2c.6 0 1-.5 1-1s-.4-1-1-1zm0 13.6H18.4c-.6 0-1 .5-1 1s.5 1 1 1h21.2c.6 0 1-.5 1-1s-.4-1-1-1zm14.8-30.5c-.2-.2-.5-.3-.7-.3-.3 0-.5.1-.7.3L47.4 24l-2.1-2.1c-.2-.2-.5-.3-.7-.3s-.5.1-.7.3c-.4.4-.4 1.1 0 1.5l2.8 2.8c.2.2.5.3.7.3s.5-.1.7-.3l6.2-6.2c.5-.4.5-1.1.1-1.5zm0 13.9c-.2-.2-.5-.3-.7-.3s-.5.1-.7.3l-5.5 5.5-2.1-2.1c-.2-.2-.5-.3-.7-.3s-.5.1-.7.3c-.4.4-.4 1.1 0 1.5l2.8 2.8c.2.2.5.3.7.3s.5-.1.7-.3l6.2-6.2c.4-.4.4-1.1 0-1.5zm-.8 13.5c-.3 0-.5.1-.7.3l-5.5 5.5-2.1-2.1c-.2-.2-.5-.3-.7-.3-.3 0-.5.1-.7.3-.2.2-.3.5-.3.7 0 .3.1.5.3.7l2.8 2.8c.2.2.5.3.7.3.3 0 .5-.1.7-.3l6.2-6.2c.4-.4.4-1.1 0-1.5-.1-.1-.4-.2-.7-.2z"/></svg>