<svg version="1.1" id="Layer_1" xmlns="http://www.w3.org/2000/svg" x="0" y="0" viewBox="0 0 72 72" xml:space="preserve"><style>.st0{fill:#37ba8a}</style><path class="st0" d="M54.6 8.1H15.9c-4.1 0-7.5 3.3-7.5 7.5V44c0 4.1 3.3 7.5 7.5 7.5h4.2l-.2 11.7c0 .4.3.8.7 1 .1.1.3.1.4.1.3 0 .6-.1.8-.3l12-12.7c.4-.4.4-1.1 0-1.5-.2-.2-.5-.3-.7-.3-.3 0-.6.1-.8.3L22.1 60.5l.1-10.1c0-.3-.1-.6-.3-.8-.2-.2-.5-.3-.7-.3h-5.3c-3 0-5.4-2.4-5.4-5.4V15.5c0-3 2.4-5.4 5.4-5.4h38.7c3 0 5.4 2.4 5.4 5.4V44c0 3-2.4 5.4-5.4 5.4H37.8c-.6 0-1 .5-1 1s.5 1 1 1h16.8c4.1 0 7.5-3.3 7.5-7.5V15.5c-.1-4.1-3.4-7.4-7.5-7.4z"/><path class="st0" d="M23.7 22.4h23.1c.6 0 1-.5 1-1s-.5-1-1-1H23.7c-.6 0-1 .5-1 1s.4 1 1 1zm0 6h23.1c.6 0 1-.5 1-1s-.5-1-1-1H23.7c-.6 0-1 .5-1 1s.4 1 1 1zm0 5.9h23.1c.6 0 1-.5 1-1s-.5-1-1-1H23.7c-.6 0-1 .5-1 1s.4 1 1 1zM36 38.2H23.7c-.6 0-1 .5-1 1s.5 1 1 1H36c.6 0 1-.5 1-1s-.4-1-1-1z"/></svg>