<svg version="1.1" id="Layer_1" xmlns="http://www.w3.org/2000/svg" x="0" y="0" viewBox="0 0 72 72" xml:space="preserve"><style>.st0{fill:#37ba8a}</style><path class="st0" d="M62.6 19.8c-.6 0-1 .5-1 1v40h-52V16h7.1c.6 0 1-.5 1-1s-.5-1-1-1H8.6c-.6 0-1 .5-1 1v46.9c0 .6.5 1 1 1h54c.6 0 1-.5 1-1v-41c0-.7-.5-1.1-1-1.1zM55.1 16h7.5c.6 0 1-.5 1-1s-.5-1-1-1h-7.5c-.6 0-1 .5-1 1s.4 1 1 1z"/><path class="st0" d="M27.5 16h16.1c.6 0 1-.5 1-1s-.5-1-1-1H27.5c-.6 0-1 .5-1 1s.5 1 1 1zm30.1 11.3c.6 0 1-.5 1-1s-.5-1-1-1H14.1c-.6 0-1 .5-1 1s.5 1 1 1h7V37h-7c-.6 0-1 .5-1 1s.5 1 1 1h7v9.4h-7c-.6 0-1 .5-1 1s.5 1 1 1h7V56c0 .6.5 1 1 1s1-.5 1-1v-5.5h11.5V56c0 .6.5 1 1 1s1-.5 1-1v-5.5h11.5V56c0 .6.5 1 1 1s1-.5 1-1v-5.5h7.2c.6 0 1-.5 1-1s-.5-1-1-1h-7.2v-9.4h7.2c.6 0 1-.5 1-1s-.5-1-1-1h-7.2v-9.7h7.5zM34.7 48.5H23.2v-9.4h11.5v9.4zm0-11.5H23.2v-9.7h11.5V37zm13.6 11.5H36.8v-9.4h11.5v9.4zm0-11.5H36.8v-9.7h11.5V37zM22.1 20.2c.6 0 1-.5 1-1v-8.9c0-.6-.5-1-1-1s-1 .5-1 1v8.9c0 .5.4 1 1 1zm27.3 0c.6 0 1-.5 1-1v-8.9c0-.6-.5-1-1-1s-1 .5-1 1v8.9c-.1.5.4 1 1 1z"/></svg>