<svg version="1.1" id="Layer_1" xmlns="http://www.w3.org/2000/svg" x="0" y="0" viewBox="0 0 72 72" xml:space="preserve"><style>.st0{fill:#37ba8a}</style><path class="st0" d="M62.6 24.2c-.6 0-1 .5-1 1v31c0 1.6-1.3 3-3 3h-46c-1.6 0-3-1.3-3-3V15.9c0-1.6 1.3-3 3-3h21.1c1.8 0 4.3 1.4 5.3 2.9l.5.8c1.4 2.1 4.5 3.9 7 3.9h16.1c.6 0 1-.5 1-1s-.5-1-1-1H46.5c-1.8 0-4.3-1.4-5.3-2.9l-.5-.8c-1.4-2.1-4.5-3.9-7-3.9H12.6c-2.8 0-5 2.3-5 5v40.3c0 2.8 2.3 5 5 5h46c2.8 0 5-2.3 5-5v-31c0-.6-.5-1-1-1z"/><path class="st0" d="M35.6 48.2c.6 0 1-.5 1-1V30.5l9 9c.2.2.5.3.7.3s.5-.1.7-.3c.4-.4.4-1.1 0-1.5L36.3 27.2l-.1-.1c-.2-.2-.5-.3-.7-.3-.3 0-.5.1-.7.3L24 38c-.4.4-.4 1.1 0 1.5.2.2.5.3.7.3s.5-.1.7-.3l9-9v16.7c.1.6.6 1 1.2 1z"/></svg>