<svg version="1.1" id="Layer_1" xmlns="http://www.w3.org/2000/svg" x="0" y="0" viewBox="0 0 72 72" xml:space="preserve"><style>.st0{fill:#37ba8a}</style><path class="st0" d="M63.3 37c.2-.2.3-.5.3-.7 0-13.3-9.4-24.8-22.4-27.5H41c-.5 0-.9.4-1 .8-.1.3 0 .6.2.8.2.2.4.4.7.4 11.3 2.3 19.8 12 20.7 23.5l.1.9H36.8v-26c0-.2 0-.3-.1-.5-.2-.4-.5-.6-.9-.6h-.1c-15.4 0-28 12.6-28 28 0 15.5 12.6 28 28 28 6.3 0 12.3-2 17.2-5.9.5-.4.5-1 .2-1.5-.2-.3-.5-.4-.8-.4-.2 0-.5.1-.6.2-4.6 3.6-10.1 5.5-15.9 5.5-14.3 0-26-11.6-26-26 0-13.5 10.6-24.9 24-25.9l.9-.1v26.4l.1.1.1.2.1.1 20.4 17.7c.2.2.4.3.7.3.3 0 .6-.1.8-.4 3.2-3.7 5.4-8.3 6.4-13.1.1-.6-.3-1.1-.8-1.2h-.2c-.5 0-.9.4-1 .9-.7 3.8-2.3 7.5-4.7 10.6l-.5.7-17.7-15h24.2c.2 0 .5-.1.7-.3z"/><path class="st0" d="M42.1 24.8h9.7c.6 0 1-.5 1-1s-.5-1-1-1h-9.7c-.6 0-1 .5-1 1s.4 1 1 1zm0 5.3h4.8c.6 0 1-.5 1-1s-.5-1-1-1h-4.8c-.6 0-1 .5-1 1s.4 1 1 1z"/></svg>