<svg version="1.1" id="Layer_1" xmlns="http://www.w3.org/2000/svg" x="0" y="0" viewBox="0 0 72 72" xml:space="preserve"><style>.st0{fill:#ccc}</style><path class="st0" d="M60.9 31.2h-2.6c-1.5 0-2.7-.9-3.3-2.4-.6-1.6-.4-3.2.5-4.2l1.5-1.5c.7-.7.9-1.7.7-2.8-.2-1-.7-1.9-1.5-2.7l-1.5-1.5c-1-1-2.3-1.7-3.5-1.7-.7 0-1.3.2-1.8.7L47.8 17c-.6.7-1.5 1-2.4 1-2.1 0-4.2-1.8-4.2-3.7v-2.2c0-1.9-1.9-3.3-4.4-3.3h-2.2c-2.5 0-4.4 1.3-4.4 3v2.6c0 .9-.3 1.7-1 2.4-.8.8-2 1.3-3.2 1.3-1 0-1.8-.3-2.4-.9l-1.5-1.5c-.5-.5-1.3-.8-2.1-.8-1.2 0-2.4.6-3.4 1.5l-1.5 1.5c-1.8 1.8-2.2 4-1 5.2l1.8 1.8c1 1 1.3 2.5.7 4-.6 1.5-2 2.6-3.3 2.6h-2.2c-1.9 0-3.3 1.9-3.3 4.4v2.2c0 2.5 1.3 4.4 3 4.4h2.6c1.5 0 2.7.9 3.3 2.4.6 1.6.4 3.2-.5 4.2l-1.5 1.5c-.5.5-.8 1.3-.8 2.1 0 1.2.6 2.4 1.5 3.4l1.5 1.5c1 1 2.3 1.7 3.5 1.7.7 0 1.3-.2 1.8-.7l1.8-1.8c.6-.7 1.5-1 2.4-1 2.1 0 4.2 1.8 4.2 3.7v2.2c0 1.9 1.9 3.3 4.4 3.3h2.2c2.5 0 4.4-1.3 4.4-3v-2.6c0-.9.3-1.7 1-2.4.8-.8 2-1.3 3.2-1.3 1 0 1.8.3 2.4.9l1.5 1.5c.5.5 1.3.8 2.1.8 1.2 0 2.4-.6 3.4-1.5l1.5-1.5c1.8-1.8 2.2-4 1-5.2l-1.8-1.8c-1-1-1.3-2.5-.7-4 .6-1.6 2-2.6 3.3-2.6h2.2c1.9 0 3.3-1.9 3.3-4.4v-2.2c-.1-2.6-1.4-4.5-3.1-4.5zm.9 6.6c0 1.1-.5 1.9-.7 2.1l-.2.1h-2.5c-2.2 0-4.3 1.6-5.3 3.9-.9 2.3-.5 4.7 1.1 6.3l1.9 1.9-.1.4c0 .2-.2.9-1 1.7l-1.5 1.5c-.5.5-1.2.9-1.8 1h-.4L49.5 55c-1-1-2.3-1.5-3.8-1.5-1.8 0-3.5.7-4.7 1.9-1.1 1.1-1.6 2.4-1.6 3.9V62l-.4.3c-.2.1-.8.5-1.9.5H35c-1.1 0-1.8-.4-2.1-.7l-.2-.2v-2.5c0-3.1-3-5.7-6.3-5.7-1.5 0-2.8.6-3.9 1.6l-1.9 1.9-.4-.1c-.5-.1-1.2-.5-1.7-1L17 54.6c-.8-.8-1-1.6-1-2v-.3l1.7-1.7c1.5-1.5 1.9-4.1 1-6.5-.9-2.3-3-3.7-5.3-3.7h-2.7l-.3-.4c-.1-.2-.5-.8-.5-1.9v-2.2c0-1.1.5-1.9.7-2.1l.2-.2h2.5c2.2 0 4.3-1.6 5.3-3.9.9-2.3.5-4.7-1.1-6.3l-1.9-1.9.1-.4c0-.2.2-.9 1-1.7l1.5-1.5c.5-.5 1.2-.9 1.8-1h.4l1.8 1.8c1 1 2.3 1.5 3.8 1.5 1.8 0 3.5-.7 4.7-1.9 1.1-1.1 1.6-2.4 1.6-3.9v-2.7l.4-.2c.2-.1.8-.5 1.9-.5h2.2c1.1 0 1.8.4 2.1.7l.2.2v2.5c0 3.1 3 5.8 6.3 5.8 1.5 0 2.8-.6 3.9-1.6l1.9-1.9.4.1c.5.1 1.2.5 1.7 1l1.5 1.5c.8.8 1 1.6 1 2v.3l-1.7 1.7c-1.5 1.5-1.9 4.1-1 6.5.9 2.3 3 3.7 5.3 3.7h2.7l.2.4c.1.2.5.8.5 1.9v2z"/><path class="st0" d="M35.9 24.6c-6.7 0-12.2 5.5-12.2 12.2 0 6.7 5.5 12.2 12.2 12.2 2.2 0 4.4-.6 6.3-1.7.5-.3.7-.9.4-1.4-.2-.3-.5-.5-.9-.5-.2 0-.4.1-.5.1-1.6.9-3.4 1.4-5.2 1.4-5.6 0-10.1-4.5-10.1-10.1S30.4 26.7 36 26.7s10.1 4.5 10.1 10.1c0 1.6-.4 3.1-1 4.5-.1.3-.1.5-.1.8.1.3.3.5.5.6.1.1.3.1.5.1.4 0 .8-.2.9-.6.8-1.7 1.3-3.5 1.3-5.4-.1-6.7-5.6-12.2-12.3-12.2z"/></svg>