<svg version="1.1" id="Layer_1" xmlns="http://www.w3.org/2000/svg" x="0" y="0" viewBox="0 0 72 72" xml:space="preserve"><style>.st0{fill:#37ba8a}</style><path class="st0" d="M56.2 17.1l-.2-.2-.1-.1C50.6 11.5 43.5 8.5 36 8.5c-15.5 0-28 12.6-28 28 0 6.7 2.4 13.2 6.8 18.3 0 .1.1.1.2.2 5.3 6 13 9.5 21 9.5S51.7 61 57.1 55c.1 0 .1-.1.2-.3 4.4-5.1 6.8-11.6 6.8-18.2-.1-7.2-2.9-14.1-7.9-19.4zm-1.8 37.7C49.5 59.7 43 62.5 36 62.5s-13.5-2.7-18.4-7.7l-.6-.5.6-.6C22.5 48.8 29 46 36 46s13.5 2.7 18.4 7.7l.6.6-.6.5zm2.5-2.9l-.5.7-.7-.6c-3.5-3.5-8-6-12.8-7.2l-1-.3 7.3-13.8c.1-.2.2-.5.1-.8-.1-.3-.3-.5-.5-.6-.2-.1-.3-.1-.5-.1-.4 0-.7.2-.9.6l-7.7 14.4-.5-.1C38.1 44 37 44 36 44c-7.4 0-14.4 2.9-19.7 8.1l-.7.6-.5-.7c-3.3-4.5-5.1-9.8-5.1-15.4 0-14.3 11.6-26 26-26 6.3 0 12.5 2.3 17.2 6.6l.6.5-3.9 4.2c-.4.4-.4 1 0 1.4 3.4 3.6 5.3 8.3 5.3 13.2 0 2.6-.7 5.7-2 8.2-.1.3-.1.5 0 .8.1.3.3.5.5.6.1.1.3.1.4.1.4 0 .8-.2.9-.6 1.4-2.9 2.2-6.2 2.2-9.1 0-4.9-1.7-9.6-4.7-13.4l-.4-.5 3.2-3.4.6.7c3.9 4.7 6.1 10.6 6.1 16.7-.1 5.5-1.8 10.9-5.1 15.3z"/><path class="st0" d="M45 16.7c-.5 0-.9.2-1.2.5-.3.3-.5.7-.5 1.2 0 .4.2.9.5 1.2.3.3.8.5 1.2.5s.9-.2 1.2-.5c.3-.3.5-.8.5-1.2 0-.4-.2-.9-.5-1.2-.3-.3-.7-.5-1.2-.5zm-16-.9c-.2 0-.4 0-.6.1-.9.3-1.3 1.3-1 2.2.2.7.9 1.1 1.6 1.1.2 0 .4 0 .6-.1l.2-.1c.8-.4 1.2-1.3.9-2.1-.3-.7-.9-1.1-1.7-1.1zm8.2-1.2h-.1c-.9 0-1.6.7-1.7 1.6 0 .5.1.9.4 1.2.3.3.7.5 1.2.6.9 0 1.6-.7 1.7-1.6.2-.9-.5-1.7-1.5-1.8zM18.1 26.9c-.2-.1-.4-.1-.7-.1-.7 0-1.3.4-1.6 1-.2.4-.2.9 0 1.3s.5.8.9.9c.2.1.4.1.7.1.7 0 1.3-.4 1.6-1 .2-.4.2-.9 0-1.3s-.5-.7-.9-.9zm-2.4 11.2c.9 0 1.7-.8 1.7-1.7 0-.9-.8-1.7-1.7-1.7-.9 0-1.7.8-1.7 1.7 0 1 .8 1.7 1.7 1.7zm6.4-18c-.4 0-.8.2-1.2.5-.3.3-.5.7-.5 1.2s.1.9.5 1.2c.3.3.8.5 1.2.5.4 0 .8-.2 1.2-.5.3-.3.5-.7.5-1.2 0-.4-.2-.9-.5-1.2-.3-.3-.7-.5-1.2-.5zm-4.8 22.7c-.5 0-.9.2-1.2.5-.3.3-.5.8-.5 1.2s.2.9.5 1.2c.3.3.7.5 1.2.5s.9-.2 1.2-.5c.3-.3.5-.8.5-1.2s-.2-.9-.5-1.2c-.3-.3-.7-.5-1.2-.5z"/></svg>