<svg xmlns="http://www.w3.org/2000/svg" viewBox="0 0 72 72"><path fill="#959595" d="M61.2 21.8H44.1l11.4-9.3c.7-.6 1.1-1.4 1.2-2.3 0-.9-.3-1.8-.9-2.4L50 1.9c-.6-.6-1.5-1-2.4-.9-.9 0-1.8.5-2.3 1.2l-7.3 9c-.4.4-.3 1.1.2 1.4.4.4 1.1.3 1.4-.2l7.3-9c.2-.3.5-.4.8-.4.3 0 .6.1.9.3l5.9 5.9c.2.2.4.6.3.9 0 .3-.2.6-.4.8l-10.8 8.7c-.2-1-.7-1.9-1.3-2.7l6-6c.4-.4.4-1.1 0-1.5-.4-.4-1.1-.4-1.5 0l-6.3 6.3c-.7-.3-1.5-.5-2.3-.5h-.8l-10.6-13c-.6-.7-1.4-1.1-2.3-1.2-.9 0-1.8.3-2.4.9l-5.9 5.9c-.6.6-1 1.5-.9 2.4 0 .9.5 1.8 1.2 2.3l11.4 9.3H10.8c-1.8 0-3.2 1.4-3.2 3.2v11c0 1.4.9 2.6 2.2 3v28.7c0 1.8 1.4 3.2 3.2 3.2h46c1.8 0 3.2-1.4 3.2-3.2V39.1c1.3-.4 2.2-1.6 2.2-3V25c0-1.7-1.4-3.2-3.2-3.2zm-19.6-1.1v1.2H30.4v-1.2c0-1.9 1.5-3.4 3.4-3.4h4.4c1.8 0 3.4 1.5 3.4 3.4zM39.4 69h-6.7V23.9h6.7V69zM17.3 10.1c0-.3.1-.6.3-.9l5.9-5.9c.2-.1.5-.3.9-.2.3 0 .6.2.8.4l9.5 11.8h-.9c-.8 0-1.6.2-2.3.5l-6.3-6.3c-.4-.4-1.1-.4-1.5 0-.4.4-.4 1.1 0 1.5l6 6c-.7.7-1.1 1.7-1.3 2.7L17.7 11c-.2-.2-.4-.5-.4-.9zm-5.5 57.7V39.2h15.4c.6 0 1-.5 1-1s-.5-1-1-1H10.8c-.6 0-1.2-.5-1.2-1.2V25c0-.6.5-1.2 1.2-1.2h19.8V69H13c-.7 0-1.2-.5-1.2-1.2zM59 69H41.4V39.2h18.8v28.6c0 .7-.5 1.2-1.2 1.2zm3.4-33c0 .6-.5 1.2-1.2 1.2H41.4V23.9h19.8c.6 0 1.2.5 1.2 1.2V36z"/></svg>