<svg xmlns="http://www.w3.org/2000/svg" viewBox="0 0 300 300"><path d="M157.1 52.9c34.1 0 68.2.1 102.4-.1 3.6 0 4.6 1 4.6 4.6-.2 19.3-.2 38.5 0 57.8 0 3.4-.9 4.5-4.4 4.5-15-.2-30 0-44.9-.2-3.6 0-4.3 1.1-4.3 4.4.1 37.1.1 74.2 0 111.3 0 2.1-.1 4.3-.4 6.4-1.3 8.5-5.3 11.8-14 11.9H65.9c-11.1 0-15.8-4.7-15.8-15.8 0-60.2 0-120.4-.1-180.5 0-3.5 1.1-4.3 4.4-4.3 34.2.1 68.5 0 102.7 0zm-26.7 53.8c21 0 42.1 0 63.1.1 2.9 0 4-.9 3.9-3.8-.1-11.1-.1-22.1 0-33.2 0-3-1.1-3.8-4-3.8-42.1.1-84.2.1-126.3 0-2.9 0-4 1-3.9 3.9.1 10.7 0 21.4 0 32.1 0 4.8 0 4.8 4.7 4.8 20.9-.1 41.7-.1 62.5-.1zm.1 39.7c-20.9 0-41.8.1-62.7-.1-3.7 0-4.6 1.1-4.5 4.7.2 10.6.2 21.2 0 31.7-.1 3.3 1 4.3 4.2 4.3 42-.1 83.9-.1 125.9 0 3.4 0 4.2-1.3 4.2-4.4-.1-10.7-.2-21.4 0-32.1.1-3.3-1-4.2-4.3-4.2-20.9.2-41.9.1-62.8.1zM63.3 240c1.5.1 2.6.3 3.8.3 42.3 0 84.6 0 126.9.1 2.6 0 3.5-.7 3.5-3.4-.1-11.1-.2-22.1 0-33.2.1-3.3-1.2-3.9-4.2-3.9-13.2.1-26.4.1-39.6.1-28.8 0-57.5.1-86.3-.1-3.3 0-4.4 1-4.2 4.2.2 4.6.1 9.3.1 13.9v22zM210.5 86.5c0 5.6.1 11.2 0 16.8-.1 2.4.7 3.4 3.2 3.4 11.4-.1 22.8-.1 34.2 0 2.1 0 3.1-.7 3.1-2.8V68.6c0-1.9-.8-2.7-2.8-2.7-11.5.1-23 .1-34.6 0-2.3 0-3.1.9-3.1 3.2.1 5.8 0 11.6 0 17.4zm-120.1 40c0-8.3.5-6.7-6.7-6.9H83c-6.7.1-6.6-1-6.5 6.5.1 8-1.2 7.1 7.2 7.1 6.7.1 6.7.1 6.7-6.7zm13.1 6.5h13.4c1.9-12.8 1.1-13.7-10.5-13.3-.1 0-.3-.1-.3 0-.9.8-2.4 1.6-2.4 2.4-.4 3.5-.2 7-.2 10.9z"/><path d="M83.3 92.9h-1.8c-4.7 0-4.8-.1-4.8-4.8.1-9.7-1.2-8.2 8.3-8.3 5.1-.1 5.1 0 5.1 5v1.1c0 7.7.9 7-6.8 7zm26.8 80.1c-7.3-.1-6.5 1.2-6.6-6.6 0-7.5.1-6.3 6.3-6.3 8.3 0 7.2-1.1 7.2 7 0 7 .7 5.7-6.9 5.9zm-26.8 0c-7-.1-6.6 1.3-6.6-6.6 0-7.4-.1-6.3 6.3-6.3 8 0 7-1.2 7.1 7.2v.7c0 5 0 5-5 5h-1.8zm47.2-.3c0-3.6-.1-7 .1-10.4.1-.8 1.3-1.5 2-2.2.1-.1.5 0 .7 0 10.7-.7 11.7.5 10 12.7-4-.1-8.1-.1-12.8-.1zm27 41.2h12.9c0 3.7.1 7.2-.1 10.7 0 .7-1.2 1.4-1.9 2-.2.2-.7.1-1 .1-10.7.7-11.8-.7-9.9-12.8zm-47.1-.2c7.3.1 6.6-1.2 6.6 6.6 0 6.7 1.1 6.5-6.5 6.4-7.6 0-7 .7-7-7.1 0-.6.1-1.2 0-1.8-.4-3.2.7-4.7 4.1-4.1.9.2 1.9 0 2.8 0zm-26.6 0c6.9.1 6.3-1.4 6.3 6.5 0 7 .8 6.5-6.5 6.5-7.6 0-6.9.7-6.9-6.8 0-6.2 0-6.2 7.1-6.2zm47.1.2h12.7c0 3.7.1 7.3-.1 11 0 .6-1 1.3-1.7 1.8-.2.2-.7.1-1 .1-10.6.6-11.7-.8-9.9-12.9zm99.7-119.5c-4.4-4.9-8.2-9.1-12.7-14.1H242c-3.9 4.9-7.4 9.2-11.4 14.1z"/></svg>