<svg version="1.1" id="Layer_1" xmlns="http://www.w3.org/2000/svg" x="0" y="0" viewBox="0 0 72 72" xml:space="preserve"><style>.st0{fill:#959595}</style><path class="st0" d="M12.6 36.6c0-15.3 9.6-26 23.3-26 3.4 0 6.5.6 9.4 1.9.1.1.3.1.4.1.4 0 .8-.2 1-.6.1-.3.1-.5 0-.8-.1-.3-.3-.5-.6-.6-3.1-1.3-6.5-2-10.2-2C21 8.5 10.5 20 10.5 36.6c0 5.7 1.3 11 3.7 15.5.2.3.5.5.9.5.2 0 .3 0 .5-.1s.4-.4.5-.6c.1-.3 0-.6-.1-.8-2.2-4.2-3.4-9.2-3.4-14.5zm23.2-3.7c.6 0 1-.4 1-1 .1-1.1.1-2.2.1-3.3 0-.6-.5-1-1-1s-1 .5-1 1c0 1.1 0 2.2-.1 3.2 0 .3.1.5.3.8.1.1.4.2.7.3zm.3 3.2c-.2-.2-.4-.4-.7-.4h-.2c-.5 0-1 .4-1 .9-1.3 9.1-4.9 17-10.7 23.6-.2.2-.3.5-.3.8 0 .3.1.5.4.7.2.2.4.3.7.3.3 0 .6-.1.8-.4 6-6.9 9.8-15.2 11.2-24.7.1-.3 0-.6-.2-.8zm9.3 14.1c-.1 0-.2-.1-.4-.1-.4 0-.8.3-1 .7-1.6 4.3-3.7 8.3-6.2 12.1-.2.2-.2.5-.2.8s.2.5.4.7c.2.1.4.2.6.2.4 0 .7-.2.9-.5 2.6-3.9 4.8-8.1 6.4-12.5.1-.3.1-.5 0-.8s-.2-.5-.5-.6z"/><path class="st0" d="M35.9 14.4c-2.6 0-5.1.7-7.3 2.1-.2.1-.4.4-.5.6-.1.3 0 .6.1.8.2.3.5.5.9.5.2 0 .4-.1.5-.2 1.9-1.1 4-1.7 6.2-1.7 6.6 0 12 5.4 12 12 0 6-.8 11.9-2.3 17.3-.1.3 0 .6.1.8.1.2.4.4.6.5h.3c.5 0 .9-.3 1-.8 1.5-5.7 2.3-11.7 2.3-17.9.2-7.6-6.1-14-13.9-14zM19.1 47.8c3.2-5.5 4.8-12 4.8-19.2 0-2.1.5-4.1 1.5-5.9.3-.5.1-1.1-.4-1.4-.2-.1-.3-.1-.5-.1-.4 0-.7.2-.9.5-1.2 2.1-1.8 4.5-1.8 6.9 0 6.9-1.5 13-4.5 18.2-.3.5-.1 1.1.4 1.4.2.1.3.1.5.1.4 0 .7-.2.9-.5z"/><path class="st0" d="M35.9 20.8c-4.3 0-7.7 3.5-7.7 7.7 0 6.8-1.3 13-3.9 18.6-.2.5 0 1.1.5 1.4.1.1.3.1.4.1.4 0 .8-.2.9-.6 2.7-5.8 4.1-12.4 4.1-19.4 0-3.1 2.5-5.6 5.6-5.6 3.1 0 5.6 2.5 5.6 5.6 0 13-3.9 24.7-11.3 34-.2.4-.1 1.1.3 1.4.2.1.4.2.6.2.3 0 .6-.1.8-.4 7.7-9.7 11.7-21.9 11.7-35.3.1-4.2-3.4-7.7-7.6-7.7zM23.2 51.3c-.2-.1-.4-.2-.6-.2-.4 0-.7.2-.9.5-1 1.6-2.2 3.1-3.5 4.5-.2.2-.3.5-.3.8s.1.5.3.7c.2.2.4.3.7.3.3 0 .6-.1.8-.3 1.3-1.5 2.6-3.1 3.7-4.8.4-.5.3-1.2-.2-1.5zm27.4-38.2c-.2-.1-.4-.2-.6-.2-.3 0-.6.2-.8.4-.2.2-.2.5-.2.8 0 .3.2.5.4.7 6.2 4.6 9.8 12.5 9.8 21.8 0 7.2-2.2 13.8-6.3 18.6l-1.8 2.1.4-2.8c.3-1.6.9-3.6 1.4-4.9l.1-.2c.2-.5.3-1 .5-1.4.8-2.7 1.5-5.5 1.8-8.2.1-.6-.3-1.1-.9-1.2h-.1c-.5 0-1 .4-1 .9-.3 2.6-.9 5.3-1.8 7.9-.2.5-.3 1-.5 1.5-1.2 3.5-2.6 7.9-.2 10.1.2.2.4.3.7.3.3 0 .5-.1.7-.3 5.9-5.1 9.3-13.2 9.3-22.4-.2-10-4.1-18.5-10.9-23.5z"/><path class="st0" d="M54.5 34.6c.6 0 1.1-.5 1-1.1 0-3.2-.4-5.1-.4-5.1-.1-.5-.5-.8-1-.8h-.2c-.6.1-.9.7-.8 1.2 0 .1.4 1.8.4 4.7 0 .7.5 1.1 1 1.1zM19 26.7c.1-.3 0-.6-.1-.8-.1-.2-.4-.4-.6-.5H18c-.5 0-.9.3-1 .8-.3 1.2-.5 2.7-.6 4.3-.2 2.4-.4 5-1.3 7.4-.1.3-.1.5 0 .8.1.3.3.5.6.5.1 0 .2.1.4.1.4 0 .8-.3 1-.7 1-2.6 1.2-5.6 1.4-8 .2-1.5.3-2.9.5-3.9z"/></svg>