<svg version="1.1" id="Layer_1" xmlns="http://www.w3.org/2000/svg" x="0" y="0" viewBox="0 0 72 72" xml:space="preserve"><style>.st0{fill:#fff}</style><path class="st0" d="M35.6 27.9c-.6 0-1 .5-1 1v28.2c0 .6.5 1 1 1s1-.5 1-1V29c0-.6-.5-1.1-1-1.1z"/><path class="st0" d="M62.6 20.2h-4.2v-8.4c0-.6-.5-1-1-1-11.5 0-18.1 6.2-21.1 9.9l-.6.8-.6-.8c-3-3.7-9.6-9.9-21.1-9.9-.6 0-1 .5-1 1v8.4H8.6c-.6 0-1 .5-1 1v40.5c0 .6.5 1 1 1h54c.6 0 1-.5 1-1V21.3c0-.6-.5-1.1-1-1.1zm-1.1 40.6H9.6V22.3h3.2v27.9c0 .6.5 1 1 1 8 0 12.5 3.1 16 6.4.2.2.4.3.7.3.3 0 .6-.1.8-.3.2-.2.3-.5.3-.7s-.1-.5-.3-.7c-3.4-3.2-7.9-6.5-15.7-6.9h-.8V12.9l.9.1c13 .9 18.7 10.6 18.9 11 .2.3.5.5.9.5s.7-.2.9-.5c.2-.4 5.9-10.1 18.9-11l.9-.1v36.3h-.8c-7.7.4-12.3 3.8-15.7 6.9-.2.2-.3.5-.3.7 0 .3.1.5.3.8.2.2.5.3.8.3s.5-.1.7-.3c3.6-3.3 8-6.4 16-6.4.6 0 1-.5 1-1V22.3h3.2l.1 38.5z"/></svg>