<svg version="1.1" id="Layer_1" xmlns="http://www.w3.org/2000/svg" x="0" y="0" viewBox="0 0 72 72" xml:space="preserve"><style>.st0{fill:#fff}</style><path class="st0" d="M35.9 8.8c-15.5 0-28 12.6-28 28s12.6 28 28 28 28-12.6 28-28-12.5-28-28-28zm0 54c-14.3 0-26-11.6-26-26s11.6-26 26-26 26 11.6 26 26-11.7 26-26 26z"/><path class="st0" d="M35.9 49.1c-.9 0-1.7.8-1.7 1.7s.8 1.7 1.7 1.7 1.7-.8 1.7-1.7c0-.9-.8-1.7-1.7-1.7zm.9-27.2h-.3c-4.5 0-9.6 2.1-10.3 6.6-.1.6.3 1.1.9 1.2h.2c.5 0 1-.4 1-.9.5-3.3 4.6-4.8 8.1-4.8h.4c3.8.1 7.9 1.8 8.3 5.4.3 2.7-1.7 4-4.7 5.7-1.2.7-2.5 1.4-3.4 2.3-2.2 2.1-2.2 4.2-2.2 6v.3c0 .6.5 1 1 1s1-.5 1-1v-.3c0-1.7 0-3 1.5-4.5.7-.7 1.8-1.3 3-1.9 2.8-1.5 6.2-3.4 5.8-7.7-.5-5-5.5-7.3-10.3-7.4z"/></svg>