<svg version="1.1" id="Layer_1" xmlns="http://www.w3.org/2000/svg" x="0" y="0" viewBox="0 0 72 72" xml:space="preserve"><style>.st0{fill:#fff}</style><path class="st0" d="M62.6 21.6c-.6 0-1 .5-1 1v33.6H9.7V17.4h53c.6 0 1-.5 1-1s-.5-1-1-1h-54c-.6 0-1 .5-1 1v41c0 .6.5 1 1 1h54c.6 0 1-.5 1-1V22.7c0-.6-.5-1.1-1.1-1.1z"/><path class="st0" d="M57.1 21.9c-.2-.2-.5-.4-.8-.4-.2 0-.5.1-.7.2l-20 16.4-20-16.4c-.2-.2-.4-.2-.7-.2s-.6.1-.8.4c-.4.4-.3 1.1.1 1.5l20.6 17c.2.2.4.2.7.2s.5-.1.7-.2l20.6-17c.6-.4.6-1.1.3-1.5zM25.7 39.2L14.2 50.3c-.4.4-.4 1.1 0 1.5.2.2.5.3.8.3s.5-.1.7-.3l11.4-11.1c.4-.4.4-1.1 0-1.5-.2-.2-.5-.3-.8-.3-.2 0-.4.1-.6.3zm19.7 0c-.2-.2-.5-.3-.7-.3-.3 0-.6.1-.8.3-.4.4-.4 1.1 0 1.5l11.4 11.1c.2.2.5.3.7.3.3 0 .6-.1.7-.3.4-.4.4-1.1 0-1.5L45.4 39.2z"/></svg>