<svg version="1.1" id="Layer_1" xmlns="http://www.w3.org/2000/svg" x="0" y="0" viewBox="0 0 72 72" xml:space="preserve"><style>.st0{fill:#fff}</style><path class="st0" d="M62.6 24.7c-.6 0-1 .5-1 1v31c0 1.6-1.3 3-3 3h-46c-1.6 0-3-1.3-3-3V16.5c0-1.6 1.3-3 3-3h21.1c1.8 0 4.3 1.4 5.3 2.9l.5.8c1.4 2.1 4.5 3.9 7 3.9h16.1c.6 0 1-.5 1-1s-.5-1-1-1H46.5c-1.8 0-4.3-1.4-5.3-2.9l-.5-.8c-1.4-2.1-4.5-3.9-7-3.9H12.6c-2.8 0-5 2.3-5 5v40.3c0 2.8 2.3 5 5 5h46c2.8 0 5-2.3 5-5v-31c0-.6-.5-1.1-1-1.1z"/><path class="st0" d="M25.1 39c-.6 0-1 .5-1 1v13c0 .6.5 1 1 1H46c.6 0 1-.5 1-1V26.2c0-.6-.5-1-1-1H34.2c-.1 0-.3 0-.4.1-.1 0-.2.1-.3.2l-9.1 9.2c-.3.3-.4.7-.2 1.1s.5.6 1 .6h9.1c.6 0 1-.5 1-1v-8.1h9.6V52H26.2V40c0-.5-.5-1-1.1-1zm8.1-4.7h-5.5l5.5-5.6v5.6z"/></svg>