<svg xmlns="http://www.w3.org/2000/svg" viewBox="0 0 300 300"><path d="M116.3 263.6H48.2c0-5.3-.2-10.5.2-15.6.1-1 2.2-2.4 3.5-2.5 5.7-.3 11.5-.2 17.3-.1 3.4.1 4.8-1.1 4.9-5.2.1-13.8.2-13.8-12.2-13.8-9.2 0-18.5.1-27.7 0-13.7-.1-19.9-7-19.9-22.3V98.2c0-14.5 7-22.1 20.1-22.1 11.4 0 22.7-.2 34.1.1 4.5.1 6-1.7 5.5-6.4-.3-3-.2-6 0-9 .1-3.1-1.1-4.1-3.8-4.1-5.9.1-11.8 0-17.7.1-3 .1-4.4-1.3-4.3-4.7.3-16.3-2-13.6 12-13.8 17-.2 33.9.1 50.9-.1 4.1 0 5.6 1.4 5.5 6-.4 14.4 1.7 12.4-11.4 12.5-1.1 0-2.1-.1-3.2 0-3.6.3-7.1.6-10.7.9-.3 5.4-.6 10.7-.5 16 0 .8 1.4 2.1 2.3 2.4 1.6.4 3.3.2 5 .2h168.5c13.2 0 20 7.5 20 22.2v106.4c0 7.8-1.2 15.5-8.5 19-3.9 1.9-8.5 2.6-12.8 2.6-56.3.2-112.6.2-169 0-4.6 0-6 1.2-5.9 6.4.3 12.7.1 12.7 11.7 12.7 3.6 0 7.3-.2 10.9.1 1.2.1 3 1.8 3.1 2.9.4 4.8.2 9.7.2 15.1zm153.2-56.1V94.7c-1.5-.1-2.5-.2-3.6-.2-56.9 0-113.9 0-170.8-.1-3.7 0-4.6 1.5-4.6 5.3.1 34 .1 67.9 0 101.9 0 5.1 1.6 6 5.8 6 55.9-.1 111.7-.1 167.6-.1h5.6zM73.9 150.9c0-17.2-.1-34.4.1-51.7 0-3.7-1.1-4.9-4.5-4.9-11.3.2-22.7.2-34 0-3.4-.1-4.4 1.3-4.4 4.9.1 34.4.1 68.9 0 103.3 0 3.7 1.1 4.9 4.5 4.9 11.2-.2 22.4-.2 33.6 0 3.9.1 4.9-1.4 4.9-5.5-.3-16.9-.2-33.9-.2-51z"/></svg>