<svg xmlns="http://www.w3.org/2000/svg" viewBox="0 0 300 300"><path d="M147.9 245.4H59.1c-10 0-14.7-4.7-14.7-14.8V78.5c0-9.6 4.3-14.1 14-14.7h178c10.3 0 15.2 5.1 15.3 15.3v151c0 5.6-1 10.9-6.6 13.8-1.8.9-4.1 1.4-6.2 1.4-30.4.2-60.7.1-91 .1zm-90.7-13c2 .1 3.4.2 4.9.2h172c4.7 0 4.7 0 4.7-4.6V81.8c0-4.9 0-4.9-4.9-4.9H62.2c-5.1 0-5.1 0-5.1 5.1v145.8c.1 1.3.1 2.7.1 4.6z"/><path d="M147.9 141.6c-20.3 0-40.5-.1-60.8.1-3.1 0-3.9-.9-3.9-3.9.1-8.8 0-8.8 8.9-8.8 38.8 0 77.6 0 116.3-.1 3.5 0 4.6.9 4.5 4.4-.2 8.3-.1 8.3-8.4 8.3h-56.6zm0 25.7c-20.3 0-40.5-.1-60.8.1-3.1 0-3.9-.9-3.9-3.9.1-8.7-.1-8.7 8.5-8.7h116.4c4.8 0 4.8 0 4.8 5 0 7.6 0 7.6-7.7 7.6-19.1-.1-38.2-.1-57.3-.1zm.5-64.2c20.3 0 40.5.1 60.8-.1 3.1 0 3.9 1 3.9 3.9-.1 8.7 0 8.7-8.8 8.7H88.6c-5.2 0-5.2 0-5.2-5.1 0-7.5 0-7.5 7.4-7.5 19.1.1 38.3.1 57.6.1zm-13.3 90.4c-15.9 0-31.8-.1-47.6.1-3.1 0-4.3-.8-4.2-4.1.3-10.1-1.4-8.7 8.5-8.7 30.2-.1 60.3 0 90.5 0 4.6 0 4.6 0 4.6 4.5 0 8.2 0 8.2-8.2 8.2h-43.6z"/></svg>