<svg data-name="Layer 1" xmlns="http://www.w3.org/2000/svg" viewBox="0 0 500 500"><path d="M428.74 158.34c.29 4 .29 8 .29 12 0 121.92-92.8 262.4-262.41 262.4A260.59 260.59 0 0 1 25 391.34a189.86 189.86 0 0 0 22.27 1.14 184.69 184.69 0 0 0 114.5-39.4 92.39 92.39 0 0 1-86.23-64A117.09 117.09 0 0 0 93 290.55a97.91 97.91 0 0 0 24.27-3.14 92.25 92.25 0 0 1-74-90.52v-1.14A93.07 93.07 0 0 0 85 207.46 92.36 92.36 0 0 1 56.41 84.1a262.1 262.1 0 0 0 190.16 96.51 104.59 104.59 0 0 1-2.28-21.12A92.32 92.32 0 0 1 403.9 96.38a181.31 181.31 0 0 0 58.54-22.27 92 92 0 0 1-40.55 50.83A184.89 184.89 0 0 0 475 110.66a198.17 198.17 0 0 1-46.26 47.68z" fill="#404444" data-name="Vector Smart Object"/></svg>