<svg version="1.1" id="Layer_1" xmlns="http://www.w3.org/2000/svg" x="0" y="0" viewBox="0 0 72 72" xml:space="preserve"><style>.st0{fill:#959595}</style><path class="st0" d="M61.2 31.4c-7.1-10.9-15.5-16.2-25.8-16.2S16.8 20.5 9.7 31.4c-1.3 2-2.2 3.5-2.3 5 0 .3.1.5.3.8s.4.3.7.3h.1c.6 0 1-.4 1-1 .1-1 .6-2 1.9-4 6.8-10.4 14.4-15.2 24-15.2s17.2 4.8 24 15.2c1.3 2 1.9 3 2 4 0 .6.5 1 1 1h.1c.3 0 .5-.1.7-.3s.3-.5.3-.8c-.1-1.6-1-3-2.3-5zm-1.1 8.9c-.2-.1-.4-.2-.6-.2-.4 0-.7.2-.9.5-6.4 9.8-14.5 15-23.4 15-8.9 0-17.7-5.4-23.6-14.5-.2-.3-.5-.5-.9-.5-.2 0-.4.1-.6.2-.2.2-.4.4-.5.7-.1.3 0 .6.1.8 6.2 9.7 15.7 15.5 25.4 15.5 9.6 0 18.5-5.7 25.2-16 .4-.5.3-1.2-.2-1.5z"/><path class="st0" d="M48.5 36.1c0-7.4-6-13.4-13.4-13.4s-13.4 6-13.4 13.4 6 13.4 13.4 13.4 13.4-6 13.4-13.4zm-24.7 0c0-6.2 5.1-11.3 11.3-11.3 6.2 0 11.3 5.1 11.3 11.3 0 6.2-5.1 11.3-11.3 11.3-6.2.1-11.3-5-11.3-11.3z"/><path class="st0" d="M41.6 36.1c0-3.6-2.9-6.5-6.5-6.5-.6 0-1.2.1-1.8.3-.6.2-.9.7-.7 1.3.1.4.5.8 1 .8h.3c.4-.1.8-.2 1.2-.2 2.4 0 4.4 2 4.4 4.4 0 2.4-2 4.4-4.4 4.4-2.4 0-4.4-2-4.4-4.4 0-.6.1-1.2.3-1.7.2-.5 0-1.1-.6-1.4-.1-.1-.2-.1-.3-.1-.4 0-.8.3-1 .6-.3.8-.5 1.6-.5 2.5 0 3.6 2.9 6.5 6.5 6.5 3.6.1 6.5-2.9 6.5-6.5z"/></svg>