<svg version="1.1" id="Layer_1" xmlns="http://www.w3.org/2000/svg" x="0" y="0" viewBox="0 0 72 72" xml:space="preserve"><style>.st0{fill:#fff}</style><path class="st0" d="M63.5 37.5c-.6 0-1-.4-1-1-.1-1-.6-2-2-4-6.8-10.4-14.4-15.2-24-15.2-.6 0-1-.5-1-1s.5-1 1-1c10.2 0 18.6 5.3 25.8 16.2 1.3 2 2.2 3.5 2.3 5 0 .3-.1.5-.3.8s-.5.2-.8.2z"/><path class="st0" d="M9.4 37.5c-.3 0-.5-.1-.7-.3s-.3-.5-.3-.8c.1-1.6 1-3 2.3-5 7.1-10.9 15.5-16.2 25.8-16.2.6 0 1 .5 1 1s-.5 1-1 1c-9.6 0-17.2 4.8-24 15.2-1.3 2-1.9 3-1.9 4-.1.7-.6 1.1-1.2 1.1zm26.8 20.3c-9.6 0-19.1-5.8-25.4-15.5-.2-.2-.2-.5-.1-.8.1-.3.2-.5.5-.7.2-.1.4-.2.6-.2.4 0 .7.2.9.5 5.9 9.1 14.7 14.5 23.6 14.5 9 0 17.1-5.2 23.4-15 .2-.3.5-.5.9-.5.2 0 .4.1.6.2.5.3.6 1 .3 1.4-6.8 10.4-15.7 16.1-25.3 16.1z"/><path class="st0" d="M36.1 49.5c-7.4 0-13.4-6-13.4-13.4s6-13.4 13.4-13.4 13.4 6 13.4 13.4-6 13.4-13.4 13.4zm0-24.7c-6.2 0-11.3 5.1-11.3 11.3s5.1 11.3 11.3 11.3 11.3-5.1 11.3-11.3c0-6.2-5-11.3-11.3-11.3z"/><path class="st0" d="M36.1 42.7c-3.6 0-6.5-2.9-6.5-6.5 0-.9.2-1.7.5-2.5.2-.4.5-.6 1-.6.1 0 .3 0 .4.1.5.2.8.8.6 1.4-.2.5-.3 1.1-.3 1.7 0 2.4 2 4.4 4.4 4.4s4.4-2 4.4-4.4-2-4.4-4.4-4.4c-.4 0-.8.1-1.2.2h-.3c-.5 0-.9-.3-1-.8-.2-.6.2-1.1.7-1.3.6-.2 1.2-.3 1.8-.3 3.6 0 6.5 2.9 6.5 6.5-.1 3.5-3 6.5-6.6 6.5z"/></svg>