<?xml version="1.0" encoding="utf-8"?>
<!-- Generator: Adobe Illustrator 25.0.0, SVG Export Plug-In . SVG Version: 6.00 Build 0)  -->
<svg version="1.1" id="Layer_1" xmlns="http://www.w3.org/2000/svg" xmlns:xlink="http://www.w3.org/1999/xlink" x="0px" y="0px"
	 viewBox="0 0 300 300" style="enable-background:new 0 0 300 300;" xml:space="preserve">
<path d="M153.1,85c30.3,0,60.6,0,90.9,0c4.6,0,4.6,0,4.6,4.4c0,7.4,0,7.4-7.3,7.4c-59.7,0-119.5,0-179.2,0c-4.7,0-4.7,0-4.7-4.6
	c0-7.3,0-7.3,7.2-7.3C94,85,123.5,85,153.1,85z"/>
<path d="M248.5,72.5c-63.9,0-127.4,0-191.2,0c0-3.4-0.1-6.6,0.1-9.9c0-0.5,0.9-1.3,1.6-1.5c1-0.3,2.1-0.1,3.2-0.1
	c60.6,0,121.1,0,181.7,0c4.7,0,4.7,0,4.7,4.9C248.5,68,248.5,70.1,248.5,72.5z"/>
<path d="M182.9,180.5c-16.7,0-33.3-0.1-50,0.1c-2.9,0-3.8-0.7-3.8-3.7c0.2-8.4,0.1-8.4,8.4-8.4c31.6,0,63.3,0,94.9,0
	c4.2,0,4.2,0,4.2,4.2c0,7.9,0,7.9-7.9,7.9C213.5,180.5,198.2,180.5,182.9,180.5z"/>
<path d="M129.3,132.6c0-4.1,0-7.7,0-11.5c35.6,0,71.2,0,107.2,0c0,3.3,0.1,6.7-0.1,10c0,0.5-0.8,1.2-1.3,1.3
	c-0.8,0.2-1.7,0.1-2.5,0.1c-33.3,0-66.5,0-99.8,0C131.8,132.6,130.7,132.6,129.3,132.6z"/>
<path d="M129.3,228.3c0-4.1,0-7.7,0-11.5c35.7,0,71.2,0,107.2,0c0,3.3,0.1,6.7-0.1,10c0,0.5-0.8,1.2-1.3,1.3
	c-0.8,0.2-1.7,0.1-2.5,0.1c-33.3,0-66.5,0-99.8,0C131.8,228.3,130.7,228.3,129.3,228.3z"/>
<path d="M75.2,240.4c-5.8-7.7-11.3-15.2-16.8-22.6c0.2-0.3,0.3-0.5,0.5-0.8c3.7,1.3,7.6,2.3,11.2,3.9c3.5,1.5,6.4,1.2,9.7-1
	c7.4-4.8,15-9.2,22.5-13.7c0.2,0.2,0.4,0.4,0.6,0.6C93.9,217.9,84.8,228.9,75.2,240.4z"/>
<path d="M75.2,144.5c-5.8-7.8-11.3-15-16.7-22.3c0.2-0.3,0.3-0.5,0.5-0.8c2.6,0.9,5.4,1.5,7.8,2.8c5.8,3,10.7,2.3,16-1.6
	c5.2-3.8,11-6.8,16.5-10.1c1.1-0.6,2.2-1.2,3.7-1.2C93.9,122.1,84.7,133.1,75.2,144.5z"/>
<path d="M103.1,158.9c-9.5,11.4-18.5,22.1-27.9,33.4c-5.7-7.6-11.2-14.9-17.2-22.8c1.5,0.2,2.3,0.2,3,0.4c1.5,0.5,3,1,4.5,1.6
	c10.1,3.5,10,3.4,19.1-2.3c5.5-3.4,11.1-6.7,16.6-10C101.5,159,101.8,159,103.1,158.9z"/>
</svg>
