<?xml version="1.0" encoding="utf-8"?>
<!-- Generator: Adobe Illustrator 25.0.0, SVG Export Plug-In . SVG Version: 6.00 Build 0)  -->
<svg version="1.1" id="Layer_1" xmlns="http://www.w3.org/2000/svg" xmlns:xlink="http://www.w3.org/1999/xlink" x="0px" y="0px"
	 viewBox="0 0 300 300" style="enable-background:new 0 0 300 300;" xml:space="preserve">
<style type="text/css">
	.st0{fill:none;}
	.st1{fill:#FFFFFF;}
</style>
<path class="st0" d="M75.7,227.6c0-0.5,0-0.9-0.1-1.3C75.7,226.7,75.7,227.1,75.7,227.6z"/>
<path class="st0" d="M64.7,231.9c0.2,0.2,0.3,0.3,0.5,0.5C65,232.3,64.8,232.1,64.7,231.9z"/>
<path class="st0" d="M50.5,67.7c67.9-0.1,135.5-0.1,203.7-0.1c-68.2,0-135.7,0-203.7,0C50.5,67.6,50.5,67.7,50.5,67.7z"/>
<path class="st0" d="M82.6,241.2c-3.4,3.4-8.2,5.4-13.3,5.4C74.4,246.7,79.1,244.6,82.6,241.2z"/>
<path class="st0" d="M254.2,67.6c0-2.4,0-4.9,0-7.3c0-2.5,0-3.7-0.6-4.2c0.5,0.6,0.5,1.8,0.5,4.1C254.2,62.7,254.2,65.2,254.2,67.6z
	"/>
<path class="st0" d="M72.5,172.4c1.9,1.2,3.2,3.3,3.2,5.6C75.8,175.6,74.5,173.5,72.5,172.4z"/>
<path class="st0" d="M69,184c-3.4-0.1-5.8-2.8-5.8-6.2c0-2.5,1.3-4.5,3.3-5.6c-2,1-3.4,3.1-3.4,5.7C63.1,181.3,65.6,184,69,184
	c1.1,0.1,2.2-0.1,3.1-0.6C71.2,183.8,70.1,184.1,69,184z"/>
<path class="st0" d="M74.9,224.2c0.1,0.1,0.1,0.3,0.2,0.4C75.1,224.5,75,224.3,74.9,224.2z"/>
<path class="st0" d="M75.3,225.2c0.1,0.3,0.2,0.6,0.2,0.9C75.5,225.7,75.4,225.4,75.3,225.2z"/>
<path class="st0" d="M63.8,230.6c-0.1-0.2-0.2-0.4-0.3-0.6C63.6,230.2,63.7,230.4,63.8,230.6z"/>
<path class="st0" d="M63.3,229.4c0-0.2-0.1-0.4-0.1-0.6C63.3,229,63.3,229.2,63.3,229.4z"/>
<path class="st0" d="M69.6,208.7c-10-0.1-19.3,9-19.2,19C50.4,217.7,59.6,208.6,69.6,208.7z"/>
<path class="st0" d="M64.4,231.6c-0.1-0.2-0.3-0.4-0.4-0.5C64.1,231.2,64.2,231.4,64.4,231.6z"/>
<path class="st0" d="M50.5,125.8c0.2,9.8,9.1,18.6,18.9,18.6C59.6,144.4,50.7,135.5,50.5,125.8z"/>
<path class="st0" d="M63.1,227.8c0,0.1,0,0.1,0,0.2C63.1,227.9,63.1,227.8,63.1,227.8C63.1,227.7,63.1,227.8,63.1,227.8z"/>
<path class="st0" d="M74.4,223.4C74.4,223.4,74.4,223.4,74.4,223.4C74.4,223.4,74.4,223.4,74.4,223.4z"/>
<path class="st0" d="M65.5,232.7c1,0.8,2.4,1.3,3.9,1.3c1.4,0,2.7-0.3,3.6-1c-1,0.6-2.2,0.9-3.6,0.9
	C67.8,233.9,66.5,233.5,65.5,232.7z"/>
<path class="st0" d="M63.1,126.3c0-0.2,0-0.4,0-0.7C63.1,125.8,63.1,126,63.1,126.3z"/>
<path class="st0" d="M63.2,126.9c0,0,0-0.1,0-0.1C63.2,126.8,63.2,126.9,63.2,126.9z"/>
<path class="st0" d="M69.6,106.7L69.6,106.7c10,0,18.7,8.7,18.8,18.8C88.3,115.4,79.7,106.7,69.6,106.7z"/>
<path class="st0" d="M64.1,129.2C64.1,129.1,64.1,129.1,64.1,129.2C64.1,129.1,64.1,129.1,64.1,129.2z"/>
<path class="st0" d="M50.4,89.3c0.3-8.2,0.1-8.2,8.2-8.2c63.6,0,127.1,0,190.7,0c2.4,0,3.7,0,4.3,0.6c-0.6-0.7-1.9-0.7-4.4-0.7
	c-63.6,0-127.1,0-190.7,0c-8.1,0-7.9,0-8.2,8.2c0,1.4,0.1,2.3,0.5,3C50.5,91.5,50.3,90.6,50.4,89.3z"/>
<path class="st0" d="M65.3,130.5c-0.1-0.1-0.2-0.2-0.3-0.3C65.1,130.3,65.2,130.4,65.3,130.5z"/>
<path class="st0" d="M69.3,131.9c-1.5,0-2.9-0.5-3.9-1.4C66.4,131.4,67.7,131.9,69.3,131.9z"/>
<path class="st0" d="M64.8,130.1c-0.1-0.1-0.1-0.1-0.2-0.2C64.7,129.9,64.8,130,64.8,130.1z"/>
<path class="st0" d="M64.4,129.6c0,0-0.1-0.1-0.1-0.1C64.4,129.5,64.4,129.6,64.4,129.6z"/>
<path d="M50.5,67.6c68,0,135.5,0,203.7,0c0-2.4,0-4.9-0.1-7.4c0-2.3,0-3.5-0.5-4.1c-0.6-0.6-1.7-0.7-4.2-0.7
	c-64.8,0-129.6,0-194.4,0c-0.9,0-1.9-0.2-2.7,0.1c-0.7,0.3-1.8,1.1-1.8,1.8C50.3,60.7,50.4,64.1,50.5,67.6
	C50.4,67.6,50.5,67.6,50.5,67.6z"/>
<path d="M253.6,81.7c-0.6-0.6-1.9-0.6-4.3-0.6c-63.6,0-127.1,0-190.7,0c-8.1,0-7.9,0-8.2,8.2c-0.1,1.3,0.1,2.2,0.4,2.9
	c0.6,1.1,1.9,1.4,4,1.4c32.4-0.1,64.8-0.1,97.2-0.1c31.6,0,63.2,0,94.9,0.1c7.4,0,7.4,0,7.4-7.6C254.3,83.5,254.3,82.3,253.6,81.7z"
	/>
<path d="M236.8,170c-37.8,0-75.7,0-113.5,0c-8.9,0-8.7,0-9,8.9c-0.1,3.3,1,4,4,4c19.9-0.2,39.7-0.1,59.5-0.1c18.6,0,37.2,0,55.7,0
	c8,0,8,0,8-7.9C241.5,170,241.5,170,236.8,170z"/>
<path d="M241.3,119.5c-42.5,0-84.6,0-126.7,0c0,4.2,0,8,0,11.9c42.4,0,84.6,0,126.7,0C241.3,127.3,241.3,123.5,241.3,119.5z"/>
<path d="M114.6,233.5c42.3,0,84.5,0,126.8,0c0-4.1,0-8,0-12.1c-42.4,0-84.5,0-126.8,0C114.6,225.6,114.6,229.4,114.6,233.5z"/>
<path d="M70.2,158.8c-9.9-0.4-19.3,8.4-19.8,18.5c-0.4,10,8.6,19.4,19,19.7c10.2,0.3,18.5-7.8,19-18.5
	C88.9,167.9,80.9,159.2,70.2,158.8z M72.1,183.4c-1,0.5-2,0.7-3.2,0.7c-3.3-0.1-5.8-2.8-5.8-6.2c0-2.5,1.4-4.7,3.4-5.7
	c0.9-0.5,2-0.8,3.2-0.7c1,0.1,1.9,0.4,2.8,0.9c2,1.1,3.3,3.2,3.2,5.6C75.6,180.4,74.2,182.5,72.1,183.4z"/>
<path d="M69.6,208.7c-10-0.1-19.2,9-19.2,19s8.9,18.8,18.9,18.9c5.1,0,9.8-2.1,13.3-5.4c3.5-3.4,5.7-8,5.7-13.2
	C88.5,217.7,79.9,208.8,69.6,208.7z M73,233c-1,0.6-2.2,1-3.6,1c-1.6,0-2.9-0.5-3.9-1.3c-0.1-0.1-0.2-0.1-0.3-0.2
	c-0.2-0.2-0.4-0.3-0.5-0.5c-0.1-0.1-0.2-0.2-0.3-0.4c-0.1-0.2-0.3-0.4-0.4-0.5c-0.1-0.1-0.2-0.3-0.2-0.5c-0.1-0.2-0.2-0.4-0.3-0.6
	c-0.1-0.2-0.1-0.4-0.2-0.5c0-0.2-0.1-0.4-0.1-0.6c-0.1-0.3-0.1-0.6-0.1-0.9c0-0.1,0-0.1,0-0.2c0,0,0-0.1,0-0.1c0,0,0,0,0,0
	c-0.1-3.7,2.5-6.4,6.3-6.5c2.2,0,3.9,0.8,5,2.2c0,0,0,0,0,0c0.2,0.2,0.4,0.5,0.5,0.8c0.1,0.1,0.1,0.3,0.2,0.4
	c0.1,0.2,0.2,0.4,0.2,0.6c0.1,0.3,0.2,0.6,0.2,0.9c0,0.1,0,0.1,0,0.2c0.1,0.4,0.1,0.9,0.1,1.3C75.7,230.1,74.7,232,73,233z"/>
<path d="M69.6,106.7L69.6,106.7c-10-0.1-19.3,9.2-19.1,19.1c0.2,9.7,9.1,18.6,18.9,18.6c10.3,0.1,19.1-8.6,19-18.9
	C88.3,115.4,79.6,106.7,69.6,106.7z M69.3,131.9c-1.6,0-2.9-0.5-3.9-1.4c0,0-0.1,0-0.1-0.1c-0.1-0.1-0.2-0.2-0.3-0.3
	c-0.1,0-0.1-0.1-0.2-0.1c-0.1-0.1-0.1-0.1-0.2-0.2c-0.1-0.1-0.1-0.2-0.2-0.2c0,0-0.1-0.1-0.1-0.1c-0.1-0.1-0.2-0.2-0.2-0.3
	c0,0,0,0,0-0.1c-0.4-0.6-0.7-1.4-0.8-2.2c0,0,0-0.1,0-0.1c0-0.2-0.1-0.3-0.1-0.5c0-0.2,0-0.4,0-0.7c0-3.7,2.6-6.4,6.4-6.4
	s6.2,2.5,6.2,6.5C75.7,129.6,73.2,132,69.3,131.9z"/>
<path class="st1" d="M72.5,172.4c-0.8-0.5-1.8-0.8-2.8-0.9c-1.2,0-2.3,0.2-3.2,0.7c-2,1-3.3,3.1-3.3,5.6c0,3.4,2.4,6.1,5.8,6.2
	c1.1,0.1,2.2-0.2,3.1-0.6c2.1-1,3.5-3,3.6-5.4C75.7,175.7,74.4,173.6,72.5,172.4z"/>
<path class="st1" d="M75.6,226c-0.1-0.3-0.1-0.6-0.2-0.9c-0.1-0.2-0.1-0.4-0.2-0.6c-0.1-0.1-0.1-0.3-0.2-0.4
	c-0.1-0.3-0.3-0.6-0.5-0.8c0,0,0,0,0,0c-1.1-1.4-2.8-2.2-5-2.2c-3.8,0.1-6.4,2.8-6.3,6.5c0,0,0,0,0,0c0,0.1,0,0.2,0,0.2
	c0,0.3,0.1,0.6,0.1,0.9c0,0.2,0.1,0.4,0.1,0.6c0,0.2,0.1,0.4,0.2,0.5c0.1,0.2,0.2,0.4,0.3,0.6c0.1,0.2,0.2,0.3,0.2,0.5
	c0.1,0.2,0.2,0.4,0.4,0.5c0.1,0.1,0.2,0.3,0.3,0.4c0.2,0.2,0.3,0.3,0.5,0.5c0.1,0.1,0.2,0.1,0.3,0.2c1,0.8,2.4,1.2,3.9,1.2
	c1.4,0,2.7-0.3,3.6-0.9c1.7-1,2.7-2.9,2.7-5.4c0-0.5,0-0.9-0.1-1.3C75.6,226.2,75.6,226.1,75.6,226z"/>
<path class="st1" d="M75.7,125.7c0-4-2.4-6.5-6.2-6.5s-6.4,2.7-6.4,6.4c0,0.2,0,0.4,0,0.7c0,0.2,0,0.4,0.1,0.5c0,0,0,0.1,0,0.1
	c0.1,0.8,0.4,1.5,0.8,2.2c0,0,0,0,0,0.1c0.1,0.1,0.2,0.2,0.2,0.3c0,0,0.1,0.1,0.1,0.1c0.1,0.1,0.1,0.2,0.2,0.2
	c0.1,0.1,0.1,0.1,0.2,0.2c0,0,0.1,0.1,0.2,0.1c0.1,0.1,0.2,0.2,0.3,0.3c0,0,0.1,0,0.1,0.1c1,0.8,2.4,1.3,3.9,1.4
	C73.2,132,75.7,129.6,75.7,125.7z"/>
</svg>
