<?xml version="1.0" encoding="utf-8"?>
<!-- Generator: Adobe Illustrator 25.0.0, SVG Export Plug-In . SVG Version: 6.00 Build 0)  -->
<svg version="1.1" id="Layer_1" xmlns="http://www.w3.org/2000/svg" xmlns:xlink="http://www.w3.org/1999/xlink" x="0px" y="0px"
	 viewBox="0 0 300 300" style="enable-background:new 0 0 300 300;" xml:space="preserve">
<g>
	<path d="M149.8,248.5c-25.4,0-50.9,0-76.3,0c-9.3,0-14.9-5.6-14.9-15c0-46.3,0-92.6,0-138.8c0-9.3,5.7-14.9,14.9-14.9
		c3,0,5.9,0,8.9,0c4.4,0,4.4,0,4.4-4.3c0-3.2-0.3-6.4,0.2-9.5c1.3-7.8,6.8-13.1,14.7-14.2c6-0.9,12.1-1.1,17.7,1.8
		c6.1,3.2,9,8.5,9.3,15.2c0.1,2.7,0.1,5.5,0,8.2c-0.1,1.9,0.5,2.9,2.6,2.9c12.4,0,24.8,0,37.2,0c2,0,2.7-0.9,2.6-2.8
		c-0.1-2.4-0.1-4.8,0-7.2c0.5-10.5,6.7-17.3,17-18.2c6.1-0.6,12.3-0.6,17.7,3.2c4.7,3.4,7.6,7.8,7.3,13.9c-0.1,2.4,0.2,4.8-0.1,7.2
		c-0.3,3.3,1.2,4.3,4.2,4.1c3.2-0.2,6.4-0.1,9.5,0c8.4,0.1,14,5.4,14.7,13.7c0.1,1,0,2,0,3c0,45.2,0,90.4,0,135.5
		c0,11.2-5.4,16.5-16.5,16.5C200,248.5,174.9,248.5,149.8,248.5z M188.9,178.5c0-4.9-0.1-9.9,0.1-14.8c0.1-2.4-0.6-3.2-3.1-3.2
		c-9.9,0.1-19.7,0.1-29.6,0c-2.2,0-3.1,0.6-3,2.9c0.1,10,0.1,19.9,0,29.9c0,2.1,0.6,2.9,2.8,2.9c10.1-0.1,20.1-0.1,30.2,0
		c2,0,2.7-0.6,2.7-2.6C188.8,188.5,188.9,183.5,188.9,178.5z M146.4,160.5c-11.4,0-22.2,0-33,0.1c-0.7,0-2,1.6-2,2.5
		c-0.1,10.1-0.1,20.2-0.1,30.3c0,2.2,0.9,2.8,3,2.8c9.8-0.1,19.5-0.1,29.3,0c2.3,0,3.1-0.6,3-3c-0.2-4.8-0.1-9.6-0.1-14.5
		C146.4,172.9,146.4,167,146.4,160.5z M129.1,203c-4.9,0-9.9,0.1-14.8,0c-2.3-0.1-3.1,0.8-3,3c0.1,8.5,0.1,17.1,0,25.6
		c0,2.4,0.7,3.4,3.2,3.3c9.6-0.1,19.3-0.1,28.9,0c2.2,0,3.1-0.7,3.1-3c-0.1-8.8-0.1-17.5,0-26.3c0-2-0.6-2.7-2.6-2.7
		C138.9,203.1,134,203,129.1,203z M171.3,203c-5.2,0-10.3,0.1-15.5,0c-1.8,0-2.6,0.5-2.5,2.4c0.1,8.9,0.1,17.8,0,26.6
		c0,2.1,0.8,3,2.9,2.9c10-0.1,19.9-0.1,29.9,0c2.2,0,2.9-0.9,2.8-3c-0.1-8.8-0.1-17.5,0-26.3c0-2.3-0.8-2.8-2.9-2.7
		C181.1,203.1,176.2,203,171.3,203z M188.9,153.4c0-9.9,0-19.4,0-29c0-2.3-1.2-2.7-3.1-2.7c-9.8,0-19.5,0.1-29.3,0
		c-2.4,0-3.3,0.7-3.3,3.2c0.1,8.7,0.1,17.3,0,26c0,2.2,0.7,2.8,2.8,2.8c10.2-0.1,20.4,0,30.6-0.1
		C187.3,153.6,187.9,153.5,188.9,153.4z M196.1,160.5c0,12.1,0,23.8,0,35.6c9.9,0,19.6,0,29.2,0c1.9,0,2.4-1,2.4-2.7
		c0-10.1,0-20.2,0-30.2c0-1.7-0.6-2.7-2.4-2.7C215.6,160.6,206,160.5,196.1,160.5z M128.8,153.6c4.9,0,9.9-0.1,14.8,0.1
		c2.4,0.1,3-0.7,2.9-3c-0.1-8.5-0.1-17.1,0-25.6c0-2.4-0.7-3.3-3.2-3.3c-9.6,0.1-19.3,0.1-28.9,0c-2.2,0-3.2,0.7-3.2,3
		c0.1,8.8,0.1,17.5,0,26.3c0,2,0.8,2.7,2.7,2.6C118.9,153.6,123.8,153.6,128.8,153.6z M72.4,178.4c0,4.9,0.1,9.9,0,14.8
		c0,2,0.4,3,2.7,3c8.8-0.1,17.5-0.1,26.3,0c2,0,2.7-0.6,2.7-2.6c-0.1-10.1-0.1-20.2,0-30.2c0-2.2-0.8-2.8-2.9-2.8
		c-8.7,0.1-17.3,0.1-26,0c-2.4,0-3,1-2.9,3.1C72.4,168.5,72.4,173.5,72.4,178.4z M104.1,219.1c0-4.5-0.1-9,0-13.5
		c0-1.9-0.5-2.7-2.6-2.7c-8.8,0.1-17.5,0.1-26.3,0c-2.1,0-2.9,0.7-2.8,2.8c0.1,8.7,0.1,17.3,0,26c0,2.5,1,3.2,3.3,3.2
		c8.4-0.1,16.9-0.1,25.3,0c2.5,0,3.2-1,3.2-3.3C104,227.5,104.1,223.3,104.1,219.1z M211.7,203c-4.4,0-8.8,0.1-13.1,0
		c-1.9,0-2.8,0.4-2.8,2.5c0.1,8.9,0.1,17.7,0,26.6c0,2.2,0.9,2.9,2.9,2.9c8.6-0.1,17.3-0.1,25.9,0c2.3,0,3.1-0.9,3.1-3.2
		c-0.1-8.6-0.1-17.3,0-25.9c0-2.1-0.7-2.9-2.9-2.9C220.5,203.1,216.1,203,211.7,203z M211.5,153.6c4.4,0,8.8-0.1,13.1,0
		c2,0,3.1-0.5,3.1-2.7c-0.1-8.8-0.1-17.5,0-26.3c0-2.1-0.9-2.9-2.9-2.9c-8.8,0-17.5,0-26.3,0c-2,0-2.7,0.8-2.7,2.7
		c0.1,9,0.1,17.9,0,26.9c0,2,0.9,2.3,2.6,2.3C202.8,153.6,207.2,153.6,211.5,153.6z M72.4,137.7c0,4.5,0.1,9,0,13.5
		c0,1.8,0.6,2.5,2.5,2.5c8.9-0.1,17.7-0.1,26.6,0c2,0,2.7-0.7,2.7-2.7c-0.1-8.8-0.1-17.5,0-26.3c0-2.1-0.6-3-2.8-3
		c-8.7,0.1-17.3,0.1-26,0c-2.3,0-3.1,0.9-3,3.1C72.4,129.1,72.4,133.4,72.4,137.7z M185.3,84.9c0,5,0,10.1,0,15.1
		c0,2.9,1.5,4.4,4.4,4.6c0.9,0,1.7,0,2.6,0c6.2,0,7.3-1.1,7.3-7.2c0-7.7,0-15.3,0-23c0-8.8-0.8-9.6-9.6-9.2
		c-3.4,0.2-4.8,1.5-4.8,4.8C185.2,75,185.3,79.9,185.3,84.9z M114.7,84.7c0-4.1,0-8.1,0-12.2c0-6.9-0.4-7.4-7.5-7.3
		c-0.2,0-0.4,0-0.7,0c-4.7,0-5.8,1.2-5.8,5.8c0,8.3,0,16.6,0,25c0,8.3,0.4,8.7,8.7,8.5c0.2,0,0.4,0,0.7,0c3.2-0.2,4.6-1.5,4.6-4.7
		C114.7,94.8,114.7,89.8,114.7,84.7z"/>
</g>
</svg>
