<?xml version="1.0" encoding="utf-8"?>
<!-- Generator: Adobe Illustrator 22.1.0, SVG Export Plug-In . SVG Version: 6.00 Build 0)  -->
<svg version="1.1" id="Layer_1" xmlns="http://www.w3.org/2000/svg" xmlns:xlink="http://www.w3.org/1999/xlink" x="0px" y="0px"
	 viewBox="0 0 72 72" style="enable-background:new 0 0 72 72;" xml:space="preserve">
<style type="text/css">
	.st0{fill:#FFFFFF;}
</style>
<path class="st0" d="M36.8,42.7c-0.6,0-1-0.4-1-1V10.3c0-0.6,0.5-1,1-1s1,0.4,1,1v31.4C37.8,42.2,37.4,42.7,36.8,42.7z"/>
<path class="st0" d="M36.8,51.1c-0.3,0-0.5-0.1-0.7-0.3L18.4,33.1c-0.2-0.2-0.3-0.4-0.3-0.7s0.1-0.5,0.3-0.7
	c0.2-0.2,0.4-0.3,0.7-0.3s0.5,0.1,0.7,0.3l17,17l17-17c0.2-0.2,0.4-0.3,0.7-0.3s0.5,0.1,0.7,0.3c0.4,0.4,0.4,1,0,1.4L37.5,50.8
	C37.3,51,37.1,51.1,36.8,51.1z"/>
<path class="st0" d="M10.5,63c-0.6,0-1-0.4-1-1V40.3c0-0.6,0.5-1,1-1s1,0.5,1,1V61h50.7V40.3c0-0.6,0.4-1,1-1s1,0.5,1,1V62
	c0,0.6-0.5,1-1,1H10.5z"/>
</svg>
