<?xml version="1.0" encoding="utf-8"?>
<!-- Generator: Adobe Illustrator 22.1.0, SVG Export Plug-In . SVG Version: 6.00 Build 0)  -->
<svg version="1.1" id="Layer_1" xmlns="http://www.w3.org/2000/svg" xmlns:xlink="http://www.w3.org/1999/xlink" x="0px" y="0px"
	 viewBox="0 0 72 72" style="enable-background:new 0 0 72 72;" xml:space="preserve">
<style type="text/css">
	.st0{fill:#959595;}
</style>
<g>
	<path class="st0" d="M35.8,42.7c0.6,0,1-0.4,1-1V10.3c0-0.6-0.4-1-1-1s-1,0.4-1,1v31.4C34.8,42.2,35.3,42.7,35.8,42.7z"/>
	<path class="st0" d="M35.1,50.8c0.2,0.2,0.4,0.3,0.7,0.3c0.3,0,0.5-0.1,0.7-0.3l17.7-17.7c0.4-0.4,0.4-1,0-1.4
		c-0.2-0.2-0.4-0.3-0.7-0.3s-0.5,0.1-0.7,0.3l-17,17l-17-17c-0.2-0.2-0.4-0.3-0.7-0.3s-0.5,0.1-0.7,0.3c-0.2,0.2-0.3,0.4-0.3,0.7
		s0.1,0.5,0.3,0.7L35.1,50.8z"/>
	<path class="st0" d="M62.2,39.3c-0.6,0-1,0.5-1,1V61H10.5V40.3c0-0.6-0.4-1-1-1s-1,0.5-1,1V62c0,0.6,0.5,1,1,1h52.7
		c0.6,0,1-0.4,1-1V40.3C63.2,39.8,62.7,39.3,62.2,39.3z"/>
</g>
</svg>
