<?xml version="1.0" encoding="utf-8"?>
<!-- Generator: Adobe Illustrator 22.1.0, SVG Export Plug-In . SVG Version: 6.00 Build 0)  -->
<svg version="1.1" id="Layer_1" xmlns="http://www.w3.org/2000/svg" xmlns:xlink="http://www.w3.org/1999/xlink" x="0px" y="0px"
	 viewBox="0 0 72 72" style="enable-background:new 0 0 72 72;" xml:space="preserve">
<style type="text/css">
	.st0{fill:#FFFFFF;}
</style>
<g>
	<path class="st0" d="M63,37c-0.6,0-1-0.4-1-1c-0.1-1-0.6-2-2-4c-6.8-10.4-14.4-15.2-24-15.2c-0.6,0-1-0.5-1-1s0.5-1,1-1
		c10.2,0,18.6,5.3,25.8,16.2c1.3,2,2.2,3.5,2.3,5c0,0.3-0.1,0.5-0.3,0.8S63.3,37,63,37L63,37z"/>
	<path class="st0" d="M8.9,37c-0.3,0-0.5-0.1-0.7-0.3S7.9,36.2,8,35.9c0.1-1.6,1-3,2.3-5C17.4,20,25.8,14.7,36,14.7c0.6,0,1,0.5,1,1
		s-0.5,1-1,1c-9.6,0-17.2,4.8-24,15.2c-1.3,2-1.9,3-1.9,4C10,36.6,9.6,37,8.9,37L8.9,37z"/>
	<path class="st0" d="M35.7,57.3c-9.6,0-19.1-5.8-25.4-15.5c-0.2-0.2-0.2-0.5-0.1-0.8c0.1-0.3,0.2-0.5,0.5-0.7
		c0.2-0.1,0.4-0.2,0.6-0.2c0.4,0,0.7,0.2,0.9,0.5c5.9,9.1,14.7,14.5,23.6,14.5c9,0,17.1-5.2,23.4-15c0.2-0.3,0.5-0.5,0.9-0.5
		c0.2,0,0.4,0.1,0.6,0.2c0.5,0.3,0.6,1,0.3,1.4C54.3,51.6,45.3,57.3,35.7,57.3L35.7,57.3z"/>
	<path class="st0" d="M35.7,49.1c-7.4,0-13.4-6-13.4-13.4c0-7.4,6-13.4,13.4-13.4c7.4,0,13.4,6,13.4,13.4
		C49.1,43,43.1,49.1,35.7,49.1z M35.7,24.3c-6.2,0-11.3,5.1-11.3,11.3c0,6.2,5.1,11.3,11.3,11.3C41.9,47,47,41.9,47,35.7
		C47,29.4,41.9,24.3,35.7,24.3z"/>
	<path class="st0" d="M35.7,42.2c-3.6,0-6.5-2.9-6.5-6.5c0-0.9,0.2-1.7,0.5-2.5c0.2-0.4,0.5-0.6,1-0.6c0.1,0,0.3,0,0.4,0.1
		c0.5,0.2,0.8,0.8,0.6,1.4c-0.2,0.5-0.3,1.1-0.3,1.7c0,2.4,2,4.4,4.4,4.4c2.4,0,4.4-2,4.4-4.4c0-2.4-2-4.4-4.4-4.4
		c-0.4,0-0.8,0.1-1.2,0.2c-0.1,0-0.2,0-0.3,0c-0.5,0-0.9-0.3-1-0.8c-0.2-0.6,0.2-1.1,0.7-1.3c0.6-0.2,1.2-0.3,1.8-0.3
		c3.6,0,6.5,2.9,6.5,6.5C42.2,39.3,39.3,42.2,35.7,42.2z"/>
</g>
</svg>
