<?xml version="1.0" encoding="utf-8"?>
<!-- Generator: Adobe Illustrator 22.1.0, SVG Export Plug-In . SVG Version: 6.00 Build 0)  -->
<svg version="1.1" id="Layer_1" xmlns="http://www.w3.org/2000/svg" xmlns:xlink="http://www.w3.org/1999/xlink" x="0px" y="0px"
	 viewBox="0 0 72 72" style="enable-background:new 0 0 72 72;" xml:space="preserve">
<style type="text/css">
	.st0{fill:#222222;}
</style>
<g>
	<path class="st0" d="M58.2,34.5h-2V9.2c0-0.6-0.5-1-1-1H31.7c-0.1,0-0.3,0-0.4,0.1S31.1,8.4,31,8.5L12.7,26.9
		c-0.3,0.3-0.4,0.7-0.2,1.1s0.5,0.6,1,0.6h18.2c0.6,0,1-0.5,1-1V10.3h21.4v24.3H14.5v-1.7c0-0.6-0.5-1-1-1s-1,0.5-1,1v30.3
		c0,0.6,0.5,1,1,1h41.8c0.6,0,1-0.5,1-1v-2.1c0-0.6-0.5-1-1-1s-1,0.5-1,1v1H14.5v-4.9h43.7c0.6,0,1-0.5,1-1V35.6
		C59.3,35,58.8,34.5,58.2,34.5z M30.6,26.6H15.9l14.7-14.8C30.6,11.8,30.6,26.6,30.6,26.6z M57.2,55.2H14.5V36.6h42.7V55.2z"/>
	<path class="st0" d="M39.3,41c-0.2-0.4-0.5-0.6-1-0.6s-0.8,0.2-1,0.6l-4.2,9c-0.2,0.5,0,1.1,0.5,1.4c0.1,0.1,0.3,0.1,0.4,0.1
		c0.4,0,0.8-0.2,1-0.6l0.4-0.8h5.7l0.4,0.8c0.2,0.4,0.5,0.6,1,0.6c0.2,0,0.3,0,0.4-0.1c0.5-0.2,0.8-0.9,0.5-1.4L39.3,41z M36.4,48
		l1.9-4l1.9,4H36.4z"/>
	<path class="st0" d="M30.9,40.4c-0.1,0-0.2,0-0.3,0c-0.5,0-0.9,0.3-1,0.8L28.1,47l-2.2-5.9c-0.2-0.4-0.5-0.7-1-0.7s-0.8,0.3-1,0.7
		L21.7,47l-1.5-5.8c-0.1-0.5-0.5-0.8-1-0.8c-0.1,0-0.2,0-0.3,0c-0.6,0.1-0.9,0.7-0.7,1.3l2.4,9c0.1,0.4,0.5,0.8,1,0.8h0.1
		c0.4,0,0.8-0.3,1-0.7l2.3-6.3l2.3,6.3c0.2,0.4,0.5,0.7,1,0.7l0,0c0.5,0,0.8-0.3,1-0.8l2.4-9c0.1-0.3,0-0.6-0.1-0.8
		C31.4,40.7,31.2,40.5,30.9,40.4z"/>
	<path class="st0" d="M52.8,40.5c-0.1-0.1-0.3-0.1-0.4-0.1c-0.4,0-0.8,0.3-1,0.7l-2.7,6.6L46,41c-0.2-0.4-0.5-0.7-1-0.7
		c-0.1,0-0.3,0-0.4,0.1c-0.3,0.1-0.5,0.3-0.6,0.6s-0.1,0.5,0,0.8l3.7,9c0.2,0.4,0.5,0.7,1,0.7s0.8-0.3,1-0.7l3.7-9
		c0.1-0.3,0.1-0.5,0-0.8C53.2,40.8,53,40.6,52.8,40.5z"/>
</g>
</svg>
