<?xml version="1.0" encoding="utf-8"?>
<!-- Generator: Adobe Illustrator 22.1.0, SVG Export Plug-In . SVG Version: 6.00 Build 0)  -->
<svg version="1.1" id="Layer_1" xmlns="http://www.w3.org/2000/svg" xmlns:xlink="http://www.w3.org/1999/xlink" x="0px" y="0px"
	 viewBox="0 0 72 72" style="enable-background:new 0 0 72 72;" xml:space="preserve">
<style type="text/css">
	.st0{fill:#222222;}
</style>
<g>
	<path class="st0" d="M57.8,34.5h-2V9.2c0-0.6-0.5-1-1-1H31.3c-0.1,0-0.3,0-0.4,0.1s-0.2,0.1-0.3,0.2L12.3,26.9
		c-0.3,0.3-0.4,0.7-0.2,1.1s0.5,0.6,1,0.6h18.2c0.6,0,1-0.5,1-1V10.3h21.4v24.3H14.1v-1.7c0-0.6-0.5-1-1-1s-1,0.5-1,1v30.3
		c0,0.6,0.5,1,1,1h41.8c0.6,0,1-0.5,1-1v-2.1c0-0.6-0.5-1-1-1s-1,0.5-1,1v1H14.1v-4.9h43.7c0.6,0,1-0.5,1-1V35.6
		C58.9,35,58.4,34.5,57.8,34.5z M30.3,26.6H15.6l14.7-14.8V26.6z M56.8,55.2H14.1V36.6h42.7C56.8,36.6,56.8,55.2,56.8,55.2z"/>
	<path class="st0" d="M47,40.4c-0.6,0-1,0.5-1,1v9c0,0.6,0.5,1,1,1s1-0.5,1-1v-9C48,40.9,47.5,40.4,47,40.4z"/>
	<path class="st0" d="M29.1,41c-0.2-0.4-0.5-0.6-1-0.6c-0.4,0-0.8,0.2-1,0.6L23,50c-0.2,0.5,0,1.1,0.5,1.4c0.1,0.1,0.3,0.1,0.4,0.1
		c0.4,0,0.8-0.2,1-0.6l0.4-0.8H31l0.4,0.8c0.2,0.4,0.5,0.6,1,0.6c0.2,0,0.3,0,0.4-0.1c0.3-0.1,0.4-0.3,0.5-0.6s0.1-0.5,0-0.8
		L29.1,41z M26.2,48l1.9-4l1.9,4H26.2z"/>
	<path class="st0" d="M42.6,40.5c-0.1-0.1-0.3-0.1-0.4-0.1c-0.4,0-0.8,0.3-1,0.7l-2.7,6.6L35.8,41c-0.2-0.4-0.5-0.7-1-0.7
		c-0.1,0-0.3,0-0.4,0.1c-0.5,0.2-0.8,0.8-0.6,1.4l3.7,9c0.2,0.4,0.5,0.7,1,0.7s0.8-0.3,1-0.7l3.7-9c0.1-0.3,0.1-0.5,0-0.8
		C43,40.8,42.8,40.6,42.6,40.5z"/>
</g>
</svg>
