<?xml version="1.0" encoding="utf-8"?>
<!-- Generator: Adobe Illustrator 22.1.0, SVG Export Plug-In . SVG Version: 6.00 Build 0)  -->
<svg version="1.1" id="Layer_1" xmlns="http://www.w3.org/2000/svg" xmlns:xlink="http://www.w3.org/1999/xlink" x="0px" y="0px"
	 viewBox="0 0 72 72" style="enable-background:new 0 0 72 72;" xml:space="preserve">
<style type="text/css">
	.st0{fill:#222222;}
</style>
<g>
	<path class="st0" d="M58.2,34.6h-2V9.3c0-0.6-0.5-1-1-1H31.7c-0.1,0-0.3,0-0.4,0.1S31.1,8.5,31,8.6L12.7,27
		c-0.3,0.3-0.4,0.7-0.2,1.1s0.5,0.6,1,0.6h18.2c0.6,0,1-0.5,1-1V10.3h21.4v24.3H14.5v-1.7c0-0.6-0.5-1-1-1s-1,0.5-1,1v30.3
		c0,0.6,0.5,1,1,1h41.8c0.6,0,1-0.5,1-1v-2.1c0-0.6-0.5-1-1-1s-1,0.5-1,1v1H14.5v-4.9h43.7c0.6,0,1-0.5,1-1V35.7
		C59.3,35.1,58.8,34.6,58.2,34.6z M30.6,26.7H15.9l14.7-14.8C30.6,11.9,30.6,26.7,30.6,26.7z M57.2,55.3H14.5V36.7h42.7V55.3z"/>
	<path class="st0" d="M20.4,50.5c1.2,0.7,2.5,1.1,3.7,1.1c0.7,0,1.3-0.1,1.8-0.3c0.9-0.4,1.5-1,1.7-1.8c0.4-1.3,0.5-3.3-3.5-4.6
		c-0.7-0.2-1-0.5-1.2-0.6L22.3,44l0.2-0.7c0.1-0.2,0.2-0.3,0.3-0.5c0.2-0.2,0.6-0.3,1-0.3c0.6,0,1.4,0.3,1.8,0.7
		c0.2,0.2,0.5,0.3,0.7,0.3c0.3,0,0.5-0.1,0.7-0.3s0.3-0.5,0.3-0.7S27.2,42,27,41.8c-0.8-0.8-2.1-1.4-3.3-1.4c-0.6,0-1.5,0.1-2.3,0.8
		s-1.2,1.8-1,2.8c0.1,0.7,0.7,2,3,2.8c0.9,0.3,1.4,0.6,1.7,0.7h0.6v0.8c0,0,0,0.1,0,0.3L25.6,49l-0.3,0.2c-0.3,0.2-0.8,0.3-1.2,0.3
		c-0.5,0-1.5-0.1-2.8-0.8c-0.2-0.1-0.3-0.1-0.5-0.1c-0.4,0-0.7,0.2-0.9,0.5C19.7,49.6,19.8,50.2,20.4,50.5z"/>
	<path class="st0" d="M47.1,51.5c2,0,3.6-0.7,4.6-2.1c0.1-0.2,0.2-0.4,0.2-0.6v-3c0-0.6-0.5-1-1-1h-3.3c-0.6,0-1,0.5-1,1s0.5,1,1,1
		h2.3v1.6l-0.3,0.2c-0.6,0.5-1.4,0.7-2.4,0.7c-1.6,0-3.5-0.6-3.5-3.5s1.9-3.5,3.5-3.5h2.7c0.6,0,1-0.5,1-1s-0.5-1-1-1h-2.7
		c-3.4,0-5.6,2.1-5.6,5.5S43.6,51.5,47.1,51.5z"/>
	<path class="st0" d="M33.9,50.9c0.2,0.4,0.5,0.6,1,0.6s0.8-0.3,1-0.7l3.7-9c0.1-0.3,0.1-0.5,0-0.8s-0.3-0.5-0.6-0.6
		c-0.1-0.1-0.3-0.1-0.4-0.1c-0.4,0-0.8,0.3-1,0.7l-2.7,6.6L32.2,41c-0.2-0.4-0.5-0.7-1-0.7c-0.1,0-0.3,0-0.4,0.1
		c-0.3,0.1-0.5,0.3-0.6,0.6s-0.1,0.5,0,0.8L33.9,50.9z"/>
</g>
</svg>
