<?xml version="1.0" encoding="utf-8"?>
<!-- Generator: Adobe Illustrator 22.0.1, SVG Export Plug-In . SVG Version: 6.00 Build 0)  -->
<svg version="1.1" id="Layer_1" xmlns="http://www.w3.org/2000/svg" xmlns:xlink="http://www.w3.org/1999/xlink" x="0px" y="0px"
	 viewBox="0 0 72 72" style="enable-background:new 0 0 72 72;" xml:space="preserve">
<style type="text/css">
	.st0{fill:#959595;}
</style>
<g>
	<path class="st0" d="M57.9,34.8h-2V9.5c0-0.6-0.5-1-1-1H31.4c-0.1,0-0.3,0-0.4,0.1c-0.1,0.1-0.2,0.1-0.3,0.2L12.4,27.2
		c-0.3,0.3-0.4,0.7-0.2,1.1c0.2,0.4,0.5,0.6,1,0.6h18.2c0.6,0,1-0.5,1-1V10.6h21.4v24.3H14.2v-1.7c0-0.6-0.5-1-1-1s-1,0.5-1,1v30.3
		c0,0.6,0.5,1,1,1h41.8c0.6,0,1-0.5,1-1v-2.1c0-0.6-0.5-1-1-1s-1,0.5-1,1v1H14.2v-4.9h43.7c0.6,0,1-0.5,1-1V35.9
		C59,35.3,58.5,34.8,57.9,34.8z M30.3,26.9H15.6l14.7-14.8V26.9z M56.9,55.5H14.2V36.9h42.7V55.5z"/>
	<path class="st0" d="M50.3,41.3c-0.2-0.4-0.5-0.7-1-0.7s-0.8,0.3-1,0.7l-3.7,9c-0.2,0.5,0,1.1,0.6,1.4c0.1,0.1,0.3,0.1,0.4,0.1
		c0.4,0,0.8-0.3,1-0.7l0.3-0.8h4.8l0.3,0.8c0.2,0.4,0.5,0.7,1,0.7c0.1,0,0.3,0,0.4-0.1c0.5-0.2,0.8-0.8,0.6-1.4L50.3,41.3z
		 M47.8,48.3l1.5-3.8l1.5,3.8H47.8z"/>
	<path class="st0" d="M39.4,40.7c-0.5,0-0.8,0.3-1,0.7l-2.2,6.2l-2.2-6.2C34,41,33.6,40.7,33,40.7c0,0,0,0,0,0
		c-0.5,0-0.9,0.4-0.9,0.9l-1.6,9c0,0.3,0,0.6,0.2,0.8c0.2,0.2,0.4,0.4,0.7,0.4c0.1,0,0.1,0,0.2,0c0.5,0,0.9-0.4,1-0.9l0.9-5.1
		l1.8,5.2c0.1,0.4,0.5,0.7,1,0.7c0.4,0,0.8-0.3,1-0.7l1.8-5.2l0.9,5.1c0.1,0.5,0.5,0.9,1,0.9c0.1,0,0.1,0,0.2,0
		c0.3,0,0.5-0.2,0.7-0.4s0.2-0.5,0.2-0.8l-1.6-9C40.4,41.1,40,40.7,39.4,40.7z"/>
	<path class="st0" d="M28.5,40.7c-0.1,0-0.2,0-0.2,0c-0.5,0-0.9,0.3-1,0.8L26,46.9l-1.8-5.5c-0.1-0.4-0.5-0.7-1-0.7s-0.9,0.3-1,0.7
		l-1.8,5.5l-1.3-5.4c-0.1-0.5-0.5-0.8-1-0.8c-0.1,0-0.2,0-0.2,0c-0.6,0.1-0.9,0.7-0.8,1.3l2.1,9c0.1,0.5,0.5,0.8,1,0.8
		c0.5,0,0.9-0.3,1-0.7l2-6l2,6c0.1,0.4,0.6,0.7,1,0.7l0,0c0.5,0,0.9-0.4,1-0.8l2.1-9c0.1-0.3,0-0.6-0.1-0.8
		C29,40.9,28.8,40.8,28.5,40.7z"/>
</g>
</svg>
