<?xml version="1.0" encoding="utf-8"?>
<!-- Generator: Adobe Illustrator 22.1.0, SVG Export Plug-In . SVG Version: 6.00 Build 0)  -->
<svg version="1.1" id="Layer_1" xmlns="http://www.w3.org/2000/svg" xmlns:xlink="http://www.w3.org/1999/xlink" x="0px" y="0px"
	 viewBox="0 0 72 72" style="enable-background:new 0 0 72 72;" xml:space="preserve">
<style type="text/css">
	.st0{fill:#FFFFFF;}
</style>
<g>
	<path class="st0" d="M57.7,34.6h-2V9.3c0-0.6-0.5-1-1-1H31.1c-0.1,0-0.3,0-0.4,0.1s-0.2,0.1-0.3,0.2L12.1,27
		c-0.3,0.3-0.4,0.7-0.2,1.1s0.5,0.6,1,0.6h18.2c0.6,0,1-0.5,1-1V10.3h21.4v24.3H13.9v-1.7c0-0.6-0.5-1-1-1s-1,0.5-1,1v30.3
		c0,0.6,0.5,1,1,1h41.8c0.6,0,1-0.5,1-1v-2.1c0-0.6-0.5-1-1-1s-1,0.5-1,1v1H13.9v-4.9h43.7c0.6,0,1-0.5,1-1V35.7
		C58.7,35.1,58.2,34.6,57.7,34.6z M30.1,26.7H15.4l14.7-14.8C30.1,11.9,30.1,26.7,30.1,26.7z M56.6,55.3H13.9V36.7h42.7V55.3z"/>
	<path class="st0" d="M21.7,51.5h6.1c0.6,0,1-0.5,1-1s-0.5-1-1-1h-5.1V47h3.1c0.6,0,1-0.5,1-1s-0.5-1-1-1h-3.1v-2.4h5.1
		c0.6,0,1-0.5,1-1s-0.5-1-1-1h-6.1c-0.6,0-1,0.5-1,1v9C20.7,51.1,21.1,51.5,21.7,51.5z"/>
	<path class="st0" d="M32.6,51.5c0.6,0,1-0.5,1-1v-2.6h2.5c2.5,0,3.9-1.9,3.9-3.7s-1.4-3.7-3.9-3.7h-3.6c-0.6,0-1,0.5-1,1v9
		C31.6,51.1,32,51.5,32.6,51.5z M33.7,42.5h2.5c1.3,0,1.8,0.8,1.8,1.6s-0.5,1.6-1.8,1.6h-2.5V42.5z"/>
	<path class="st0" d="M42.5,50.5c1.2,0.7,2.5,1.1,3.7,1.1c0.7,0,1.3-0.1,1.8-0.3c0.9-0.4,1.5-1,1.7-1.8c0.4-1.3,0.5-3.3-3.5-4.6
		c-0.7-0.2-1-0.5-1.2-0.6L44.5,44l0.2-0.7c0.1-0.2,0.2-0.4,0.3-0.5c0.2-0.2,0.6-0.3,1-0.3c0.6,0,1.4,0.3,1.8,0.7
		c0.2,0.2,0.5,0.3,0.7,0.3c0.3,0,0.5-0.1,0.7-0.3c0.4-0.4,0.4-1.1,0-1.5c-0.8-0.8-2.1-1.4-3.3-1.4c-0.6,0-1.5,0.1-2.3,0.8
		s-1.2,1.8-1,2.8c0.1,0.7,0.7,2,3,2.8c1.2,0.4,1.7,0.7,1.9,0.8L47,47.6l-0.8,0.7l1.6,0.1c0,0,0,0.1,0,0.3L47.7,49l-0.3,0.2
		c-0.3,0.2-0.8,0.3-1.2,0.3c-0.5,0-1.5-0.1-2.8-0.8c-0.2-0.1-0.3-0.1-0.5-0.1c-0.4,0-0.7,0.2-0.9,0.5c-0.1,0.2-0.2,0.5-0.1,0.8
		S42.2,50.4,42.5,50.5z"/>
</g>
</svg>
