<?xml version="1.0" encoding="utf-8"?>
<!-- Generator: Adobe Illustrator 22.1.0, SVG Export Plug-In . SVG Version: 6.00 Build 0)  -->
<svg version="1.1" id="Layer_1" xmlns="http://www.w3.org/2000/svg" xmlns:xlink="http://www.w3.org/1999/xlink" x="0px" y="0px"
	 viewBox="0 0 72 72" style="enable-background:new 0 0 72 72;" xml:space="preserve">
<style type="text/css">
	.st0{fill:#FFFFFF;}
</style>
<g>
	<path class="st0" d="M58.3,34.6h-2V9.3c0-0.6-0.5-1-1-1H31.7c-0.1,0-0.3,0-0.4,0.1S31.1,8.5,31,8.6L12.8,27
		c-0.3,0.3-0.4,0.7-0.2,1.1s0.5,0.6,1,0.6h18.2c0.6,0,1-0.5,1-1V10.3h21.4v24.3H14.5v-1.7c0-0.6-0.5-1-1-1s-1,0.5-1,1v30.3
		c0,0.6,0.5,1,1,1h41.8c0.6,0,1-0.5,1-1v-2.1c0-0.6-0.5-1-1-1s-1,0.5-1,1v1H14.5v-4.8h43.7c0.6,0,1-0.5,1-1V35.7
		C59.3,35.1,58.9,34.6,58.3,34.6z M30.7,26.7H16l14.7-14.8V26.7z M57.2,55.3H14.5V36.7h42.7V55.3z"/>
	<path class="st0" d="M48,51.5c2,0,3.6-0.7,4.6-2.1c0.1-0.2,0.2-0.4,0.2-0.6v-3c0-0.6-0.5-1-1-1h-3.3c-0.6,0-1,0.5-1,1s0.5,1,1,1
		h2.3v1.6l-0.3,0.2c-0.6,0.5-1.4,0.7-2.4,0.7c-1.6,0-3.5-0.6-3.5-3.5s1.9-3.5,3.5-3.5h2.7c0.6,0,1-0.5,1-1s-0.5-1-1-1H48
		c-3.4,0-5.6,2.1-5.6,5.5C42.4,49.4,44.6,51.5,48,51.5z"/>
	<path class="st0" d="M20.1,51.5c0.6,0,1-0.5,1-1v-2.6h2.5c2.5,0,3.9-1.9,3.9-3.7s-1.4-3.7-3.9-3.7H20c-0.6,0-1,0.5-1,1v9
		C19,51.1,19.5,51.5,20.1,51.5z M21.1,42.5h2.5c1.3,0,1.8,0.8,1.8,1.6s-0.5,1.6-1.8,1.6h-2.5V42.5z"/>
	<path class="st0" d="M31.2,51.5c0.6,0,1-0.5,1-1v-6.1l5.5,6.7c0.2,0.2,0.5,0.4,0.8,0.4c0.1,0,0.2,0,0.4-0.1c0.4-0.1,0.7-0.5,0.7-1
		v-9c0-0.6-0.5-1-1-1s-1,0.5-1,1v6.1L32,40.8c-0.2-0.2-0.5-0.4-0.8-0.4c-0.1,0-0.2,0-0.4,0.1c-0.4,0.1-0.7,0.5-0.7,1v9
		C30.2,51.1,30.7,51.5,31.2,51.5z"/>
</g>
</svg>
