<?xml version="1.0" encoding="utf-8"?>
<!-- Generator: Adobe Illustrator 22.1.0, SVG Export Plug-In . SVG Version: 6.00 Build 0)  -->
<svg version="1.1" id="Layer_1" xmlns="http://www.w3.org/2000/svg" xmlns:xlink="http://www.w3.org/1999/xlink" x="0px" y="0px"
	 viewBox="0 0 72 72" style="enable-background:new 0 0 72 72;" xml:space="preserve">
<style type="text/css">
	.st0{fill:#FFFFFF;}
</style>
<g>
	<path class="st0" d="M57.8,34.6h-2V9.3c0-0.6-0.5-1-1-1H31.3c-0.1,0-0.3,0-0.4,0.1s-0.2,0.1-0.3,0.2L12.3,27
		c-0.3,0.3-0.4,0.7-0.2,1.1s0.5,0.6,1,0.6h18.2c0.6,0,1-0.5,1-1V10.3h21.4v24.3H14.1v-1.7c0-0.6-0.5-1-1-1s-1,0.5-1,1v30.3
		c0,0.6,0.5,1,1,1h41.8c0.6,0,1-0.5,1-1v-2.1c0-0.6-0.5-1-1-1s-1,0.5-1,1v1H14.1v-4.8h43.7c0.6,0,1-0.5,1-1V35.7
		C58.8,35.1,58.4,34.6,57.8,34.6z M30.2,26.7H15.5l14.7-14.8V26.7z M56.7,55.3H14.1V36.7h42.7v18.6H56.7z"/>
	<path class="st0" d="M22.5,51.5c3.1,0,5.1-2.1,5.1-5.5v-4.5c0-0.6-0.5-1-1-1s-1,0.5-1,1V46c0,2.3-1,3.5-3,3.5c-1.6,0-2.3-1-2.5-2.1
		c-0.1-0.5-0.5-0.9-1-0.9c-0.1,0-0.1,0-0.2,0c-0.6,0.1-1,0.6-0.9,1.2C18.1,49,19.4,51.5,22.5,51.5z"/>
	<path class="st0" d="M47.2,51.5c2,0,3.6-0.7,4.6-2.1c0.1-0.2,0.2-0.4,0.2-0.6v-3c0-0.6-0.5-1-1-1h-3.3c-0.6,0-1,0.5-1,1s0.5,1,1,1
		H50v1.6l-0.3,0.2c-0.6,0.5-1.4,0.7-2.4,0.7c-1.6,0-3.5-0.6-3.5-3.5s1.9-3.5,3.5-3.5H50c0.6,0,1-0.5,1-1s-0.5-1-1-1h-2.7
		c-3.4,0-5.6,2.1-5.6,5.5C41.6,49.4,43.7,51.5,47.2,51.5z"/>
	<path class="st0" d="M31.7,51.5c0.6,0,1-0.5,1-1v-2.6h2.5c2.5,0,3.9-1.9,3.9-3.7s-1.4-3.7-3.9-3.7h-3.6c-0.6,0-1,0.5-1,1v9
		C30.7,51.1,31.2,51.5,31.7,51.5z M32.8,42.5h2.5c1.3,0,1.8,0.8,1.8,1.6s-0.5,1.6-1.8,1.6h-2.5V42.5z"/>
</g>
</svg>
