<?xml version="1.0" encoding="utf-8"?>
<!-- Generator: Adobe Illustrator 22.0.1, SVG Export Plug-In . SVG Version: 6.00 Build 0)  -->
<svg version="1.1" id="Layer_1" xmlns="http://www.w3.org/2000/svg" xmlns:xlink="http://www.w3.org/1999/xlink" x="0px" y="0px"
	 viewBox="0 0 72 72" style="enable-background:new 0 0 72 72;" xml:space="preserve">
<style type="text/css">
	.st0{fill:#959595;}
</style>
<g>
	<path class="st0" d="M58.5,35h-2V9.6c0-0.6-0.5-1-1-1H32c-0.1,0-0.3,0-0.4,0.1c-0.1,0.1-0.2,0.1-0.3,0.2L13,27.3
		c-0.3,0.3-0.4,0.7-0.2,1.1c0.2,0.4,0.5,0.6,1,0.6H32c0.6,0,1-0.5,1-1V10.7h21.4V35H14.8v-1.7c0-0.6-0.5-1-1-1s-1,0.5-1,1v30.3
		c0,0.6,0.5,1,1,1h41.8c0.6,0,1-0.5,1-1v-2.1c0-0.6-0.5-1-1-1s-1,0.5-1,1v1H14.8v-4.8h43.7c0.6,0,1-0.5,1-1V36
		C59.6,35.4,59.1,35,58.5,35z M30.9,27H16.2l14.7-14.8V27z M57.5,55.6H14.8V37.1h42.7V55.6z"/>
	<path class="st0" d="M43.6,42.9h2.5v8c0,0.6,0.5,1,1,1s1-0.5,1-1v-8h2.5c0.6,0,1-0.5,1-1s-0.5-1-1-1h-7.1c-0.6,0-1,0.5-1,1
		S43,42.9,43.6,42.9z"/>
	<path class="st0" d="M32.9,51.9c0.6,0,1-0.5,1-1v-2.6h2.5c2.5,0,3.9-1.9,3.9-3.7c0-1.8-1.4-3.7-3.9-3.7h-3.6c-0.6,0-1,0.5-1,1v9
		C31.9,51.4,32.4,51.9,32.9,51.9z M34,42.9h2.5c1.3,0,1.8,0.8,1.8,1.6c0,0.8-0.5,1.6-1.8,1.6H34V42.9z"/>
	<path class="st0" d="M21.6,51.9c0.6,0,1-0.5,1-1v-2.6h2.5c2.5,0,3.9-1.9,3.9-3.7c0-1.8-1.4-3.7-3.9-3.7h-3.6c-0.6,0-1,0.5-1,1v9
		C20.5,51.4,21,51.9,21.6,51.9z M22.6,42.9h2.5c1.3,0,1.8,0.8,1.8,1.6c0,0.8-0.5,1.6-1.8,1.6h-2.5V42.9z"/>
</g>
</svg>
