<?xml version="1.0" encoding="utf-8"?>
<!-- Generator: Adobe Illustrator 22.1.0, SVG Export Plug-In . SVG Version: 6.00 Build 0)  -->
<svg version="1.1" id="Layer_1" xmlns="http://www.w3.org/2000/svg" xmlns:xlink="http://www.w3.org/1999/xlink" x="0px" y="0px"
	 viewBox="0 0 72 72" style="enable-background:new 0 0 72 72;" xml:space="preserve">
<style type="text/css">
	.st0{fill:#FFFFFF;}
</style>
<g>
	<path class="st0" d="M58.3,34.7h-2V9.4c0-0.6-0.5-1-1-1H31.7c-0.1,0-0.3,0-0.4,0.1S31.1,8.6,31,8.7L12.8,27.1
		c-0.3,0.3-0.4,0.7-0.2,1.1s0.5,0.6,1,0.6h18.2c0.6,0,1-0.5,1-1V10.4h21.4v24.3H14.5V33c0-0.6-0.5-1-1-1c-0.6,0-1,0.5-1,1v30.3
		c0,0.6,0.5,1,1,1h41.8c0.6,0,1-0.5,1-1v-2.1c0-0.6-0.5-1-1-1s-1,0.5-1,1v1H14.5v-4.9h43.7c0.6,0,1-0.5,1-1V35.8
		C59.3,35.2,58.9,34.7,58.3,34.7z M30.7,26.7H16l14.7-14.8V26.7z M57.2,55.4H14.5V36.8h42.7V55.4z"/>
	<path class="st0" d="M44.5,51.6c0.6,0,1-0.5,1-1V48h3.1c0.6,0,1-0.5,1-1s-0.5-1-1-1h-3.1v-3.2h5.1c0.6,0,1-0.5,1-1s-0.5-1-1-1h-6.1
		c-0.6,0-1,0.5-1,1v9C43.5,51.2,43.9,51.6,44.5,51.6z"/>
	<path class="st0" d="M21.1,51.6c0.6,0,1-0.5,1-1V48h2.5c2.5,0,3.9-1.9,3.9-3.7s-1.4-3.7-3.9-3.7H21c-0.6,0-1,0.5-1,1v9
		C20.1,51.2,20.6,51.6,21.1,51.6z M22.2,42.6h2.5c1.3,0,1.8,0.8,1.8,1.6s-0.5,1.6-1.8,1.6h-2.5V42.6z"/>
	<path class="st0" d="M32.4,51.6h2.5c3.4,0,5.5-2.1,5.5-5.5s-2.1-5.5-5.5-5.5h-2.5c-0.6,0-1,0.5-1,1v9c0,0.3,0.1,0.5,0.3,0.7
		S32.2,51.6,32.4,51.6z M33.5,42.6h1.4c1.5,0,3.4,0.6,3.4,3.5s-1.8,3.5-3.4,3.5h-1.4V42.6z"/>
</g>
</svg>
