<?xml version="1.0" encoding="utf-8"?>
<!-- Generator: Adobe Illustrator 22.1.0, SVG Export Plug-In . SVG Version: 6.00 Build 0)  -->
<svg version="1.1" id="Layer_1" xmlns="http://www.w3.org/2000/svg" xmlns:xlink="http://www.w3.org/1999/xlink" x="0px" y="0px"
	 viewBox="0 0 72 72" style="enable-background:new 0 0 72 72;" xml:space="preserve">
<style type="text/css">
	.st0{fill:#222222;}
</style>
<g>
	<path class="st0" d="M58.3,35.1h-2V9.8c0-0.6-0.5-1-1-1H31.7c-0.1,0-0.3,0-0.4,0.1c-0.1-0.1-0.2,0-0.3,0.1L12.8,27.4
		c-0.3,0.3-0.4,0.7-0.2,1.1s0.5,0.6,1,0.6h18.2c0.6,0,1-0.5,1-1V10.8h21.4v24.3H14.5v-1.7c0-0.6-0.5-1-1-1s-1,0.5-1,1v30.3
		c0,0.6,0.5,1,1,1h41.8c0.6,0,1-0.5,1-1v-2.1c0-0.6-0.5-1-1-1s-1,0.5-1,1v1H14.5v-4.9h43.7c0.6,0,1-0.5,1-1V36.1
		C59.3,35.5,58.9,35.1,58.3,35.1z M30.7,27.1H16l14.7-14.8V27.1z M57.2,55.8H14.5V37.2h42.7V55.8z"/>
	<path class="st0" d="M33.6,52h6.1c0.6,0,1-0.5,1-1s-0.5-1-1-1h-5.1v-8c0-0.6-0.5-1-1-1s-1,0.5-1,1v9C32.5,51.5,33,52,33.6,52z"/>
	<path class="st0" d="M23.5,46.5l-3.1,3.8c-0.4,0.4-0.3,1.1,0.1,1.5c0.2,0.2,0.4,0.2,0.7,0.2c0.3,0,0.6-0.1,0.8-0.4l2.9-3.5l2.9,3.5
		c0.2,0.2,0.5,0.4,0.8,0.4c0.2,0,0.5-0.1,0.7-0.2c0.4-0.4,0.5-1,0.1-1.5l-3.1-3.8l3.1-3.8c0.2-0.2,0.3-0.5,0.2-0.8
		c0-0.3-0.2-0.5-0.4-0.7C29,41,28.8,41,28.5,41c-0.3,0-0.6,0.1-0.8,0.4l-2.9,3.5L22,41.3c-0.2-0.2-0.5-0.4-0.8-0.4
		c-0.2,0-0.5,0.1-0.7,0.2c-0.2,0.2-0.4,0.4-0.4,0.7s0.1,0.6,0.2,0.8L23.5,46.5z"/>
	<path class="st0" d="M44.2,51c1.2,0.7,2.5,1.1,3.7,1.1c0.7,0,1.3-0.1,1.8-0.3c0.9-0.4,1.5-1,1.7-1.8c0.4-1.3,0.5-3.3-3.5-4.6
		c-0.7-0.2-1-0.5-1.2-0.6l-0.5-0.2l0.2-0.7c0.1-0.2,0.2-0.3,0.3-0.5c0.2-0.2,0.6-0.3,1-0.3c0.6,0,1.4,0.3,1.8,0.7
		c0.2,0.2,0.5,0.3,0.7,0.3c0.3,0,0.5-0.1,0.7-0.3c0.4-0.4,0.4-1.1,0-1.5c-0.8-0.8-2.1-1.4-3.3-1.4c-0.6,0-1.5,0.1-2.3,0.8
		s-1.2,1.8-1,2.8c0.1,0.7,0.7,2,3,2.8c0.7,0.2,1.3,0.5,1.7,0.7h0.6v0.8c0,0.1,0,0.2,0,0.3l-0.1,0.3l-0.3,0.2
		c-0.3,0.2-0.8,0.3-1.2,0.3c-0.5,0-1.5-0.1-2.8-0.8C45.1,49,44.9,49,44.7,49c-0.4,0-0.7,0.2-0.9,0.5c-0.1,0.2-0.2,0.5-0.1,0.8
		C43.8,50.6,44,50.8,44.2,51z"/>
</g>
</svg>
