<?xml version="1.0" encoding="utf-8"?>
<!-- Generator: Adobe Illustrator 22.1.0, SVG Export Plug-In . SVG Version: 6.00 Build 0)  -->
<svg version="1.1" id="Layer_1" xmlns="http://www.w3.org/2000/svg" xmlns:xlink="http://www.w3.org/1999/xlink" x="0px" y="0px"
	 viewBox="0 0 72 72" style="enable-background:new 0 0 72 72;" xml:space="preserve">
<style type="text/css">
	.st0{fill:#FFFFFF;}
</style>
<g>
	<path class="st0" d="M15.2,65c-0.6,0-1-0.5-1-1V33.6c0-0.6,0.5-1,1-1s1,0.5,1,1v29.3H56V11H34.5v17.4c0,0.6-0.5,1-1,1H15.2
		c-0.4,0-0.8-0.3-1-0.6s-0.1-0.8,0.2-1.1L32.7,9.2C32.8,9.1,32.9,9,33.1,9c0.1-0.1,0.3-0.1,0.4-0.1H57c0.6,0,1,0.5,1,1v54
		c0,0.6-0.5,1-1,1L15.2,65L15.2,65z M17.7,27.3h14.7V12.5L17.7,27.3z"/>
	<path class="st0" d="M36.1,56.8c-0.6,0-1-0.5-1-1V39.1l-9,9c-0.2,0.2-0.5,0.3-0.7,0.3c-0.3,0-0.5-0.1-0.7-0.3
		c-0.4-0.4-0.4-1.1,0-1.5l10.8-10.8c0.2-0.2,0.5-0.3,0.7-0.3s0.5,0.1,0.7,0.3l0.1,0.1l10.8,10.8c0.4,0.4,0.4,1.1,0,1.5
		c-0.2,0.2-0.5,0.3-0.7,0.3s-0.5-0.1-0.7-0.3l-9-9v16.7C37.2,56.4,36.7,56.8,36.1,56.8z"/>
</g>
</svg>
