<?xml version="1.0" encoding="utf-8"?>
<!-- Generator: Adobe Illustrator 22.1.0, SVG Export Plug-In . SVG Version: 6.00 Build 0)  -->
<svg version="1.1" id="Layer_1" xmlns="http://www.w3.org/2000/svg" xmlns:xlink="http://www.w3.org/1999/xlink" x="0px" y="0px"
	 viewBox="0 0 72 72" style="enable-background:new 0 0 72 72;" xml:space="preserve">
<style type="text/css">
	.st0{fill:#222222;}
</style>
<g>
	<path class="st0" d="M58.3,34.5h-2V9.2c0-0.6-0.5-1-1-1H31.7c-0.1,0-0.3,0-0.4,0.1S31.1,8.4,31,8.5L12.7,26.8
		c-0.3,0.3-0.4,0.7-0.2,1.1s0.5,0.6,1,0.6h18.2c0.6,0,1-0.5,1-1V10.2h21.4v24.3H14.5v-1.7c0-0.6-0.5-1-1-1s-1,0.5-1,1v30.3
		c0,0.6,0.5,1,1,1h41.8c0.6,0,1-0.5,1-1V61c0-0.6-0.5-1-1-1s-1,0.5-1,1v1H14.5v-4.9h43.7c0.6,0,1-0.5,1-1V35.5
		C59.3,35,58.9,34.5,58.3,34.5z M30.7,26.5H16l14.7-14.8V26.5z M57.2,55.2H14.5V36.6h42.7V55.2z"/>
	<path class="st0" d="M46,50.8c0.2,0.4,0.5,0.6,1,0.6s0.8-0.3,1-0.7l3.7-9c0.1-0.3,0.1-0.5,0-0.8s-0.3-0.5-0.6-0.6
		c-0.1-0.1-0.3-0.1-0.4-0.1c-0.4,0-0.8,0.3-1,0.7L47,47.6L44.2,41c-0.2-0.4-0.5-0.6-1-0.6c-0.1,0-0.3,0-0.4,0.1
		c-0.3,0.1-0.5,0.3-0.6,0.6s-0.1,0.5,0,0.8L46,50.8z"/>
	<path class="st0" d="M32.6,50.4c1.2,0.7,2.5,1.1,3.7,1.1l0,0c0.7,0,1.3-0.1,1.8-0.3c0.9-0.4,1.5-1,1.7-1.8c0.4-1.3,0.5-3.3-3.5-4.6
		c-0.7-0.2-1-0.5-1.2-0.6L34.5,44l0.2-0.7c0.1-0.2,0.2-0.3,0.3-0.5c0.2-0.2,0.6-0.3,1-0.3c0.6,0,1.4,0.3,1.8,0.7
		c0.2,0.2,0.5,0.3,0.7,0.3c0.3,0,0.5-0.1,0.7-0.3s0.3-0.5,0.3-0.7s-0.1-0.5-0.3-0.7c-0.8-0.8-2.1-1.4-3.3-1.4
		c-0.6,0-1.5,0.1-2.3,0.8s-1.2,1.8-1,2.8c0.1,0.7,0.7,2,3,2.8c0.7,0.2,1.3,0.5,1.7,0.7h0.6v0.8c0,0.1,0,0.2,0,0.3l-0.1,0.3l-0.3,0.2
		c-0.3,0.2-0.8,0.3-1.2,0.3c-0.5,0-1.5-0.1-2.8-0.8c-0.2-0.1-0.3-0.1-0.5-0.1c-0.4,0-0.7,0.2-0.9,0.5c-0.1,0.2-0.2,0.5-0.1,0.8
		S32.4,50.2,32.6,50.4z"/>
	<path class="st0" d="M25.2,51.4c1.8,0,3.3-0.8,4.2-2.1c0.2-0.2,0.2-0.5,0.1-0.8S29.3,48,29,47.8c-0.2-0.1-0.4-0.2-0.6-0.2
		c-0.4,0-0.7,0.2-0.9,0.5c-0.3,0.5-1,1.2-2.4,1.2c-2,0-3-1.2-3-3.5s1-3.5,3-3.5c1.2,0,2,0.4,2.5,1.3c0.2,0.3,0.5,0.5,0.9,0.5
		c0.2,0,0.4,0,0.5-0.1c0.5-0.3,0.7-0.9,0.4-1.4c-0.8-1.5-2.4-2.3-4.3-2.3c-3.1,0-5.1,2.1-5.1,5.5S22,51.4,25.2,51.4z"/>
</g>
</svg>
