<?xml version="1.0" encoding="utf-8"?>
<!-- Generator: Adobe Illustrator 22.0.1, SVG Export Plug-In . SVG Version: 6.00 Build 0)  -->
<svg version="1.1" id="Layer_1" xmlns="http://www.w3.org/2000/svg" xmlns:xlink="http://www.w3.org/1999/xlink" x="0px" y="0px"
	 viewBox="0 0 72 72" style="enable-background:new 0 0 72 72;" xml:space="preserve">
<style type="text/css">
	.st0{fill:#959595;}
</style>
<g>
	<path class="st0" d="M57.8,34.6h-2V9.3c0-0.6-0.5-1-1-1H31.2c-0.1,0-0.3,0-0.4,0.1c-0.1,0.1-0.2,0.1-0.3,0.2L12.2,27
		c-0.3,0.3-0.4,0.7-0.2,1.1s0.5,0.6,1,0.6h18.2c0.6,0,1-0.5,1-1V10.3h21.4v24.3H14v-1.7c0-0.6-0.5-1-1-1s-1,0.5-1,1v30.3
		c0,0.6,0.5,1,1,1h41.8c0.6,0,1-0.5,1-1v-2.1c0-0.6-0.5-1-1-1s-1,0.5-1,1v1H14v-4.8h43.7c0.6,0,1-0.5,1-1V35.7
		C58.8,35.1,58.4,34.6,57.8,34.6z M30.2,26.7H15.5l14.7-14.8V26.7z M56.7,55.3H14V36.7h42.7V55.3z"/>
	<path class="st0" d="M36.2,51.5c0.6,0,1-0.5,1-1v-9c0-0.6-0.5-1-1-1s-1,0.5-1,1v9C35.1,51.1,35.6,51.5,36.2,51.5z"/>
	<path class="st0" d="M27.3,51.5c2,0,3.6-0.7,4.6-2.1c0.1-0.2,0.2-0.4,0.2-0.6v-3c0-0.6-0.5-1-1-1h-3.3c-0.6,0-1,0.5-1,1s0.5,1,1,1
		h2.3v1.6l-0.3,0.2c-0.6,0.5-1.4,0.7-2.4,0.7c-1.6,0-3.5-0.6-3.5-3.5c0-2.9,1.9-3.5,3.5-3.5H30c0.6,0,1-0.5,1-1s-0.5-1-1-1h-2.7
		c-3.4,0-5.6,2.1-5.6,5.5C21.7,49.4,23.8,51.5,27.3,51.5z"/>
	<path class="st0" d="M41.9,51.5c0.6,0,1-0.5,1-1v-2.6H46c0.6,0,1-0.5,1-1s-0.5-1-1-1h-3.1v-3.2H48c0.6,0,1-0.5,1-1s-0.5-1-1-1h-6.1
		c-0.6,0-1,0.5-1,1v9C40.9,51.1,41.3,51.5,41.9,51.5z"/>
</g>
</svg>
