<?xml version="1.0" encoding="utf-8"?>
<!-- Generator: Adobe Illustrator 22.1.0, SVG Export Plug-In . SVG Version: 6.00 Build 0)  -->
<svg version="1.1" id="Layer_1" xmlns="http://www.w3.org/2000/svg" xmlns:xlink="http://www.w3.org/1999/xlink" x="0px" y="0px"
	 viewBox="0 0 72 72" style="enable-background:new 0 0 72 72;" xml:space="preserve">
<style type="text/css">
	.st0{fill:#222222;}
</style>
<g>
	<path class="st0" d="M58.3,34.5h-2V9.2c0-0.6-0.5-1-1-1H31.8c-0.1,0-0.3,0-0.4,0.1s-0.2,0.1-0.3,0.2L12.8,26.8
		c-0.3,0.3-0.4,0.7-0.2,1.1s0.5,0.6,1,0.6h18.2c0.6,0,1-0.5,1-1V10.2h21.4v24.3H14.6v-1.7c0-0.6-0.5-1-1-1s-1,0.5-1,1v30.3
		c0,0.6,0.5,1,1,1h41.8c0.6,0,1-0.5,1-1V61c0-0.6-0.5-1-1-1s-1,0.5-1,1v1H14.6v-4.9h43.7c0.6,0,1-0.5,1-1V35.5
		C59.3,35,58.9,34.5,58.3,34.5z M30.7,26.5H16l14.7-14.8V26.5z M57.2,55.2H14.6V36.6h42.7v18.6H57.2z"/>
	<path class="st0" d="M20.1,51.4h2.5c3.4,0,5.5-2.1,5.5-5.5s-2.1-5.5-5.5-5.5h-2.5c-0.6,0-1,0.5-1,1v9c0,0.3,0.1,0.5,0.3,0.7
		C19.6,51.3,19.9,51.4,20.1,51.4z M21.2,42.4h1.4c1.5,0,3.4,0.6,3.4,3.5s-1.8,3.5-3.4,3.5h-1.4V42.4z"/>
	<path class="st0" d="M35.7,51.4c3.1,0,5.1-2.1,5.1-5.5s-1.9-5.5-5.1-5.5c-3.1,0-5.1,2.1-5.1,5.5S32.5,51.4,35.7,51.4z M35.7,42.4
		c2,0,3,1.2,3,3.5s-1,3.5-3,3.5s-3-1.2-3-3.5S33.7,42.4,35.7,42.4z"/>
	<path class="st0" d="M48.2,51.4c1.8,0,3.3-0.8,4.2-2.1c0.3-0.5,0.2-1.1-0.3-1.4c-0.2-0.1-0.4-0.2-0.6-0.2c-0.4,0-0.7,0.2-0.9,0.5
		c-0.3,0.5-1,1.2-2.4,1.2c-2,0-3-1.2-3-3.5s1-3.5,3-3.5c1.2,0,2,0.4,2.5,1.3c0.2,0.3,0.5,0.5,0.9,0.5c0.2,0,0.4,0,0.5-0.1
		c0.2-0.1,0.4-0.4,0.5-0.6c0.1-0.3,0-0.6-0.1-0.8c-0.8-1.5-2.4-2.3-4.3-2.3c-3.1,0-5.1,2.1-5.1,5.5S45.1,51.4,48.2,51.4z"/>
</g>
</svg>
