<?xml version="1.0" encoding="utf-8"?>
<!-- Generator: Adobe Illustrator 22.1.0, SVG Export Plug-In . SVG Version: 6.00 Build 0)  -->
<svg version="1.1" id="Layer_1" xmlns="http://www.w3.org/2000/svg" xmlns:xlink="http://www.w3.org/1999/xlink" x="0px" y="0px"
	 viewBox="0 0 72 72" style="enable-background:new 0 0 72 72;" xml:space="preserve">
<style type="text/css">
	.st0{fill:#222222;}
</style>
<g>
	<path class="st0" d="M58,34.3h-2V9c0-0.6-0.5-1-1-1H31.4c-0.1,0-0.2,0-0.4,0c-0.1,0.1-0.2,0.1-0.3,0.2L12.5,26.7
		c-0.3,0.3-0.4,0.7-0.2,1.1s0.5,0.6,1,0.6h18.2c0.6,0,1-0.5,1-1V10.1h21.4v24.3H14.2v-1.7c0-0.6-0.5-1-1-1s-1,0.5-1,1V63
		c0,0.6,0.5,1,1,1H55c0.6,0,1-0.5,1-1v-2.1c0-0.6-0.5-1-1-1s-1,0.5-1,1v1H14.2v-4.8H58c0.6,0,1-0.5,1-1V35.4
		C59,34.8,58.6,34.3,58,34.3z M30.4,26.4H15.7l14.7-14.8V26.4z M56.9,55H14.2V36.4h42.7V55z"/>
	<path class="st0" d="M27.4,40.2h-7.1c-0.6,0-1,0.5-1,1s0.5,1,1,1h2.5v8c0,0.6,0.5,1,1,1s1-0.5,1-1v-8h2.5c0.6,0,1-0.5,1-1
		S27.9,40.2,27.4,40.2z"/>
	<path class="st0" d="M50.9,40.2h-7.1c-0.6,0-1,0.5-1,1s0.5,1,1,1h2.5v8c0,0.6,0.5,1,1,1s1-0.5,1-1v-8h2.5c0.6,0,1-0.5,1-1
		S51.5,40.2,50.9,40.2z"/>
	<path class="st0" d="M36.9,45.7l3.1-3.8c0.4-0.4,0.3-1.1-0.1-1.5c-0.2-0.2-0.4-0.2-0.7-0.2s-0.6,0.1-0.8,0.4l-2.9,3.5l-2.9-3.5
		c-0.2-0.2-0.5-0.4-0.8-0.4c-0.2,0-0.5,0.1-0.7,0.2c-0.4,0.4-0.5,1-0.1,1.5l3.1,3.8L31,49.5c-0.2,0.2-0.3,0.5-0.2,0.8
		c0,0.3,0.2,0.5,0.4,0.7c0.2,0.2,0.4,0.2,0.7,0.2c0.3,0,0.6-0.1,0.8-0.4l2.9-3.5l2.9,3.5c0.2,0.2,0.5,0.4,0.8,0.4
		c0.2,0,0.5-0.1,0.7-0.2c0.2-0.2,0.4-0.4,0.4-0.7s-0.1-0.6-0.2-0.8L36.9,45.7z"/>
</g>
</svg>
