<?xml version="1.0" encoding="utf-8"?>
<!-- Generator: Adobe Illustrator 22.1.0, SVG Export Plug-In . SVG Version: 6.00 Build 0)  -->
<svg version="1.1" id="Layer_1" xmlns="http://www.w3.org/2000/svg" xmlns:xlink="http://www.w3.org/1999/xlink" x="0px" y="0px"
	 viewBox="0 0 72 72" style="enable-background:new 0 0 72 72;" xml:space="preserve">
<style type="text/css">
	.st0{fill:#FFFFFF;}
</style>
<path class="st0" d="M56.4,8.1H32.9c-0.1,0-0.3,0-0.4,0.1c-0.1,0-0.2,0.1-0.3,0.2L13.9,26.8c-0.3,0.3-0.4,0.7-0.2,1.1s0.5,0.6,1,0.6
	h18.2c0.6,0,1-0.5,1-1V10.2h21.4v51.9H15.7V32.8c0-0.6-0.5-1-1-1c-0.6,0-1,0.5-1,1v30.3c0,0.6,0.5,1,1,1h41.8c0.6,0,1-0.5,1-1v-54
	C57.5,8.6,57,8.1,56.4,8.1z M31.9,26.5H17.2l14.7-14.8C31.9,11.7,31.9,26.5,31.9,26.5z"/>
</svg>
