<?xml version="1.0" encoding="utf-8"?>
<!-- Generator: Adobe Illustrator 22.1.0, SVG Export Plug-In . SVG Version: 6.00 Build 0)  -->
<svg version="1.1" id="Layer_1" xmlns="http://www.w3.org/2000/svg" xmlns:xlink="http://www.w3.org/1999/xlink" x="0px" y="0px"
	 viewBox="0 0 72 72" style="enable-background:new 0 0 72 72;" xml:space="preserve">
<style type="text/css">
	.st0{fill:#FFFFFF;}
</style>
<g>
	<path class="st0" d="M56.9,8.2H33.3c-0.1,0-0.3,0-0.4,0.1c-0.1,0.1-0.2,0.1-0.3,0.2L14.4,27c-0.3,0.3-0.4,0.7-0.2,1.1
		s0.5,0.6,1,0.6h18.2c0.6,0,1-0.5,1-1V10.3h21.4v51.9H16.1V32.9c0-0.6-0.5-1-1-1s-1,0.5-1,1v30.3c0,0.6,0.5,1,1,1h41.8
		c0.6,0,1-0.5,1-1v-54C57.9,8.7,57.5,8.2,56.9,8.2z M32.3,26.7H17.6l14.7-14.8V26.7z"/>
	<path class="st0" d="M24.2,37.6h23.5c0.6,0,1-0.5,1-1s-0.5-1-1-1H24.2c-0.6,0-1,0.5-1,1S23.7,37.6,24.2,37.6z"/>
	<path class="st0" d="M24.2,43.7h23.5c0.6,0,1-0.5,1-1s-0.5-1-1-1H24.2c-0.6,0-1,0.5-1,1S23.7,43.7,24.2,43.7z"/>
	<path class="st0" d="M24.2,49.8h23.5c0.6,0,1-0.5,1-1s-0.5-1-1-1H24.2c-0.6,0-1,0.5-1,1S23.7,49.8,24.2,49.8z"/>
	<path class="st0" d="M24.2,55.9h12.5c0.6,0,1-0.5,1-1s-0.5-1-1-1H24.2c-0.6,0-1,0.5-1,1S23.7,55.9,24.2,55.9z"/>
</g>
</svg>
