<?xml version="1.0" encoding="utf-8"?>
<!-- Generator: Adobe Illustrator 22.1.0, SVG Export Plug-In . SVG Version: 6.00 Build 0)  -->
<svg version="1.1" id="Layer_1" xmlns="http://www.w3.org/2000/svg" xmlns:xlink="http://www.w3.org/1999/xlink" x="0px" y="0px"
	 viewBox="0 0 72 72" style="enable-background:new 0 0 72 72;" xml:space="preserve">
<style type="text/css">
	.st0{fill:#222222;}
</style>
<g>
	<path class="st0" d="M58.3,35.1h-2V9.7c0-0.6-0.5-1-1-1H31.7c-0.1,0-0.3,0-0.4,0.1c-0.1,0-0.2,0.1-0.3,0.2L12.7,27.4
		c-0.3,0.3-0.4,0.7-0.2,1.1s0.5,0.6,1,0.6h18.2c0.6,0,1-0.5,1-1V10.8h21.4v24.3H14.5v-1.7c0-0.6-0.5-1-1-1s-1,0.5-1,1v30.3
		c0,0.6,0.5,1,1,1h41.8c0.6,0,1-0.5,1-1v-2.1c0-0.6-0.5-1-1-1s-1,0.5-1,1v1H14.5v-4.9h43.7c0.6,0,1-0.5,1-1V36.1
		C59.3,35.5,58.8,35.1,58.3,35.1z M30.7,27.1H16l14.7-14.8V27.1z M57.2,55.7H14.5V37.2h42.7V55.7z"/>
	<path class="st0" d="M39.2,40.9h-3.6c-0.6,0-1,0.5-1,1v9c0,0.6,0.5,1,1,1s1-0.5,1-1v-2.6h2.5c2.5,0,3.9-1.9,3.9-3.7
		C43.1,42.8,41.8,40.9,39.2,40.9z M39.2,46.2h-2.5V43h2.5c1.3,0,1.8,0.8,1.8,1.6C41,45.3,40.6,46.2,39.2,46.2z"/>
	<path class="st0" d="M52.3,40.9c-0.6,0-1,0.5-1,1v4.6h-3.5l1.5-4.2c0.2-0.5-0.1-1.1-0.6-1.3c-0.1,0-0.2-0.1-0.3-0.1
		c-0.4,0-0.8,0.3-1,0.7l-2,5.6c-0.1,0.3-0.1,0.7,0.1,1c0.2,0.3,0.5,0.4,0.9,0.4h4.9v2.3c0,0.6,0.5,1,1,1s1-0.5,1-1v-9
		C53.4,41.4,52.9,40.9,52.3,40.9z"/>
	<path class="st0" d="M29.9,41.7c-0.1-0.5-0.5-0.8-0.9-0.8h-0.1c-0.4,0-0.8,0.3-1,0.6l-2.8,6.7l-2.8-6.7c-0.2-0.4-0.5-0.6-1-0.6
		h-0.1c-0.5,0-0.8,0.4-0.9,0.8l-1.9,9c-0.1,0.3,0,0.6,0.1,0.8c0.2,0.2,0.4,0.4,0.7,0.5c0.1,0,0.2,0,0.2,0c0.5,0,0.9-0.4,1-0.8
		l1.2-5.7l2.5,5.9c0.2,0.4,0.5,0.6,1,0.6s0.8-0.3,1-0.6l2.5-5.9l1.2,5.7c0.1,0.5,0.5,0.8,1,0.8c0.1,0,0.1,0,0.2,0
		c0.6-0.1,0.9-0.7,0.8-1.2L29.9,41.7z"/>
</g>
</svg>
