<?xml version="1.0" encoding="utf-8"?>
<!-- Generator: Adobe Illustrator 22.1.0, SVG Export Plug-In . SVG Version: 6.00 Build 0)  -->
<svg version="1.1" id="Layer_1" xmlns="http://www.w3.org/2000/svg" xmlns:xlink="http://www.w3.org/1999/xlink" x="0px" y="0px"
	 viewBox="0 0 72 72" style="enable-background:new 0 0 72 72;" xml:space="preserve">
<style type="text/css">
	.st0{fill:#222222;}
</style>
<g>
	<path class="st0" d="M58.3,34.5h-2V9.2c0-0.6-0.5-1-1-1H31.8c-0.1,0-0.3,0-0.4,0.1s-0.2,0.1-0.3,0.2L12.8,26.8
		c-0.3,0.3-0.4,0.7-0.2,1.1s0.5,0.6,1,0.6h18.2c0.6,0,1-0.5,1-1V10.2h21.4v24.3H14.6v-1.7c0-0.6-0.5-1-1-1s-1,0.5-1,1v30.3
		c0,0.6,0.5,1,1,1h41.8c0.6,0,1-0.5,1-1V61c0-0.6-0.5-1-1-1s-1,0.5-1,1v1H14.6v-4.9h43.7c0.6,0,1-0.5,1-1V35.5
		C59.4,34.9,58.9,34.5,58.3,34.5z M30.7,26.5H16.1l14.7-14.8L30.7,26.5L30.7,26.5z M57.3,55.2H14.6V36.6h42.7
		C57.3,36.6,57.3,55.2,57.3,55.2z"/>
	<path class="st0" d="M38,40.3h-3.6c-0.6,0-1,0.5-1,1v9c0,0.6,0.5,1,1,1s1-0.5,1-1v-2.6H38c2.5,0,3.9-1.9,3.9-3.7S40.5,40.3,38,40.3
		z M38,45.6h-2.5v-3.2H38c1.3,0,1.8,0.8,1.8,1.6C39.8,44.8,39.3,45.6,38,45.6z"/>
	<path class="st0" d="M28.8,41.2c-0.1-0.5-0.5-0.8-0.9-0.8h-0.1c-0.4,0-0.8,0.3-1,0.6L24,47.7L21.2,41c-0.2-0.4-0.5-0.6-1-0.6h-0.1
		c-0.5,0-0.8,0.4-0.9,0.8l-1.9,9c-0.1,0.3,0,0.6,0.1,0.8s0.4,0.4,0.7,0.5c0.1,0,0.1,0,0.2,0c0.5,0,0.9-0.3,1-0.8l1.2-5.7l2.5,5.9
		c0.2,0.4,0.5,0.6,1,0.6c0.4,0,0.8-0.3,1-0.6l2.5-5.9l1.2,5.7c0.1,0.5,0.5,0.8,1,0.8c0.1,0,0.1,0,0.2,0c0.3-0.1,0.5-0.2,0.7-0.5
		s0.2-0.5,0.1-0.8L28.8,41.2z"/>
	<path class="st0" d="M53.5,44.7h-3.3c-0.6,0-1,0.5-1,1s0.5,1,1,1h2.3v1.6l-0.3,0.2c-0.6,0.5-1.4,0.7-2.4,0.7
		c-1.6,0-3.5-0.6-3.5-3.5s1.9-3.5,3.5-3.5h2.7c0.6,0,1-0.5,1-1s-0.5-1-1-1h-2.7c-3.4,0-5.6,2.1-5.6,5.5s2.1,5.5,5.6,5.5
		c2,0,3.6-0.7,4.6-2.1c0.1-0.2,0.2-0.4,0.2-0.6v-3C54.6,45.2,54.1,44.7,53.5,44.7z"/>
</g>
</svg>
