<?xml version="1.0" encoding="utf-8"?>
<!-- Generator: Adobe Illustrator 22.0.1, SVG Export Plug-In . SVG Version: 6.00 Build 0)  -->
<svg version="1.1" id="Layer_1" xmlns="http://www.w3.org/2000/svg" xmlns:xlink="http://www.w3.org/1999/xlink" x="0px" y="0px"
	 viewBox="0 0 72 72" style="enable-background:new 0 0 72 72;" xml:space="preserve">
<style type="text/css">
	.st0{fill:#959595;}
</style>
<g>
	<path class="st0" d="M58.3,34.5h-2V9.2c0-0.6-0.5-1-1-1H31.8c-0.1,0-0.3,0-0.4,0.1c-0.1,0.1-0.2,0.1-0.3,0.2L12.8,26.9
		c-0.3,0.3-0.4,0.7-0.2,1.1c0.2,0.4,0.5,0.6,1,0.6h18.2c0.6,0,1-0.5,1-1V10.3h21.4v24.3H14.6v-1.7c0-0.6-0.5-1-1-1s-1,0.5-1,1v30.3
		c0,0.6,0.5,1,1,1h41.8c0.6,0,1-0.5,1-1v-2.1c0-0.6-0.5-1-1-1s-1,0.5-1,1v1H14.6v-4.9h43.7c0.6,0,1-0.5,1-1V35.6
		C59.4,35,58.9,34.5,58.3,34.5z M30.7,26.6H16.1l14.7-14.8V26.6z M57.3,55.2H14.6V36.6h42.7V55.2z"/>
	<path class="st0" d="M38.8,40.4h-3.6c-0.6,0-1,0.5-1,1v9c0,0.6,0.5,1,1,1s1-0.5,1-1v-2.6h2.5c2.5,0,3.9-1.9,3.9-3.7
		C42.6,42.3,41.3,40.4,38.8,40.4z M38.8,45.7h-2.5v-3.2h2.5c1.3,0,1.8,0.8,1.8,1.6C40.6,44.8,40.1,45.7,38.8,45.7z"/>
	<path class="st0" d="M53.5,45c0.5-0.8,0.6-1.9,0.2-2.9c-0.5-1-1.6-1.5-2.6-1.8c-0.6-0.2-1.3-0.2-2-0.2c-1.6,0-3,0.4-3.9,1.2
		c-0.2,0.2-0.4,0.4-0.4,0.7c0,0.3,0,0.6,0.2,0.8c0.2,0.3,0.5,0.4,0.8,0.4c0.2,0,0.5-0.1,0.7-0.2c0.7-0.6,1.8-0.7,2.6-0.7
		c0.8,0,1.8,0.1,2.4,0.5l0.7,0.4l-0.4,0.7c-0.4,0.6-1.6,0.9-3.2,0.9c-0.6,0-1,0.5-1,1s0.5,1,1,1c1.9,0,2.9,0.5,3.1,0.9l0.1,0.2
		l0,0.2l0,0.1l-0.1,0.5l-0.3,0.2c-0.6,0.4-1.6,0.5-2.4,0.5c-0.8,0-1.9-0.1-2.6-0.7c-0.2-0.1-0.4-0.2-0.7-0.2c-0.3,0-0.6,0.1-0.8,0.4
		c-0.2,0.2-0.3,0.5-0.2,0.8c0,0.3,0.2,0.5,0.4,0.7c0.9,0.7,2.3,1.2,3.9,1.2c0.7,0,1.4-0.1,2-0.2c0.9-0.2,2.1-0.7,2.6-1.8
		c0.4-1,0.4-2-0.2-2.9c-0.1-0.1-0.1-0.2-0.2-0.3l-0.4-0.5l0.4-0.5C53.4,45.2,53.4,45.1,53.5,45z"/>
	<path class="st0" d="M29.4,41.2c-0.1-0.5-0.5-0.8-0.9-0.8c0,0-0.1,0-0.1,0c-0.4,0-0.8,0.3-1,0.6l-2.8,6.7L21.8,41
		c-0.2-0.4-0.5-0.6-1-0.6c0,0-0.1,0-0.1,0c-0.5,0-0.8,0.4-0.9,0.8l-1.9,9c-0.1,0.3,0,0.6,0.1,0.8s0.4,0.4,0.7,0.5c0.1,0,0.2,0,0.2,0
		c0.5,0,0.9-0.4,1-0.8l1.2-5.7l2.5,5.9c0.2,0.4,0.5,0.6,1,0.6s0.8-0.3,1-0.6l2.5-5.9l1.2,5.7c0.1,0.5,0.5,0.8,1,0.8
		c0.1,0,0.1,0,0.2,0c0.6-0.1,0.9-0.7,0.8-1.2L29.4,41.2z"/>
</g>
</svg>
