<?xml version="1.0" encoding="utf-8"?>
<!-- Generator: Adobe Illustrator 22.1.0, SVG Export Plug-In . SVG Version: 6.00 Build 0)  -->
<svg version="1.1" id="Layer_1" xmlns="http://www.w3.org/2000/svg" xmlns:xlink="http://www.w3.org/1999/xlink" x="0px" y="0px"
	 viewBox="0 0 72 72" style="enable-background:new 0 0 72 72;" xml:space="preserve">
<style type="text/css">
	.st0{fill:#222222;}
</style>
<g>
	<path class="st0" d="M57.9,34.3h-2V8.9c0-0.6-0.5-1-1-1H31.4c-0.1,0-0.3,0-0.4,0.1s-0.2,0.1-0.3,0.2L12.4,26.6
		c-0.3,0.3-0.4,0.7-0.2,1.1s0.5,0.6,1,0.6h18.2c0.6,0,1-0.5,1-1V10h21.4v24.3H14.2v-1.7c0-0.6-0.5-1-1-1s-1,0.5-1,1v30.3
		c0,0.6,0.5,1,1,1H55c0.6,0,1-0.5,1-1v-2.1c0-0.6-0.5-1-1-1s-1,0.5-1,1v1H14.2V57h43.7c0.6,0,1-0.5,1-1V35.3
		C59,34.7,58.5,34.3,57.9,34.3z M30.4,26.3H15.7l14.7-14.8V26.3z M56.9,55H14.2V36.4h42.7V55z"/>
	<path class="st0" d="M45.2,40.1h-3.6c-0.6,0-1,0.5-1,1v9c0,0.6,0.5,1,1,1s1-0.5,1-1v-2.6h2.5c2.5,0,3.9-1.9,3.9-3.7
		C49.1,42,47.7,40.1,45.2,40.1z M45.2,45.4h-2.5v-3.2h2.5c1.3,0,1.8,0.8,1.8,1.6C47,44.5,46.5,45.4,45.2,45.4z"/>
	<path class="st0" d="M35.6,40.1c-0.6,0-1,0.5-1,1v9c0,0.6,0.5,1,1,1s1-0.5,1-1v-9C36.7,40.6,36.2,40.1,35.6,40.1z"/>
	<path class="st0" d="M30.3,49.1h-5.1l5.9-7.3c0.3-0.3,0.3-0.7,0.1-1.1c-0.2-0.4-0.5-0.6-0.9-0.6h-7.2c-0.6,0-1,0.5-1,1s0.5,1,1,1
		h5.1l-5.9,7.3c-0.3,0.3-0.3,0.7-0.1,1.1c0.2,0.4,0.5,0.6,0.9,0.6h7.2c0.6,0,1-0.5,1-1S30.9,49.1,30.3,49.1z"/>
</g>
</svg>
