<?xml version="1.0" encoding="utf-8"?>
<!-- Generator: Adobe Illustrator 22.1.0, SVG Export Plug-In . SVG Version: 6.00 Build 0)  -->
<svg version="1.1" id="Layer_1" xmlns="http://www.w3.org/2000/svg" xmlns:xlink="http://www.w3.org/1999/xlink" x="0px" y="0px"
	 viewBox="0 0 72 72" style="enable-background:new 0 0 72 72;" xml:space="preserve">
<style type="text/css">
	.st0{fill:#FFFFFF;}
</style>
<path class="st0" d="M38,58.3c-0.2,0-0.3,0-0.5-0.1c-15.6-7.7-25.6-18-27.4-28c-0.8-4.6,0.2-8.7,2.9-11.6c2.7-3,6.2-4.5,9.9-4.5
	c0.2,0,0.3,0,0.5,0c6.7,0.2,11.9,4.7,13.8,6.7l0.6,0.6l0.6-0.6c1.9-1.9,7.1-6.5,13.8-6.7c0.2,0,0.4,0,0.5,0c3.7,0,7.1,1.6,9.9,4.5
	c2.7,2.9,3.9,7.1,3.2,11.6c-1.4,8.9-9.6,18.3-22.6,25.6c-0.2,0.1-0.3,0.1-0.5,0.1c-0.4,0-0.7-0.2-0.9-0.5c-0.3-0.5-0.1-1.1,0.4-1.4
	c12.4-7,20.2-15.7,21.5-24c0.6-3.9-0.3-7.4-2.6-9.8c-2.4-2.6-5.2-3.8-8.5-3.8l-0.3,0c-4.6,0.1-10,3.1-13.6,7.5
	c-0.2,0.2-0.5,0.3-0.8,0.3s-0.6-0.1-0.8-0.3c-3.6-4.4-9-7.3-13.6-7.5l-0.3,0c-3.2,0-6.1,1.3-8.5,3.8c-2.3,2.4-3.1,5.9-2.4,9.8
	C13.9,39,23.7,49,38.5,56.3c0.3,0.1,0.4,0.3,0.5,0.6c0.1,0.3,0.1,0.5-0.1,0.8C38.8,58.1,38.4,58.3,38,58.3z"/>
</svg>
