<?xml version="1.0" encoding="utf-8"?>
<!-- Generator: Adobe Illustrator 22.1.0, SVG Export Plug-In . SVG Version: 6.00 Build 0)  -->
<svg version="1.1" id="Layer_1" xmlns="http://www.w3.org/2000/svg" xmlns:xlink="http://www.w3.org/1999/xlink" x="0px" y="0px"
	 viewBox="0 0 72 72" style="enable-background:new 0 0 72 72;" xml:space="preserve">
<style type="text/css">
	.st0{fill:#FFFFFF;}
</style>
<g>
	<path class="st0" d="M45.3,36.4c-0.2,0-0.5,0-0.8,0c-0.3,0-0.6-0.2-0.8-0.4c-0.2-0.2-0.3-0.5-0.3-0.8c0.1-0.6,0.5-1.1,1.1-1.1
		c0,0,0.1,0,0.1,0c0.2,0,0.4,0,0.6,0c1.6,0,3-0.6,4.1-1.7l10.8-10.8c1.1-1.1,1.7-2.6,1.7-4.1c0-1.6-0.6-3-1.7-4.1l-1.6-1.6
		c-1.1-1.1-2.6-1.7-4.1-1.7c-1.6,0-3.1,0.6-4.2,1.7L39.6,22.5c-1.2,1.2-1.8,2.9-1.7,4.7c0.1,0.6-0.4,1.2-1,1.3l-0.1,0
		c-0.6,0-1.1-0.4-1.2-1.1c-0.2-2.4,0.6-4.8,2.4-6.6L48.8,10c1.5-1.5,3.6-2.3,5.8-2.3c2.2,0,4.3,0.8,5.8,2.3l1.6,1.6
		c1.5,1.5,2.4,3.6,2.4,5.8s-0.9,4.2-2.4,5.8L51.1,34C49.6,35.5,47.5,36.4,45.3,36.4z"/>
	<path class="st0" d="M25.6,47.5c-0.3,0-0.6-0.1-0.8-0.3c-0.5-0.5-0.5-1.2,0-1.6l20.8-20.8c0.2-0.2,0.5-0.3,0.8-0.3
		c0.3,0,0.6,0.1,0.8,0.3c0.5,0.5,0.5,1.2,0,1.6L26.4,47.2C26.2,47.4,25.9,47.5,25.6,47.5z"/>
	<path class="st0" d="M17.4,64.3c-2.2,0-4.3-0.8-5.8-2.4l-1.6-1.6c-3.2-3.2-3.2-8.4,0-11.6l10.8-10.8c1.5-1.5,3.6-2.4,5.8-2.4
		c0.3,0,0.5,0,0.8,0c0.3,0,0.6,0.2,0.8,0.4s0.3,0.5,0.3,0.8c-0.1,0.6-0.5,1.1-1.2,1.1l-0.1,0c-0.2,0-0.3,0-0.5,0
		c-1.6,0-3.1,0.6-4.2,1.7L11.7,50.4c-2.3,2.3-2.3,6,0,8.3l1.6,1.6c1.1,1.1,2.6,1.7,4.2,1.7c1.6,0,3.1-0.6,4.2-1.7l10.8-10.8
		c1.2-1.2,1.8-2.9,1.7-4.7c0-0.3,0.1-0.6,0.3-0.8c0.2-0.2,0.5-0.4,0.8-0.4c0.1,0,0.1,0,0.1,0c0.6,0,1.1,0.5,1.1,1.1
		c0.2,2.4-0.6,4.8-2.4,6.5L23.2,61.9C21.7,63.4,19.6,64.3,17.4,64.3z"/>
</g>
</svg>
