<?xml version="1.0" encoding="utf-8"?>
<!-- Generator: Adobe Illustrator 25.0.0, SVG Export Plug-In . SVG Version: 6.00 Build 0)  -->
<svg version="1.1" id="Layer_1" xmlns="http://www.w3.org/2000/svg" xmlns:xlink="http://www.w3.org/1999/xlink" x="0px" y="0px"
	 viewBox="0 0 22 24" style="enable-background:new 0 0 22 24;" xml:space="preserve">
<style type="text/css">
	.st0{fill:#525252;}
</style>
<path class="st0" d="M8.1,21c0,0-0.1,0-0.1,0c-2.2-0.7-4.1-2.2-5.4-4.2s-1.7-4.4-1.3-6.7c0.4-2.3,1.6-4.4,3.4-5.9
	c1.8-1.5,4.1-2.3,6.4-2.3c1.4,0,2.7,0.3,3.9,0.8c1.2,0.5,2.4,1.3,3.3,2.3c0.9,0.9,1.6,1.9,2,3.1c0.4,1.2,0.7,2.4,0.6,3.6
	c-0.1,2-0.9,3.9-2.1,5.5c-0.1,0.1-0.2,0.1-0.3,0.1c-0.1,0-0.2,0-0.3-0.1c0,0-0.1-0.1-0.1-0.1c0,0,0-0.1,0-0.2c0-0.1,0-0.1,0-0.2
	s0-0.1,0.1-0.1c1.1-1.5,1.8-3.2,1.9-5c0-1.1-0.2-2.2-0.6-3.3c-0.4-1-1-2-1.8-2.8c-0.9-0.9-1.9-1.6-3-2.1s-2.4-0.7-3.6-0.7
	c-2.1,0-4.2,0.7-5.9,2.1c-1.6,1.4-2.7,3.3-3.1,5.4c-0.3,2.1,0.1,4.3,1.2,6.1s2.8,3.2,4.9,3.9c0.1,0,0.2,0.1,0.3,0.2
	c0.1,0.1,0.1,0.2,0.1,0.3c0,0.1-0.1,0.2-0.2,0.3C8.3,21,8.2,21,8.1,21z"/>
<path class="st0" d="M7.1,18.4l0.4,1.9L6.4,22l4.6-1L7.1,18.4z"/>
<path class="st0" d="M11.3,14.7c-0.1,0-0.1,0-0.2,0c-0.1,0-0.1-0.1-0.1-0.1c0,0-0.1-0.1-0.1-0.1c0-0.1,0-0.1,0-0.2V6.9
	c0-0.1,0-0.1,0-0.2c0-0.1,0-0.1,0.1-0.2c0,0,0.1-0.1,0.1-0.1c0.1,0,0.1,0,0.2,0c0.1,0,0.1,0,0.2,0c0.1,0,0.1,0.1,0.1,0.1
	c0,0,0.1,0.1,0.1,0.2c0,0.1,0,0.1,0,0.2v7.4c0,0.1,0,0.1,0,0.2c0,0.1-0.1,0.1-0.1,0.1c0,0-0.1,0.1-0.1,0.1
	C11.4,14.7,11.4,14.7,11.3,14.7z"/>
<path class="st0" d="M11.3,14.7c-0.1,0-0.2,0-0.3-0.1l-2.7-2.7c0,0-0.1-0.1-0.1-0.1c0-0.1,0-0.1,0-0.2s0-0.1,0-0.2
	c0-0.1,0.1-0.1,0.1-0.1c0,0,0.1-0.1,0.1-0.1c0.1,0,0.1,0,0.2,0s0.1,0,0.2,0c0.1,0,0.1,0.1,0.1,0.1l2.7,2.7c0,0,0.1,0.1,0.1,0.1
	c0,0.1,0,0.1,0,0.2c0,0.1,0,0.1,0,0.2c0,0.1-0.1,0.1-0.1,0.1C11.5,14.7,11.4,14.7,11.3,14.7z"/>
</svg>
