<?xml version="1.0" encoding="utf-8"?>
<!-- Generator: Adobe Illustrator 25.0.0, SVG Export Plug-In . SVG Version: 6.00 Build 0)  -->
<svg version="1.1" id="Layer_1" xmlns="http://www.w3.org/2000/svg" xmlns:xlink="http://www.w3.org/1999/xlink" x="0px" y="0px"
	 viewBox="0 0 512 512" style="enable-background:new 0 0 512 512;" xml:space="preserve">
<path d="M56,373.8c-2.2,0-4.4-1.1-6.7-3.3c-2.2-1.1-3.3-3.3-3.3-6.7c0-2.2,0-5.6,3.3-7.8c1.1-1.1,3.3-3.3,6.7-3.3
	c14.4,0,31.1-5.6,46.7-70C113.8,236,139.3,126,256,126c115.5,0,142.2,108.9,153.3,156.6c14.4,62.2,31.1,70,46.7,70
	c2.2,0,4.4,1.1,6.7,3.3c2.2,2.2,3.3,4.4,3.3,7.8c0,2.2-1.1,4.4-3.3,6.7c-1.1,2.2-3.3,3.3-6.7,3.3c-32.2,0-51.1-25.6-65.5-85.5
	C360.4,163.8,306,146,254.9,146C166,146,136,218.2,120.5,288.2C106,348.2,87.1,373.8,56,373.8z M56,418.2c-2.2,0-4.4-1.1-6.7-3.3
	c-3.3-2.2-3.3-4.4-3.3-6.7c0-5.6,3.3-8.9,8.9-8.9H456c2.2,0,4.4,0,6.7,3.3c2.2,1.1,3.3,3.3,3.3,6.7c0,2.2-1.1,4.4-3.3,6.7
	c-1.1,2.2-3.3,3.3-6.7,3.3L56,418.2z M260.4,503.7c-13.3,0-25.6-5.6-34.4-14.4c-10-10-14.4-21.1-14.4-35.6c0-2.2,1.1-4.4,3.3-6.7
	c1.1-1.1,3.3-3.3,6.7-3.3c2.2,0,5.6,1.1,7.8,3.3c1.1,1.1,3.3,4.4,3.3,6.7c0,16.7,13.3,30,30,30c7.8,0,15.6-2.2,21.1-7.8
	s8.9-13.3,8.9-22.2c0-2.2,0-4.4,2.2-6.7c2.2-1.1,4.4-3.3,7.8-3.3c5.6,0,8.9,4.4,8.9,10c0,13.3-4.4,25.6-13.3,34.4
	C287.1,498.2,273.8,503.7,260.4,503.7z M290.4,140.5c-5.6,0-8.9-3.3-8.9-8.9V49.4c0-5.6-3.3-11.1-7.8-14.4c-4.4-4.4-10-6.7-16.7-6.7
	h-3.3c-12.2,0-23.3,10-23.3,22.2v81.1c0,2.2-1.1,5.6-3.3,7.8c-1.1,1.1-3.3,3.3-6.7,3.3c-2.2,0-4.4-1.1-7.8-3.3
	c-1.1-2.2-2.2-4.4-2.2-7.8V49.4c0-23.3,18.9-41.1,42.2-41.1h3.3c11.1,0,22.2,3.3,30,11.1s12.2,18.9,12.2,30v82.2
	C300.4,137.1,296,140.5,290.4,140.5z"/>
</svg>
