<?xml version="1.0" encoding="utf-8"?>
<!-- Generator: Adobe Illustrator 25.0.0, SVG Export Plug-In . SVG Version: 6.00 Build 0)  -->
<svg version="1.1" id="Layer_1" xmlns="http://www.w3.org/2000/svg" xmlns:xlink="http://www.w3.org/1999/xlink" x="0px" y="0px"
	 viewBox="0 0 15 15" style="enable-background:new 0 0 15 15;" xml:space="preserve">
<style type="text/css">
	.st0{clip-path:url(#SVGID_2_);}
	.st1{fill:#FFFFFF;}
</style>
<g>
	<defs>
		<rect id="SVGID_1_" width="15" height="15"/>
	</defs>
	<clipPath id="SVGID_2_">
		<use xlink:href="#SVGID_1_"  style="overflow:visible;"/>
	</clipPath>
	<g class="st0">
		<path class="st1" d="M11.4,1.1C11.3,1,11.2,0.9,11.1,1c-0.1,0.1-0.2,0.2-0.2,0.3v1.8C9.1,3.1,8.2,3.9,8,4C7.1,4.7,6.5,5.8,6.3,6.9
			C6.2,7.4,6.2,8,6.2,8.6l0,0c0,0,0,0,0,0L6.3,9c0,0.1,0.1,0.2,0.3,0.3c0.1,0,0.3,0,0.3-0.2l0.2-0.4C7.8,7.7,8.6,7,9.5,6.6
			c0.4-0.2,0.9-0.2,1.3-0.2v1.8c0,0.1,0.1,0.3,0.2,0.3c0.1,0.1,0.3,0,0.4-0.1L14.9,5c0.1-0.1,0.1-0.3,0-0.5L11.4,1.1z M11.5,7.5V6.1
			c0-0.2-0.1-0.3-0.3-0.3c-0.3,0-1-0.1-1.9,0.2c-1,0.3-1.8,1-2.4,2c0-0.3,0-0.6,0.1-0.9c0.2-1,0.7-1.9,1.5-2.5c0,0,0,0,0,0
			c0,0,0.9-0.8,2.7-0.8h0c0.2,0,0.3-0.1,0.3-0.3V2.1l2.7,2.7L11.5,7.5z"/>
		<path class="st1" d="M13.8,10.7c-0.2,0-0.3,0.1-0.3,0.3v1.4c0,0.5-0.4,1-1,1H1.7c-0.5,0-1-0.4-1-1V4.5c0-0.5,0.4-1,1-1h2.3
			c0.2,0,0.3-0.1,0.3-0.3c0-0.2-0.1-0.3-0.3-0.3H1.7C0.7,2.9,0,3.6,0,4.5v7.9c0,0.9,0.7,1.7,1.7,1.7h10.8c0.9,0,1.7-0.7,1.7-1.7V11
			C14.1,10.8,14,10.7,13.8,10.7z"/>
	</g>
</g>
</svg>
