<?xml version="1.0" encoding="utf-8"?>
<!-- Generator: Adobe Illustrator 24.3.0, SVG Export Plug-In . SVG Version: 6.00 Build 0)  -->
<svg version="1.1" id="Layer_1" xmlns="http://www.w3.org/2000/svg" xmlns:xlink="http://www.w3.org/1999/xlink" x="0px" y="0px"
	 viewBox="0 0 72 72" style="enable-background:new 0 0 72 72;" xml:space="preserve">
<style type="text/css">
	.st0{fill:#959595;}
</style>
<g>
	<path class="st0" d="M61.4,10.7c5,4.8,7.6,11.3,7.6,18.1c0,6.9-2.6,13.4-7.6,18.2c-4.8,4.8-11.3,7.6-18.2,7.6S29.9,51.8,25,47
		c-4.8-4.8-7.6-11.3-7.6-18.2s2.8-13.3,7.6-18.2c4.8-4.8,11.3-7.6,18.2-7.6C50.1,3.1,56.6,5.7,61.4,10.7z M26.8,12.3
		C22.5,16.6,20,22.5,20,28.8s2.5,12,6.8,16.6c4.4,4.3,10.4,6.8,16.6,6.8s12-2.5,16.4-6.8c4.4-4.4,6.9-10.4,6.9-16.6
		s-2.5-12-6.9-16.4c-4.3-4.4-10.2-6.9-16.4-6.9S31.2,7.9,26.8,12.3z M59.5,28.8c0,9-7.3,16.2-16.2,16.2c-0.7,0-1.2-0.6-1.2-1.2
		c0-0.6,0.7-1.1,1.2-1.1c7.6,0,13.7-6.1,13.7-13.7s-6.1-13.7-13.7-13.7c-0.7,0-1.2-0.6-1.2-1.2c0-0.6,0.7-1.1,1.2-1.1
		C52.3,12.6,59.5,19.9,59.5,28.8z M18.5,46.1c0,0.4-0.1,0.7-0.4,0.8L6.9,58.2c-1,1-1.5,2.2-1.5,3.5c0,1.4,0.6,2.5,1.4,3.5L7,65.3
		c1,0.8,2.1,1.4,3.5,1.4c1.2,0,2.5-0.6,3.5-1.4l11.2-11.2c0.4-0.6,1.2-0.6,1.7,0c0.3,0.1,0.4,0.6,0.4,0.8c0,0.3-0.1,0.6-0.4,0.8
		L15.6,67c-1.4,1.4-3.3,2.1-5.1,2.1c-1.9,0-3.7-0.7-5.2-2.1l-0.1-0.3c-1.4-1.4-2.1-3-2.1-5.1c0-1.9,0.7-3.7,2.1-5.1l11.2-11.2
		c0.6-0.6,1.4-0.6,1.8,0C18.3,45.5,18.5,45.9,18.5,46.1z"/>
</g>
</svg>
