<?xml version="1.0" encoding="utf-8"?>
<!-- Generator: Adobe Illustrator 25.0.0, SVG Export Plug-In . SVG Version: 6.00 Build 0)  -->
<svg version="1.1" id="Layer_1" xmlns="http://www.w3.org/2000/svg" xmlns:xlink="http://www.w3.org/1999/xlink" x="0px" y="0px"
	 viewBox="0 0 512 512" style="enable-background:new 0 0 512 512;" xml:space="preserve">
<path d="M44,495c-6,0-9-4-9-9V26c0-6,4-9,9-9h425c5,0,9,4,9,9c0,4-4,8-9,8H52v444h408V69c0-5,4-8,8-8c5,0,9,4,9,8v417c0,6-4,9-9,9
	H44z M198,452c-5,0-9-4-9-8V338H90c-6,0-9-4-9-9c0-4,4-8,9-8h99V192H90c-6,0-9-4-9-9c0-4,4-8,9-8h99V73c0-5,4-8,8-8s9,4,9,8v101h216
	c6,0,9,4,9,9c0,4-4,8-9,8H207v129h216c5,0,9,4,9,9c0,4-4,8-9,8H207v107C207,449,203,452,198,452z M122,449c-14,0-22-8-25-12
	c-2-4-1-9,4-12c1-1,2-1,4-1c3,0,6,2,7,4l1,1c2,1,5,3,9,3c2,0,3,0,4-1l3-1l1-2c1-3,1-6-1-10c-2-2-4-4-7-4s-6-2-8-4c-1-3-1-6,0-9l5-9
	h-12c-5,0-9-5-9-9s4-8,9-8h29c3,0,6,1,7,4c2,2,2,6,0,9l-7,12l4,4c5,5,8,12,8,20c0,7-2,13-6,18C137,446,130,449,122,449z M105,294
	c-5,0-9-4-9-8c0-15,11-21,22-28c7-5,13-8,13-14c0-3-3-8-9-8c-3,0-6,2-8,5c-1,2-4,5-7,5c-2,0-3,0-5-1c-4-3-6-8-4-12c4-9,14-15,23-15
	c15,0,27,12,27,26c0,9-4,15-11,21l-10,9l14,2c4,1,7,5,7,9c0,5-5,9-9,9H105z M126,145c-5,0-8-4-8-8v-35l-10,6c-2,1-4,2-6,2s-5-1-6-2
	c-2-2-3-5-3-6c0-3,1-5,3-6l23-24c2-2,5-3,6-3s3,0,4,1c3,2,5,4,5,9v58C135,142,131,145,126,145z"/>
</svg>
