<?xml version="1.0" encoding="utf-8"?>
<!-- Generator: Adobe Illustrator 25.0.0, SVG Export Plug-In . SVG Version: 6.00 Build 0)  -->
<svg version="1.1" id="Layer_1" xmlns="http://www.w3.org/2000/svg" xmlns:xlink="http://www.w3.org/1999/xlink" x="0px" y="0px"
	 viewBox="0 0 25 25" style="enable-background:new 0 0 25 25;" xml:space="preserve">
<style type="text/css">
	.st0{fill:#525252;}
</style>
<path class="st0" d="M22.1,9.3H21c-0.6,0-1.1-0.4-1.4-1c-0.2-0.7-0.2-1.3,0.2-1.8L20.5,6c0.3-0.3,0.4-0.7,0.3-1.2
	c-0.1-0.4-0.3-0.8-0.6-1.1L19.5,3c-0.4-0.4-1-0.7-1.5-0.7c-0.3,0-0.5,0.1-0.8,0.3l-0.7,0.8c-0.2,0.3-0.6,0.4-1,0.4
	c-0.9,0-1.8-0.8-1.8-1.5V1.4c0-0.8-0.8-1.4-1.8-1.4h-0.9c-1,0-1.8,0.5-1.8,1.2v1.1c0,0.4-0.1,0.7-0.4,1C8.6,3.7,8.1,3.9,7.6,3.9
	c-0.4,0-0.8-0.1-1-0.4L6,2.9C5.8,2.7,5.4,2.5,5.1,2.5c-0.5,0-1,0.2-1.4,0.6L3,3.8C2.3,4.5,2.1,5.5,2.6,6l0.8,0.8
	c0.4,0.4,0.5,1,0.3,1.7S2.8,9.5,2.3,9.5H1.4C0.6,9.5,0,10.2,0,11.3v0.9c0,1,0.5,1.8,1.2,1.8h1.1c0.6,0,1.1,0.4,1.4,1
	c0.2,0.7,0.2,1.3-0.2,1.8l-0.6,0.6c-0.2,0.2-0.3,0.5-0.3,0.9c0,0.5,0.2,1,0.6,1.4l0.6,0.6c0.4,0.4,1,0.7,1.5,0.7
	C5.5,21,5.8,21,6,20.8L6.8,20c0.2-0.3,0.6-0.4,1-0.4c0.9,0,1.8,0.8,1.8,1.5V22c0,0.8,0.8,1.4,1.8,1.4h0.9c1,0,1.8-0.5,1.8-1.2v-1.1
	c0-0.4,0.1-0.7,0.4-1c0.3-0.3,0.8-0.5,1.3-0.5c0.4,0,0.8,0.1,1,0.4l0.6,0.6c0.2,0.2,0.5,0.3,0.9,0.3c0.5,0,1-0.2,1.4-0.6l0.6-0.6
	c0.8-0.8,0.9-1.7,0.4-2.2L20,16.7c-0.4-0.4-0.5-1-0.3-1.7c0.2-0.7,0.8-1.1,1.4-1.1H22c0.8,0,1.4-0.8,1.4-1.8v-0.9
	C23.4,10.1,22.8,9.3,22.1,9.3z M22.5,12.1c0,0.5-0.2,0.8-0.3,0.9l-0.1,0h-1c-0.9,0-1.8,0.7-2.2,1.6c-0.4,1-0.2,2,0.5,2.6l0.8,0.8
	l0,0.2c0,0.1-0.1,0.4-0.4,0.7L19,19.5c-0.2,0.2-0.5,0.4-0.8,0.4h-0.2l-0.8-0.7c-0.4-0.4-1-0.6-1.6-0.6c-0.8,0-1.5,0.3-2,0.8
	c-0.5,0.5-0.7,1-0.7,1.6v1.1L13,22.3c-0.1,0-0.3,0.2-0.8,0.2h-0.9c-0.5,0-0.8-0.2-0.9-0.3l-0.1-0.1v-1c0-1.3-1.2-2.4-2.6-2.4
	c-0.6,0-1.2,0.2-1.6,0.7l-0.8,0.8l-0.2,0c-0.2,0-0.5-0.2-0.7-0.4l-0.6-0.6c-0.3-0.3-0.4-0.7-0.4-0.8v-0.1l0.7-0.7
	c0.6-0.6,0.8-1.7,0.4-2.7c-0.4-1-1.2-1.5-2.2-1.5H1.2L1.1,13c0-0.1-0.2-0.3-0.2-0.8v-0.9c0-0.5,0.2-0.8,0.3-0.9l0.1-0.1h1
	c0.9,0,1.8-0.7,2.2-1.6c0.4-1,0.2-2-0.5-2.6L3.2,5.3l0-0.2c0-0.1,0.1-0.4,0.4-0.7l0.6-0.6c0.2-0.2,0.5-0.4,0.8-0.4h0.2L6,4.1
	c0.4,0.4,1,0.6,1.6,0.6c0.8,0,1.5-0.3,2-0.8c0.5-0.5,0.7-1,0.7-1.6V1.2l0.2-0.1c0.1,0,0.3-0.2,0.8-0.2h0.9c0.5,0,0.8,0.2,0.9,0.3
	L13,1.3v1c0,1.3,1.2,2.4,2.6,2.4c0.6,0,1.2-0.2,1.6-0.7l0.8-0.8l0.2,0c0.2,0,0.5,0.2,0.7,0.4l0.6,0.6C19.9,4.7,20,5,20,5.2v0.1
	L19.3,6c-0.6,0.6-0.8,1.7-0.4,2.7c0.4,1,1.2,1.5,2.2,1.5h1.1l0.1,0.2c0,0.1,0.2,0.3,0.2,0.8V12.1z"/>
<path class="st0" d="M11.7,6.6c-2.8,0-5.1,2.3-5.1,5.1c0,2.8,2.3,5.1,5.1,5.1c0.9,0,1.8-0.2,2.6-0.7c0.2-0.1,0.3-0.4,0.2-0.6
	c-0.1-0.1-0.2-0.2-0.4-0.2c-0.1,0-0.2,0-0.2,0c-0.7,0.4-1.4,0.6-2.2,0.6c-2.3,0-4.2-1.9-4.2-4.2c0-2.3,1.9-4.2,4.2-4.2
	c2.3,0,4.2,1.9,4.2,4.2c0,0.7-0.2,1.3-0.4,1.9c0,0.1,0,0.2,0,0.3c0,0.1,0.1,0.2,0.2,0.2c0,0,0.1,0,0.2,0c0.2,0,0.3-0.1,0.4-0.2
	c0.3-0.7,0.5-1.5,0.5-2.2C16.8,8.9,14.5,6.6,11.7,6.6z"/>
</svg>
