<?xml version="1.0" encoding="utf-8"?>
<!-- Generator: Adobe Illustrator 25.0.0, SVG Export Plug-In . SVG Version: 6.00 Build 0)  -->
<svg version="1.1" id="Capa_1" xmlns="http://www.w3.org/2000/svg" xmlns:xlink="http://www.w3.org/1999/xlink" x="0px" y="0px"
	 viewBox="0 0 300 300" style="enable-background:new 0 0 300 300;" xml:space="preserve">
<style type="text/css">
	.st0{fill:#535352;}
</style>
<path class="st0" d="M258.8,28H41.2c-3.8,0-7.4,2.1-9.1,5.5c-1.8,3.5-1.5,7.6,0.8,10.8l79.7,112.3l0.1,0.1c2.9,3.9,4.5,8.6,4.5,13.5
	v91.5c0,2.7,1,5.3,3,7.2s4.5,3,7.2,3c1.4,0,2.7-0.3,4-0.8l44.8-17.1c4-1.2,6.7-5,6.7-9.6v-74.3c0-4.9,1.6-9.6,4.5-13.5l0.1-0.1
	l79.7-112.3c2.3-3.2,2.6-7.3,0.8-10.8C266.1,30.1,262.6,28,258.8,28z M177.3,149.4c-4.5,6-6.9,13.3-6.9,20.8V243l-40.9,15.6v-88.4
	c0-7.5-2.4-14.8-6.9-20.8l-77.4-109h209.4L177.3,149.4z"/>
</svg>
