<?xml version="1.0" encoding="utf-8"?>
<!-- Generator: Adobe Illustrator 25.0.0, SVG Export Plug-In . SVG Version: 6.00 Build 0)  -->
<svg version="1.1" id="Layer_1" xmlns="http://www.w3.org/2000/svg" xmlns:xlink="http://www.w3.org/1999/xlink" x="0px" y="0px"
	 viewBox="0 0 20 20" style="enable-background:new 0 0 20 20;" xml:space="preserve">
<style type="text/css">
	.st0{fill:#FFFFFF;}
</style>
<path class="st0" d="M10.1,11.1c0.1,0,0.1,0,0.1,0c0.1,0,0.2-0.1,0.2-0.1c0-0.1,0.1-0.1,0-0.2c0-0.1-0.1-0.1-0.1-0.2
	C8.4,9.5,7.3,8.2,7,6.6C6.9,5.8,7,4.8,7.7,3.9c0.6-0.7,1.3-1,2.3-1c1.6,0,2.7,0.9,3,2.3c0.3,1.4-0.3,3.3-2.1,4.1
	c-0.1,0.1-0.2,0.2-0.1,0.4c0.1,0.1,0.1,0.2,0.3,0.2c0,0,0.1,0,0.1,0c2.1-0.9,2.8-3.1,2.4-4.7c-0.3-1.4-1.4-2.8-3.6-2.8
	C8.5,2.4,7.7,3,7.2,3.6c-0.8,1-0.9,2.3-0.8,3.1C6.9,9.1,8.7,10.4,10.1,11.1z"/>
<path class="st0" d="M16.8,17.4H3.5v-0.2c0-2.2,0.2-3.6,0.4-4.3c0.4-1,2-1.8,2.7-2.1l0.2-0.1L7,10.8c0.7,1.2,1.8,2,3.1,2
	c1.2,0,2.3-0.7,3-2l0.1-0.2l0.2,0.1c0.7,0.3,2.3,1.1,2.7,2.1c0.3,0.9,0.3,1.9,0.3,2.8c0,0.2,0,0.4,0,0.5c0,0.2,0.1,0.3,0.3,0.3
	c0.1,0,0.3-0.1,0.3-0.3c0-0.1,0-0.3,0-0.5v-0.1c0-0.9,0-2-0.4-3c-0.6-1.5-3.2-2.5-3.5-2.6c0,0-0.1,0-0.1,0c-0.1,0-0.2,0.1-0.3,0.2
	c-0.6,1.3-1.6,2.1-2.7,2.1c-1.1,0-2.2-0.8-2.8-2.1C7.2,10,7.1,10,6.9,10c0,0-0.1,0-0.1,0c-0.3,0.1-2.9,1.1-3.5,2.6
	c-0.4,1.1-0.4,3.4-0.4,5c0,0.2,0.1,0.3,0.3,0.3h13.5c0.2,0,0.3-0.1,0.3-0.3C17,17.5,16.9,17.4,16.8,17.4z"/>
</svg>
