<?xml version="1.0" encoding="utf-8"?>
<!-- Generator: Adobe Illustrator 24.3.0, SVG Export Plug-In . SVG Version: 6.00 Build 0)  -->
<svg version="1.1" id="Layer_1" xmlns="http://www.w3.org/2000/svg" xmlns:xlink="http://www.w3.org/1999/xlink" x="0px" y="0px"
	 viewBox="0 0 72 72" style="enable-background:new 0 0 72 72;" xml:space="preserve">
<style type="text/css">
	.st0{fill:#959595;}
</style>
<g>
	<path class="st0" d="M60.5,8.6c-0.3,0-0.4,0.1-0.7,0.3l-6.7,6.7c-0.1,0.3-0.3,0.4-0.3,0.7c0,0.4,0.1,0.5,0.3,0.7
		c0.3,0.3,0.4,0.3,0.7,0.3c0.3,0,0.5,0,0.7-0.3l5.3-5.1v49.1c0,0.5,0.4,0.9,0.9,0.9c0.5,0,0.9-0.3,0.9-0.9V11.8l5.3,5.3
		c0.1,0.1,0.4,0.3,0.7,0.3c0.3,0,0.4-0.1,0.7-0.3c0.1-0.1,0.3-0.4,0.3-0.7c0-0.3-0.1-0.4-0.3-0.7L61.4,9C61,8.8,60.7,8.6,60.5,8.6z
		 M4.1,58.3c-0.5,0-0.9,0.4-0.9,0.9c0,0.7,0.4,1.1,0.9,1.1h40.3c0.5,0,0.9-0.4,0.9-1.1c0-0.5-0.4-0.9-0.9-0.9H4.1z M12.8,46.6
		c-0.5,0-0.9,0.4-0.9,1.1c0,0.4,0.4,0.9,0.9,0.9h31.8c0.4,0,0.9-0.4,0.9-0.9c0-0.5-0.4-1.1-0.9-1.1H12.8z M21.3,35
		c-0.4,0-0.9,0.3-0.9,0.9c0,0.4,0.4,0.9,0.9,0.9h23.1c0.5,0,0.9-0.4,0.9-0.9S45,35,44.4,35H21.3z M30,23.2c-0.5,0-0.9,0.4-0.9,0.9
		c0,0.5,0.3,0.9,0.9,0.9h14.5c0.5,0,0.9-0.4,0.9-0.9c0-0.5-0.4-0.9-0.9-0.9H30z M39.4,10.5c-0.4,0-0.9,0.3-0.9,0.9
		c0,0.5,0.4,0.9,0.9,0.9h5c0.5,0,0.9-0.4,0.9-0.9c0-0.7-0.4-0.9-0.9-0.9H39.4z"/>
</g>
</svg>
