<?xml version="1.0" encoding="utf-8"?>
<!-- Generator: Adobe Illustrator 25.0.0, SVG Export Plug-In . SVG Version: 6.00 Build 0)  -->
<svg version="1.1" id="Layer_1" xmlns="http://www.w3.org/2000/svg" xmlns:xlink="http://www.w3.org/1999/xlink" x="0px" y="0px"
	 viewBox="0 0 20 20" style="enable-background:new 0 0 20 20;" xml:space="preserve">
<style type="text/css">
	.st0{fill:#FFFFFF;}
</style>
<path class="st0" d="M10,17.7c0.1,0,0.1,0,0.2,0c5.4-2.7,8.8-6.2,9.5-9.7c0.3-1.6-0.1-3.1-1-4c-1-1.1-2.1-1.6-3.4-1.6
	c-0.1,0-0.1,0-0.2,0c-2.3,0.1-4.1,1.6-4.8,2.3L10,4.9L9.8,4.6C9.2,4,7.4,2.4,5.1,2.3c-0.1,0-0.1,0-0.2,0c-1.3,0-2.5,0.6-3.4,1.6
	c-0.9,1-1.3,2.4-1.1,4c0.5,3.1,3.3,6.3,7.8,8.8c0,0,0.1,0,0.2,0c0.1,0,0.2-0.1,0.3-0.2c0.1-0.2,0-0.4-0.2-0.5
	c-4.3-2.4-7-5.4-7.5-8.3C0.9,6.5,1.1,5.3,1.9,4.4c0.9-0.9,1.8-1.3,3-1.3H5c1.6,0,3.4,1.1,4.7,2.6C9.8,5.8,9.9,5.8,10,5.8
	c0.1,0,0.2,0,0.3-0.1c1.2-1.6,3.1-2.5,4.7-2.6H15c1.1,0,2.1,0.4,3,1.3c0.8,0.9,1.1,2.1,0.8,3.4c-0.5,3.2-3.9,6.6-9,9.1
	c-0.1,0-0.2,0.1-0.2,0.2c0,0.1,0,0.2,0,0.3C9.7,17.6,9.9,17.7,10,17.7z"/>
</svg>
