<?xml version="1.0" encoding="utf-8"?>
<!-- Generator: Adobe Illustrator 22.1.0, SVG Export Plug-In . SVG Version: 6.00 Build 0)  -->
<svg version="1.1" id="Layer_1" xmlns="http://www.w3.org/2000/svg" xmlns:xlink="http://www.w3.org/1999/xlink" x="0px" y="0px"
	 viewBox="0 0 272.5 68.5" style="enable-background:new 0 0 272.5 68.5;" xml:space="preserve">
<style type="text/css">
	.st0{fill:#3FBA89;}
</style>
<g>
	<path class="st0" d="M245.7,22.1c-6.7,0-12.2,2.1-16.4,6.2c-1.3,1.3-2.5,2.9-3.4,4.5l-0.7,1.3l-0.6-1.3c-0.9-1.9-2.1-3.5-3.6-4.9
		c-3.8-3.8-9-5.7-15.4-5.7c-6.7,0-12.2,2.1-16.4,6.2c-0.3,0.3-0.5,0.5-0.7,0.8l-1.3,1.4v-7.5h-30.6V1h-14.2v25l-1.2-0.9
		c-2.5-2-6.1-2.9-10.5-2.9c-6.3,0-11.2,2.1-15.1,6.3c-1.3,1.4-2.4,3-3.2,4.7l-0.6,1.2l-0.7-1.2c-1-1.7-2.2-3.3-3.7-4.7
		c-4.4-4.2-10.1-6.3-17.1-6.3s-12.5,2.1-17,6.3c-1.5,1.4-2.8,3-3.8,4.8l-0.9,1.6l-0.5-1.7c-2-7.1-7.5-11-15.7-11
		c-5.4,0-9.5,1.9-12.4,5.8l-0.6,0.8L38.8,28c-2.9-3.9-7.3-5.8-13.3-5.8c-4.6,0-7.9,1.3-9.9,3.8l-1.3,1.6v-4.5H1.1v43.4h14.2V43.1
		c0-6.5,3.5-7.8,6.4-7.8S28,36.6,28,43v23.5h14.2V43.1c0-5.2,2.2-7.8,6.5-7.8c2.8,0,6.2,1.3,6.2,7.7v23.5h14.2V55.7l1.4,2
		c0.8,1.3,1.8,2.4,3,3.5c4.5,4.2,10,6.3,17,6.3c6.9,0,12.7-2.1,17.1-6.3c1.5-1.4,2.7-3,3.7-4.7l0.7-1.2l0.6,1.2
		c0.9,1.7,1.9,3.3,3.2,4.7c3.9,4.2,8.9,6.2,15.1,6.2c4.7,0,8.5-1.2,11.3-3.7l1.2-1.1v3.8h44.3v-6.9l1.4,1.5c0.1,0.1,0.2,0.2,0.3,0.3
		c4.1,4,9.7,6.1,16.7,6.1c5.3,0,9.8-1.3,13.6-3.8c2.4-1.6,4.3-3.6,5.4-6l0.6-1.2l0.7,1.2c0.8,1.4,1.9,2.7,3,3.8
		c4.1,4,9.7,6.1,16.7,6.1c5.3,0,9.8-1.3,13.6-3.8c3.6-2.4,5.8-5.5,6.6-9.4l-14.4-0.7c-0.7,1.7-2.4,3.4-6.3,3.4
		c-4.8,0-7.3-2.6-7.3-7.8v-0.7h28.5v-4.3c0-7-1.9-12.3-5.8-16.1C257.3,24.1,252.2,22.1,245.7,22.1z M90.4,55.5
		c-5.7,0-9.2-4.1-9.2-10.7c0-6.5,3.6-10.7,9.2-10.7c5.7,0,9.3,4.1,9.3,10.7C99.7,51.4,96.1,55.5,90.4,55.5z M142.5,45.6
		c0,5.8-3.7,9.9-9,9.9c-5.7,0-9.2-4.1-9.2-10.7c0-6.6,3.5-10.7,9.2-10.7c5.3,0,9,4.1,9,9.9V45.6z M156.7,55.4V34.2h14.7L156.7,55.4z
		 M171.6,55.3l12.3-17.9l-0.4,3.2c-0.2,1.4-0.3,2.8-0.3,4.3c0,3.5,0.5,6.7,1.6,9.5l0.4,1h-13.6V55.3z M198.4,39.8
		c0.3-4.7,3-7.6,7.1-7.6c3.1,0,6.8,1.3,7,7.6v0.8h-14.2L198.4,39.8z M211.9,53.4c-0.7,1.7-2.4,3.4-6.3,3.4c-4.8,0-7.3-2.6-7.3-7.8
		v-0.7h25l0.1,0.6c0.2,1.4,0.5,2.8,0.9,4.1l0.3,1L211.9,53.4z M238.4,40.6v-0.8c0.3-4.7,3-7.6,7.1-7.6c3.1,0,6.8,1.3,7,7.6v0.8
		H238.4z"/>
	<g>
		<path class="st0" d="M266.1,63.7v3h-0.4v-3h-1.2v-0.4h2.9v0.4H266.1z"/>
		<path class="st0" d="M271,66.7v-2.4l-1.2,2.4h-0.3l-1.2-2.4v2.4h-0.5v-3.3h0.4l1.4,2.7l1.4-2.7h0.4v3.3H271z"/>
	</g>
</g>
</svg>
