<?xml version="1.0" encoding="utf-8"?>
<!-- Generator: Adobe Illustrator 22.0.1, SVG Export Plug-In . SVG Version: 6.00 Build 0)  -->
<svg version="1.1" id="Layer_1" xmlns="http://www.w3.org/2000/svg" xmlns:xlink="http://www.w3.org/1999/xlink" x="0px" y="0px"
	 viewBox="0 0 72 72" style="enable-background:new 0 0 72 72;" xml:space="preserve">
<style type="text/css">
	.st0{fill:#37BA8A;}
</style>
<g>
	<path class="st0" d="M59.5,14.3c-0.6,0-1,0.5-1,1v46.8H13.6V10.3h45.9c0.6,0,1-0.5,1-1s-0.5-1-1-1H12.6c-0.6,0-1,0.5-1,1v54
		c0,0.6,0.5,1,1,1h46.9c0.6,0,1-0.5,1-1V15.3C60.5,14.8,60,14.3,59.5,14.3z"/>
	<path class="st0" d="M39.6,21.7H18.4c-0.6,0-1,0.5-1,1s0.5,1,1,1h21.2c0.6,0,1-0.5,1-1S40.2,21.7,39.6,21.7z"/>
	<path class="st0" d="M39.6,35.4H18.4c-0.6,0-1,0.5-1,1s0.5,1,1,1h21.2c0.6,0,1-0.5,1-1S40.2,35.4,39.6,35.4z"/>
	<path class="st0" d="M39.6,49H18.4c-0.6,0-1,0.5-1,1s0.5,1,1,1h21.2c0.6,0,1-0.5,1-1S40.2,49,39.6,49z"/>
	<path class="st0" d="M54.4,18.5c-0.2-0.2-0.5-0.3-0.7-0.3c-0.3,0-0.5,0.1-0.7,0.3L47.4,24l-2.1-2.1c-0.2-0.2-0.5-0.3-0.7-0.3
		s-0.5,0.1-0.7,0.3c-0.4,0.4-0.4,1.1,0,1.5l2.8,2.8c0.2,0.2,0.5,0.3,0.7,0.3s0.5-0.1,0.7-0.3l6.2-6.2C54.8,19.6,54.8,18.9,54.4,18.5
		z"/>
	<path class="st0" d="M54.4,32.4c-0.2-0.2-0.5-0.3-0.7-0.3s-0.5,0.1-0.7,0.3l-5.5,5.5l-2.1-2.1c-0.2-0.2-0.5-0.3-0.7-0.3
		s-0.5,0.1-0.7,0.3c-0.4,0.4-0.4,1.1,0,1.5l2.8,2.8c0.2,0.2,0.5,0.3,0.7,0.3s0.5-0.1,0.7-0.3l6.2-6.2C54.8,33.5,54.8,32.8,54.4,32.4
		z"/>
	<path class="st0" d="M53.6,45.9c-0.3,0-0.5,0.1-0.7,0.3l-5.5,5.5l-2.1-2.1c-0.2-0.2-0.5-0.3-0.7-0.3c-0.3,0-0.5,0.1-0.7,0.3
		c-0.2,0.2-0.3,0.5-0.3,0.7c0,0.3,0.1,0.5,0.3,0.7l2.8,2.8c0.2,0.2,0.5,0.3,0.7,0.3c0.3,0,0.5-0.1,0.7-0.3l6.2-6.2
		c0.4-0.4,0.4-1.1,0-1.5C54.2,46,53.9,45.9,53.6,45.9z"/>
</g>
</svg>
