<?xml version="1.0" encoding="utf-8"?>
<!-- Generator: Adobe Illustrator 22.1.0, SVG Export Plug-In . SVG Version: 6.00 Build 0)  -->
<svg version="1.1" id="Layer_1" xmlns="http://www.w3.org/2000/svg" xmlns:xlink="http://www.w3.org/1999/xlink" x="0px" y="0px"
	 viewBox="0 0 72 72" style="enable-background:new 0 0 72 72;" xml:space="preserve">
<style type="text/css">
	.st0{fill:#FFFFFF;}
</style>
<g>
	<path class="st0" d="M57.6,15.2c-4.1-4.1-9.6-6.4-15.5-6.4s-11.3,2.3-15.5,6.4c-4.1,4.1-6.4,9.6-6.4,15.5s2.3,11.3,6.4,15.5
		c4.1,4.1,9.6,6.4,15.5,6.4s11.3-2.3,15.5-6.4C61.7,42,64,36.5,64,30.7C64,24.8,61.7,19.3,57.6,15.2z M56.1,44.6
		c-3.7,3.7-8.7,5.8-14,5.8s-10.2-2.1-14-5.8c-3.7-3.7-5.8-8.7-5.8-14s2.1-10.2,5.8-14c3.7-3.7,8.7-5.8,14-5.8s10.2,2.1,14,5.8
		c3.7,3.7,5.8,8.7,5.8,14C61.9,35.9,59.8,40.9,56.1,44.6z"/>
	<path class="st0" d="M42.1,16.9c-7.6,0-13.7,6.2-13.7,13.7c0,0.6,0.5,1,1,1s1-0.5,1-1C30.4,24.2,35.6,19,42,19s11.6,5.2,11.6,11.6
		c0,0.6,0.5,1,1,1s1-0.5,1-1C55.8,23.1,49.7,16.9,42.1,16.9z"/>
	<path class="st0" d="M27.4,51.8c-0.3,0-0.5,0.1-0.7,0.3l-9.5,9.5c-0.8,0.8-1.8,1.2-2.9,1.2s-2.1-0.4-2.9-1.2l-0.2-0.2
		c-0.8-0.8-1.2-1.8-1.2-2.9c0-1.1,0.4-2.1,1.2-2.9l9.5-9.5c0.4-0.4,0.4-1.1,0-1.5c-0.2-0.2-0.5-0.3-0.7-0.3c-0.3,0-0.5,0.1-0.7,0.3
		l-9.5,9.5C8.6,55.3,8,56.8,8,58.5s0.6,3.2,1.8,4.4l0.2,0.2c1.2,1.2,2.7,1.8,4.4,1.8s3.2-0.6,4.4-1.8l9.5-9.5c0.4-0.4,0.4-1.1,0-1.5
		C27.9,51.9,27.6,51.8,27.4,51.8z"/>
</g>
</svg>
