<?xml version="1.0" encoding="utf-8"?>
<!-- Generator: Adobe Illustrator 22.0.1, SVG Export Plug-In . SVG Version: 6.00 Build 0)  -->
<svg version="1.1" id="Layer_1" xmlns="http://www.w3.org/2000/svg" xmlns:xlink="http://www.w3.org/1999/xlink" x="0px" y="0px"
	 viewBox="0 0 72 72" style="enable-background:new 0 0 72 72;" xml:space="preserve">
<style type="text/css">
	.st0{fill:#CCCCCC;}
</style>
<g>
	<path class="st0" d="M60.9,31.2l-2.6,0c-1.5,0-2.7-0.9-3.3-2.4c-0.6-1.6-0.4-3.2,0.5-4.2l1.5-1.5c0.7-0.7,0.9-1.7,0.7-2.8
		c-0.2-1-0.7-1.9-1.5-2.7l-1.5-1.5c-1-1-2.3-1.7-3.5-1.7c-0.7,0-1.3,0.2-1.8,0.7L47.8,17c-0.6,0.7-1.5,1-2.4,1
		c-2.1,0-4.2-1.8-4.2-3.7v-2.2c0-1.9-1.9-3.3-4.4-3.3h-2.2c-2.5,0-4.4,1.3-4.4,3l0,2.6c0,0.9-0.3,1.7-1,2.4c-0.8,0.8-2,1.3-3.2,1.3
		c-1,0-1.8-0.3-2.4-0.9l-1.5-1.5c-0.5-0.5-1.3-0.8-2.1-0.8c-1.2,0-2.4,0.6-3.4,1.5l-1.5,1.5c-1.8,1.8-2.2,4-1,5.2l1.8,1.8
		c1,1,1.3,2.5,0.7,4c-0.6,1.5-2,2.6-3.3,2.6h-2.2c-1.9,0-3.3,1.9-3.3,4.4v2.2c0,2.5,1.3,4.4,3,4.4l2.6,0c1.5,0,2.7,0.9,3.3,2.4
		c0.6,1.6,0.4,3.2-0.5,4.2l-1.5,1.5c-0.5,0.5-0.8,1.3-0.8,2.1c0,1.2,0.6,2.4,1.5,3.4l1.5,1.5c1,1,2.3,1.7,3.5,1.7
		c0.7,0,1.3-0.2,1.8-0.7l1.8-1.8c0.6-0.7,1.5-1,2.4-1c2.1,0,4.2,1.8,4.2,3.7v2.2c0,1.9,1.9,3.3,4.4,3.3h2.2c2.5,0,4.4-1.3,4.4-3
		l0-2.6c0-0.9,0.3-1.7,1-2.4c0.8-0.8,2-1.3,3.2-1.3c1,0,1.8,0.3,2.4,0.9l1.5,1.5c0.5,0.5,1.3,0.8,2.1,0.8c1.2,0,2.4-0.6,3.4-1.5
		l1.5-1.5c1.8-1.8,2.2-4,1-5.2l-1.8-1.8c-1-1-1.3-2.5-0.7-4c0.6-1.6,2-2.6,3.3-2.6h2.2c1.9,0,3.3-1.9,3.3-4.4v-2.2
		C63.9,33.1,62.6,31.2,60.9,31.2z M61.8,37.8c0,1.1-0.5,1.9-0.7,2.1L60.9,40h-2.5c-2.2,0-4.3,1.6-5.3,3.9c-0.9,2.3-0.5,4.7,1.1,6.3
		l1.9,1.9l-0.1,0.4c0,0.2-0.2,0.9-1,1.7l-1.5,1.5c-0.5,0.5-1.2,0.9-1.8,1l-0.4,0L49.5,55c-1-1-2.3-1.5-3.8-1.5
		c-1.8,0-3.5,0.7-4.7,1.9c-1.1,1.1-1.6,2.4-1.6,3.9l0,2.7L39,62.3c-0.2,0.1-0.8,0.5-1.9,0.5H35c-1.1,0-1.8-0.4-2.1-0.7l-0.2-0.2
		v-2.5c0-3.1-3-5.7-6.3-5.7c-1.5,0-2.8,0.6-3.9,1.6l-1.9,1.9l-0.4-0.1c-0.5-0.1-1.2-0.5-1.7-1l-1.5-1.5c-0.8-0.8-1-1.6-1-2l0-0.3
		l1.7-1.7c1.5-1.5,1.9-4.1,1-6.5c-0.9-2.3-3-3.7-5.3-3.7l-2.7,0L10.4,40c-0.1-0.2-0.5-0.8-0.5-1.9v-2.2c0-1.1,0.5-1.9,0.7-2.1
		l0.2-0.2h2.5c2.2,0,4.3-1.6,5.3-3.9c0.9-2.3,0.5-4.7-1.1-6.3l-1.9-1.9l0.1-0.4c0-0.2,0.2-0.9,1-1.7l1.5-1.5c0.5-0.5,1.2-0.9,1.8-1
		l0.4,0l1.8,1.8c1,1,2.3,1.5,3.8,1.5c1.8,0,3.5-0.7,4.7-1.9c1.1-1.1,1.6-2.4,1.6-3.9l0-2.7l0.4-0.2c0.2-0.1,0.8-0.5,1.9-0.5h2.2
		c1.1,0,1.8,0.4,2.1,0.7l0.2,0.2v2.5c0,3.1,3,5.8,6.3,5.8c1.5,0,2.8-0.6,3.9-1.6l1.9-1.9l0.4,0.1c0.5,0.1,1.2,0.5,1.7,1l1.5,1.5
		c0.8,0.8,1,1.6,1,2l0,0.3l-1.7,1.7c-1.5,1.5-1.9,4.1-1,6.5c0.9,2.3,3,3.7,5.3,3.7l2.7,0l0.2,0.4c0.1,0.2,0.5,0.8,0.5,1.9V37.8z"/>
	<path class="st0" d="M35.9,24.6c-6.7,0-12.2,5.5-12.2,12.2c0,6.7,5.5,12.2,12.2,12.2c2.2,0,4.4-0.6,6.3-1.7
		c0.5-0.3,0.7-0.9,0.4-1.4c-0.2-0.3-0.5-0.5-0.9-0.5c-0.2,0-0.4,0.1-0.5,0.1c-1.6,0.9-3.4,1.4-5.2,1.4c-5.6,0-10.1-4.5-10.1-10.1
		c0-5.6,4.5-10.1,10.1-10.1c5.6,0,10.1,4.5,10.1,10.1c0,1.6-0.4,3.1-1,4.5c-0.1,0.3-0.1,0.5-0.1,0.8c0.1,0.3,0.3,0.5,0.5,0.6
		c0.1,0.1,0.3,0.1,0.5,0.1c0.4,0,0.8-0.2,0.9-0.6c0.8-1.7,1.3-3.5,1.3-5.4C48.1,30.1,42.6,24.6,35.9,24.6z"/>
</g>
</svg>
