<?xml version="1.0" encoding="utf-8"?>
<!-- Generator: Adobe Illustrator 22.0.1, SVG Export Plug-In . SVG Version: 6.00 Build 0)  -->
<svg version="1.1" id="Layer_1" xmlns="http://www.w3.org/2000/svg" xmlns:xlink="http://www.w3.org/1999/xlink" x="0px" y="0px"
	 viewBox="0 0 72 72" style="enable-background:new 0 0 72 72;" xml:space="preserve">
<style type="text/css">
	.st0{fill:#37BA8A;}
</style>
<g>
	<path class="st0" d="M54.6,8.1H15.9c-4.1,0-7.5,3.3-7.5,7.5V44c0,4.1,3.3,7.5,7.5,7.5h4.2l-0.2,11.7c0,0.4,0.3,0.8,0.7,1
		c0.1,0.1,0.3,0.1,0.4,0.1c0.3,0,0.6-0.1,0.8-0.3l12-12.7c0.4-0.4,0.4-1.1,0-1.5c-0.2-0.2-0.5-0.3-0.7-0.3c-0.3,0-0.6,0.1-0.8,0.3
		L22.1,60.5l0.1-10.1c0-0.3-0.1-0.6-0.3-0.8c-0.2-0.2-0.5-0.3-0.7-0.3h-5.3c-3,0-5.4-2.4-5.4-5.4V15.5c0-3,2.4-5.4,5.4-5.4h38.7
		c3,0,5.4,2.4,5.4,5.4V44c0,3-2.4,5.4-5.4,5.4H37.8c-0.6,0-1,0.5-1,1s0.5,1,1,1h16.8c4.1,0,7.5-3.3,7.5-7.5V15.5
		C62,11.4,58.7,8.1,54.6,8.1z"/>
	<path class="st0" d="M23.7,22.4h23.1c0.6,0,1-0.5,1-1s-0.5-1-1-1H23.7c-0.6,0-1,0.5-1,1S23.1,22.4,23.7,22.4z"/>
	<path class="st0" d="M23.7,28.4h23.1c0.6,0,1-0.5,1-1s-0.5-1-1-1H23.7c-0.6,0-1,0.5-1,1S23.1,28.4,23.7,28.4z"/>
	<path class="st0" d="M23.7,34.3h23.1c0.6,0,1-0.5,1-1s-0.5-1-1-1H23.7c-0.6,0-1,0.5-1,1S23.1,34.3,23.7,34.3z"/>
	<path class="st0" d="M36,38.2H23.7c-0.6,0-1,0.5-1,1s0.5,1,1,1H36c0.6,0,1-0.5,1-1S36.6,38.2,36,38.2z"/>
</g>
</svg>
