<?xml version="1.0" encoding="utf-8"?>
<!-- Generator: Adobe Illustrator 22.0.1, SVG Export Plug-In . SVG Version: 6.00 Build 0)  -->
<svg version="1.1" id="Layer_1" xmlns="http://www.w3.org/2000/svg" xmlns:xlink="http://www.w3.org/1999/xlink" x="0px" y="0px"
	 viewBox="0 0 72 72" style="enable-background:new 0 0 72 72;" xml:space="preserve">
<style type="text/css">
	.st0{fill:#37BA8A;}
</style>
<g>
	<path class="st0" d="M56.2,17.1L56.2,17.1L56.2,17.1C56.1,17,56,16.9,56,16.9L56,16.9l-0.1-0.1C50.6,11.5,43.5,8.5,36,8.5
		c-15.5,0-28,12.6-28,28c0,6.7,2.4,13.2,6.8,18.3c0,0.1,0.1,0.1,0.2,0.2c5.3,6,13,9.5,21,9.5c8,0,15.7-3.5,21.1-9.5
		c0.1,0,0.1-0.1,0.2-0.3c4.4-5.1,6.8-11.6,6.8-18.2C64,29.3,61.2,22.4,56.2,17.1z M54.4,54.8c-4.9,4.9-11.4,7.7-18.4,7.7
		s-13.5-2.7-18.4-7.7L17,54.3l0.6-0.6c4.9-4.9,11.4-7.7,18.4-7.7s13.5,2.7,18.4,7.7l0.6,0.6L54.4,54.8z M56.9,51.9l-0.5,0.7L55.7,52
		c-3.5-3.5-8-6-12.8-7.2l-1-0.3l7.3-13.8c0.1-0.2,0.2-0.5,0.1-0.8c-0.1-0.3-0.3-0.5-0.5-0.6c-0.2-0.1-0.3-0.1-0.5-0.1
		c-0.4,0-0.7,0.2-0.9,0.6l-7.7,14.4l-0.5-0.1C38.1,44,37,44,36,44c-7.4,0-14.4,2.9-19.7,8.1l-0.7,0.6l-0.5-0.7
		c-3.3-4.5-5.1-9.8-5.1-15.4c0-14.3,11.6-26,26-26c6.3,0,12.5,2.3,17.2,6.6l0.6,0.5l-3.9,4.2c-0.4,0.4-0.4,1,0,1.4
		c3.4,3.6,5.3,8.3,5.3,13.2c0,2.6-0.7,5.7-2,8.2c-0.1,0.3-0.1,0.5,0,0.8c0.1,0.3,0.3,0.5,0.5,0.6c0.1,0.1,0.3,0.1,0.4,0.1
		c0.4,0,0.8-0.2,0.9-0.6c1.4-2.9,2.2-6.2,2.2-9.1c0-4.9-1.7-9.6-4.7-13.4l-0.4-0.5l3.2-3.4l0.6,0.7c3.9,4.7,6.1,10.6,6.1,16.7
		C61.9,42.1,60.2,47.5,56.9,51.9z"/>
	<path class="st0" d="M45,16.7c-0.5,0-0.9,0.2-1.2,0.5c-0.3,0.3-0.5,0.7-0.5,1.2c0,0.4,0.2,0.9,0.5,1.2c0.3,0.3,0.8,0.5,1.2,0.5
		s0.9-0.2,1.2-0.5c0.3-0.3,0.5-0.8,0.5-1.2c0-0.4-0.2-0.9-0.5-1.2C45.9,16.9,45.5,16.7,45,16.7z"/>
	<path class="st0" d="M29,15.8c-0.2,0-0.4,0-0.6,0.1c-0.9,0.3-1.3,1.3-1,2.2c0.2,0.7,0.9,1.1,1.6,1.1c0.2,0,0.4,0,0.6-0.1l0.2-0.1
		c0.8-0.4,1.2-1.3,0.9-2.1C30.4,16.2,29.8,15.8,29,15.8z"/>
	<path class="st0" d="M37.2,14.6l-0.1,0c-0.9,0-1.6,0.7-1.7,1.6c0,0.5,0.1,0.9,0.4,1.2c0.3,0.3,0.7,0.5,1.2,0.6l0,0
		c0.9,0,1.6-0.7,1.7-1.6C38.9,15.5,38.2,14.7,37.2,14.6z"/>
	<path class="st0" d="M18.1,26.9c-0.2-0.1-0.4-0.1-0.7-0.1c-0.7,0-1.3,0.4-1.6,1c-0.2,0.4-0.2,0.9,0,1.3c0.2,0.4,0.5,0.8,0.9,0.9
		c0.2,0.1,0.4,0.1,0.7,0.1c0.7,0,1.3-0.4,1.6-1c0.2-0.4,0.2-0.9,0-1.3C18.8,27.4,18.5,27.1,18.1,26.9z"/>
	<path class="st0" d="M15.7,38.1c0.9,0,1.7-0.8,1.7-1.7c0-0.9-0.8-1.7-1.7-1.7c-0.9,0-1.7,0.8-1.7,1.7C14,37.4,14.8,38.1,15.7,38.1
		L15.7,38.1z"/>
	<path class="st0" d="M22.1,20.1c-0.4,0-0.8,0.2-1.2,0.5c-0.3,0.3-0.5,0.7-0.5,1.2c0,0.5,0.1,0.9,0.5,1.2c0.3,0.3,0.8,0.5,1.2,0.5
		c0.4,0,0.8-0.2,1.2-0.5c0.3-0.3,0.5-0.7,0.5-1.2c0-0.4-0.2-0.9-0.5-1.2C23,20.3,22.6,20.1,22.1,20.1z"/>
	<path class="st0" d="M17.3,42.8c-0.5,0-0.9,0.2-1.2,0.5c-0.3,0.3-0.5,0.8-0.5,1.2s0.2,0.9,0.5,1.2c0.3,0.3,0.7,0.5,1.2,0.5
		c0.5,0,0.9-0.2,1.2-0.5c0.3-0.3,0.5-0.8,0.5-1.2s-0.2-0.9-0.5-1.2C18.2,43,17.8,42.8,17.3,42.8z"/>
</g>
</svg>
