<?xml version="1.0" encoding="utf-8"?>
<!-- Generator: Adobe Illustrator 22.1.0, SVG Export Plug-In . SVG Version: 6.00 Build 0)  -->
<svg version="1.1" id="Layer_1" xmlns="http://www.w3.org/2000/svg" xmlns:xlink="http://www.w3.org/1999/xlink" x="0px" y="0px"
	 viewBox="0 0 72 72" style="enable-background:new 0 0 72 72;" xml:space="preserve">
<style type="text/css">
	.st0{fill:#FFFFFF;}
</style>
<g>
	<path class="st0" d="M63.3,37c0.2-0.2,0.3-0.5,0.3-0.7c0-13.3-9.4-24.8-22.4-27.5c-0.1,0-0.1,0-0.2,0c-0.5,0-0.9,0.4-1,0.8
		c-0.1,0.3,0,0.6,0.2,0.8s0.4,0.4,0.7,0.4c11.3,2.3,19.8,12,20.7,23.5l0.1,0.9H36.8v-26c0-0.2,0-0.3-0.1-0.5
		c-0.2-0.4-0.5-0.6-0.9-0.6h-0.1c-15.4,0-28,12.6-28,28c0,15.5,12.6,28,28,28c6.3,0,12.3-2,17.2-5.9c0.5-0.4,0.5-1,0.2-1.5
		c-0.2-0.3-0.5-0.4-0.8-0.4c-0.2,0-0.5,0.1-0.6,0.2C47.1,60.1,41.6,62,35.8,62c-14.3,0-26-11.6-26-26c0-13.5,10.6-24.9,24-25.9
		l0.9-0.1v25.9v0.2v0.2v0.1l0.1,0.1l0.1,0.2l0.1,0.1l20.4,17.7c0.2,0.2,0.4,0.3,0.7,0.3s0.6-0.1,0.8-0.4c3.2-3.7,5.4-8.3,6.4-13.1
		c0.1-0.6-0.3-1.1-0.8-1.2c-0.1,0-0.1,0-0.2,0c-0.5,0-0.9,0.4-1,0.9c-0.7,3.8-2.3,7.5-4.7,10.6l-0.5,0.7l-17.7-15h24.2
		C62.8,37.3,63.1,37.2,63.3,37z"/>
	<path class="st0" d="M42.1,24.8h9.7c0.6,0,1-0.5,1-1s-0.5-1-1-1h-9.7c-0.6,0-1,0.5-1,1S41.5,24.8,42.1,24.8z"/>
	<path class="st0" d="M42.1,30.1h4.8c0.6,0,1-0.5,1-1s-0.5-1-1-1h-4.8c-0.6,0-1,0.5-1,1S41.5,30.1,42.1,30.1z"/>
</g>
</svg>
