<?xml version="1.0" encoding="utf-8"?>
<!-- Generator: Adobe Illustrator 22.0.1, SVG Export Plug-In . SVG Version: 6.00 Build 0)  -->
<svg version="1.1" id="Layer_1" xmlns="http://www.w3.org/2000/svg" xmlns:xlink="http://www.w3.org/1999/xlink" x="0px" y="0px"
	 viewBox="0 0 72 72" style="enable-background:new 0 0 72 72;" xml:space="preserve">
<style type="text/css">
	.st0{fill:#37BA8A;}
</style>
<g>
	<path class="st0" d="M62.6,24.2c-0.6,0-1,0.5-1,1v31c0,1.6-1.3,3-3,3h-46c-1.6,0-3-1.3-3-3V15.9c0-1.6,1.3-3,3-3h21.1
		c1.8,0,4.3,1.4,5.3,2.9l0.5,0.8c1.4,2.1,4.5,3.9,7,3.9h16.1c0.6,0,1-0.5,1-1s-0.5-1-1-1H46.5c-1.8,0-4.3-1.4-5.3-2.9l-0.5-0.8
		c-1.4-2.1-4.5-3.9-7-3.9H12.6c-2.8,0-5,2.3-5,5v40.3c0,2.8,2.3,5,5,5h46c2.8,0,5-2.3,5-5v-31C63.6,24.6,63.1,24.2,62.6,24.2z"/>
	<path class="st0" d="M35.6,48.2c0.6,0,1-0.5,1-1V30.5l9,9c0.2,0.2,0.5,0.3,0.7,0.3s0.5-0.1,0.7-0.3c0.4-0.4,0.4-1.1,0-1.5
		L36.3,27.2l-0.1-0.1c-0.2-0.2-0.5-0.3-0.7-0.3c-0.3,0-0.5,0.1-0.7,0.3L24,38c-0.4,0.4-0.4,1.1,0,1.5c0.2,0.2,0.5,0.3,0.7,0.3
		s0.5-0.1,0.7-0.3l9-9v16.7C34.5,47.8,35,48.2,35.6,48.2z"/>
</g>
</svg>
