<?xml version="1.0" encoding="utf-8"?>
<!-- Generator: Adobe Illustrator 24.3.0, SVG Export Plug-In . SVG Version: 6.00 Build 0)  -->
<svg version="1.1" id="Layer_1" xmlns="http://www.w3.org/2000/svg" xmlns:xlink="http://www.w3.org/1999/xlink" x="0px" y="0px"
	 viewBox="0 0 72 72" enable-background="new 0 0 72 72" xml:space="preserve">
<g>
	<path fill="#959595" d="M61.2,21.8H44.1l11.4-9.3c0.7-0.6,1.1-1.4,1.2-2.3c0-0.9-0.3-1.8-0.9-2.4L50,1.9c-0.6-0.6-1.5-1-2.4-0.9
		c-0.9,0-1.8,0.5-2.3,1.2l-7.3,9c-0.4,0.4-0.3,1.1,0.2,1.4c0.4,0.4,1.1,0.3,1.4-0.2l7.3-9c0.2-0.3,0.5-0.4,0.8-0.4
		c0.3,0,0.6,0.1,0.9,0.3l5.9,5.9c0.2,0.2,0.4,0.6,0.3,0.9c0,0.3-0.2,0.6-0.4,0.8l-10.8,8.7c-0.2-1-0.7-1.9-1.3-2.7l6-6
		c0.4-0.4,0.4-1.1,0-1.5c-0.4-0.4-1.1-0.4-1.5,0l-6.3,6.3c-0.7-0.3-1.5-0.5-2.3-0.5h-0.8L26.8,2.2c-0.6-0.7-1.4-1.1-2.3-1.2
		c-0.9,0-1.8,0.3-2.4,0.9l-5.9,5.9c-0.6,0.6-1,1.5-0.9,2.4c0,0.9,0.5,1.8,1.2,2.3l11.4,9.3H10.8c-1.8,0-3.2,1.4-3.2,3.2v11
		c0,1.4,0.9,2.6,2.2,3v28.7c0,1.8,1.4,3.2,3.2,3.2h46c1.8,0,3.2-1.4,3.2-3.2V39.1c1.3-0.4,2.2-1.6,2.2-3V25
		C64.4,23.3,63,21.8,61.2,21.8L61.2,21.8z M41.6,20.7v1.2H30.4v-1.2c0-1.9,1.5-3.4,3.4-3.4h4.4C40,17.3,41.6,18.8,41.6,20.7z
		 M39.4,69h-6.7V23.9h6.7V69z M17.3,10.1c0-0.3,0.1-0.6,0.3-0.9l5.9-5.9C23.7,3.2,24,3,24.4,3.1c0.3,0,0.6,0.2,0.8,0.4l9.5,11.8
		h-0.9c-0.8,0-1.6,0.2-2.3,0.5l-6.3-6.3c-0.4-0.4-1.1-0.4-1.5,0c-0.4,0.4-0.4,1.1,0,1.5l6,6c-0.7,0.7-1.1,1.7-1.3,2.7L17.7,11
		C17.5,10.8,17.3,10.5,17.3,10.1L17.3,10.1z M11.8,67.8V39.2h15.4c0.6,0,1-0.5,1-1s-0.5-1-1-1H10.8c-0.6,0-1.2-0.5-1.2-1.2V25
		c0-0.6,0.5-1.2,1.2-1.2h19.8V69H13C12.3,69,11.8,68.5,11.8,67.8L11.8,67.8z M59,69H41.4V39.2h18.8v28.6C60.2,68.5,59.7,69,59,69z
		 M62.4,36c0,0.6-0.5,1.2-1.2,1.2H41.4V23.9h19.8c0.6,0,1.2,0.5,1.2,1.2V36z"/>
</g>
</svg>
