<?xml version="1.0" encoding="utf-8"?>
<!-- Generator: Adobe Illustrator 25.0.0, SVG Export Plug-In . SVG Version: 6.00 Build 0)  -->
<svg version="1.1" id="Layer_1" xmlns="http://www.w3.org/2000/svg" xmlns:xlink="http://www.w3.org/1999/xlink" x="0px" y="0px"
	 viewBox="0 0 300 300" style="enable-background:new 0 0 300 300;" xml:space="preserve">
<g>
	<path d="M157.1,52.9c34.1,0,68.2,0.1,102.4-0.1c3.6,0,4.6,1,4.6,4.6c-0.2,19.3-0.2,38.5,0,57.8c0,3.4-0.9,4.5-4.4,4.5
		c-15-0.2-30,0-44.9-0.2c-3.6,0-4.3,1.1-4.3,4.4c0.1,37.1,0.1,74.2,0,111.3c0,2.1-0.1,4.3-0.4,6.4c-1.3,8.5-5.3,11.8-14,11.9
		c-22.4,0-44.7,0-67.1,0c-21,0-42.1,0-63.1,0c-11.1,0-15.8-4.7-15.8-15.8c0-60.2,0-120.4-0.1-180.5c0-3.5,1.1-4.3,4.4-4.3
		C88.6,53,122.9,52.9,157.1,52.9z M130.4,106.7c21,0,42.1,0,63.1,0.1c2.9,0,4-0.9,3.9-3.8c-0.1-11.1-0.1-22.1,0-33.2
		c0-3-1.1-3.8-4-3.8c-42.1,0.1-84.2,0.1-126.3,0c-2.9,0-4,1-3.9,3.9c0.1,10.7,0,21.4,0,32.1c0,4.8,0,4.8,4.7,4.8
		C88.8,106.7,109.6,106.7,130.4,106.7z M130.5,146.4c-20.9,0-41.8,0.1-62.7-0.1c-3.7,0-4.6,1.1-4.5,4.7c0.2,10.6,0.2,21.2,0,31.7
		c-0.1,3.3,1,4.3,4.2,4.3c42-0.1,83.9-0.1,125.9,0c3.4,0,4.2-1.3,4.2-4.4c-0.1-10.7-0.2-21.4,0-32.1c0.1-3.3-1-4.2-4.3-4.2
		C172.4,146.5,151.4,146.4,130.5,146.4z M63.3,240c1.5,0.1,2.6,0.3,3.8,0.3c42.3,0,84.6,0,126.9,0.1c2.6,0,3.5-0.7,3.5-3.4
		c-0.1-11.1-0.2-22.1,0-33.2c0.1-3.3-1.2-3.9-4.2-3.9c-13.2,0.1-26.4,0.1-39.6,0.1c-28.8,0-57.5,0.1-86.3-0.1c-3.3,0-4.4,1-4.2,4.2
		c0.2,4.6,0.1,9.3,0.1,13.9C63.3,225.3,63.3,232.5,63.3,240z M210.5,86.5c0,5.6,0.1,11.2,0,16.8c-0.1,2.4,0.7,3.4,3.2,3.4
		c11.4-0.1,22.8-0.1,34.2,0c2.1,0,3.1-0.7,3.1-2.8c0-11.8,0-23.5,0-35.3c0-1.9-0.8-2.7-2.8-2.7c-11.5,0.1-23,0.1-34.6,0
		c-2.3,0-3.1,0.9-3.1,3.2C210.6,74.9,210.5,80.7,210.5,86.5z M90.4,126.5c0-8.3,0.5-6.7-6.7-6.9c-0.2,0-0.5,0-0.7,0
		c-6.7,0.1-6.6-1-6.5,6.5c0.1,8-1.2,7.1,7.2,7.1C90.4,133.3,90.4,133.3,90.4,126.5z M103.5,133c4.6,0,9,0,13.4,0
		c1.9-12.8,1.1-13.7-10.5-13.3c-0.1,0-0.3-0.1-0.3,0c-0.9,0.8-2.4,1.6-2.4,2.4C103.3,125.6,103.5,129.1,103.5,133z"/>
	<path d="M83.3,92.9c-0.6,0-1.2,0-1.8,0c-4.7,0-4.8-0.1-4.8-4.8c0.1-9.7-1.2-8.2,8.3-8.3c5.1-0.1,5.1,0,5.1,5c0,0.4,0,0.7,0,1.1
		C90.1,93.6,91,92.9,83.3,92.9z"/>
	<path d="M110.1,173c-7.3-0.1-6.5,1.2-6.6-6.6c0-7.5,0.1-6.3,6.3-6.3c8.3,0,7.2-1.1,7.2,7C117,174.1,117.7,172.8,110.1,173z"/>
	<path d="M83.3,173c-7-0.1-6.6,1.3-6.6-6.6c0-7.4-0.1-6.3,6.3-6.3c8,0,7-1.2,7.1,7.2c0,0.2,0,0.5,0,0.7c0,5,0,5-5,5
		C84.5,173,83.9,173,83.3,173z"/>
	<path d="M130.5,172.7c0-3.6-0.1-7,0.1-10.4c0.1-0.8,1.3-1.5,2-2.2c0.1-0.1,0.5,0,0.7,0c10.7-0.7,11.7,0.5,10,12.7
		C139.3,172.7,135.2,172.7,130.5,172.7z"/>
	<path d="M157.5,213.9c4.3,0,8.4,0,12.9,0c0,3.7,0.1,7.2-0.1,10.7c0,0.7-1.2,1.4-1.9,2c-0.2,0.2-0.7,0.1-1,0.1
		C156.7,227.4,155.6,226,157.5,213.9z"/>
	<path d="M110.4,213.7c7.3,0.1,6.6-1.2,6.6,6.6c0,6.7,1.1,6.5-6.5,6.4c-7.6,0-7,0.7-7-7.1c0-0.6,0.1-1.2,0-1.8
		c-0.4-3.2,0.7-4.7,4.1-4.1C108.5,213.9,109.5,213.7,110.4,213.7z"/>
	<path d="M83.8,213.7c6.9,0.1,6.3-1.4,6.3,6.5c0,7,0.8,6.5-6.5,6.5c-7.6,0-6.9,0.7-6.9-6.8C76.7,213.7,76.7,213.7,83.8,213.7z"/>
	<path d="M130.9,213.9c4.2,0,8.2,0,12.7,0c0,3.7,0.1,7.3-0.1,11c0,0.6-1,1.3-1.7,1.8c-0.2,0.2-0.7,0.1-1,0.1
		C130.2,227.4,129.1,226,130.9,213.9z"/>
	<path d="M230.6,94.4c-4.4-4.9-8.2-9.1-12.7-14.1c8.3,0,15.7,0,24.1,0C238.1,85.2,234.6,89.5,230.6,94.4z"/>
</g>
</svg>
