<?xml version="1.0" encoding="utf-8"?>
<!-- Generator: Adobe Illustrator 22.0.1, SVG Export Plug-In . SVG Version: 6.00 Build 0)  -->
<svg version="1.1" id="Layer_1" xmlns="http://www.w3.org/2000/svg" xmlns:xlink="http://www.w3.org/1999/xlink" x="0px" y="0px"
	 viewBox="0 0 72 72" style="enable-background:new 0 0 72 72;" xml:space="preserve">
<style type="text/css">
	.st0{fill:#959595;}
</style>
<g>
	<path class="st0" d="M62.6,20.2c-0.6,0-1,0.5-1,1v40H9.6V16.5h7.1c0.6,0,1-0.5,1-1s-0.5-1-1-1H8.6c-0.6,0-1,0.5-1,1v46.9
		c0,0.6,0.5,1,1,1h54c0.6,0,1-0.5,1-1v-41C63.6,20.7,63.1,20.2,62.6,20.2z"/>
	<path class="st0" d="M55.1,16.5h7.5c0.6,0,1-0.5,1-1s-0.5-1-1-1h-7.5c-0.6,0-1,0.5-1,1S54.5,16.5,55.1,16.5z"/>
	<path class="st0" d="M27.5,16.5h16.1c0.6,0,1-0.5,1-1s-0.5-1-1-1H27.5c-0.6,0-1,0.5-1,1S27,16.5,27.5,16.5z"/>
	<path class="st0" d="M57.6,27.7c0.6,0,1-0.5,1-1s-0.5-1-1-1H14.1c-0.6,0-1,0.5-1,1s0.5,1,1,1h7v9.7h-7c-0.6,0-1,0.5-1,1s0.5,1,1,1
		h7v9.4h-7c-0.6,0-1,0.5-1,1s0.5,1,1,1h7v5.5c0,0.6,0.5,1,1,1s1-0.5,1-1V51h11.5v5.5c0,0.6,0.5,1,1,1s1-0.5,1-1V51h11.5v5.5
		c0,0.6,0.5,1,1,1s1-0.5,1-1V51h7.2c0.6,0,1-0.5,1-1s-0.5-1-1-1h-7.2v-9.4h7.2c0.6,0,1-0.5,1-1s-0.5-1-1-1h-7.2v-9.7H57.6z
		 M34.7,48.9H23.2v-9.4h11.5V48.9z M34.7,37.5H23.2v-9.7h11.5V37.5z M48.3,48.9H36.8v-9.4h11.5V48.9z M48.3,37.5H36.8v-9.7h11.5
		V37.5z"/>
	<path class="st0" d="M22.1,20.7c0.6,0,1-0.5,1-1v-8.9c0-0.6-0.5-1-1-1s-1,0.5-1,1v8.9C21.1,20.2,21.5,20.7,22.1,20.7z"/>
	<path class="st0" d="M49.4,20.7c0.6,0,1-0.5,1-1v-8.9c0-0.6-0.5-1-1-1s-1,0.5-1,1v8.9C48.3,20.2,48.8,20.7,49.4,20.7z"/>
</g>
</svg>
