<?xml version="1.0" encoding="utf-8"?>
<!-- Generator: Adobe Illustrator 22.1.0, SVG Export Plug-In . SVG Version: 6.00 Build 0)  -->
<svg version="1.1" id="Layer_1" xmlns="http://www.w3.org/2000/svg" xmlns:xlink="http://www.w3.org/1999/xlink" x="0px" y="0px"
	 viewBox="0 0 72 72" style="enable-background:new 0 0 72 72;" xml:space="preserve">
<style type="text/css">
	.st0{fill:#FFFFFF;}
</style>
<g>
	<path class="st0" d="M12.6,36.6c0-15.3,9.6-26,23.3-26c3.4,0,6.5,0.6,9.4,1.9c0.1,0.1,0.3,0.1,0.4,0.1c0.4,0,0.8-0.2,1-0.6
		c0.1-0.3,0.1-0.5,0-0.8s-0.3-0.5-0.6-0.6c-3.1-1.3-6.5-2-10.2-2C21,8.5,10.5,20,10.5,36.6c0,5.7,1.3,11,3.7,15.5
		c0.2,0.3,0.5,0.5,0.9,0.5c0.2,0,0.3,0,0.5-0.1s0.4-0.4,0.5-0.6c0.1-0.3,0-0.6-0.1-0.8C13.8,46.9,12.6,41.9,12.6,36.6z"/>
	<path class="st0" d="M35.8,32.9c0.6,0,1-0.4,1-1c0.1-1.1,0.1-2.2,0.1-3.3c0-0.6-0.5-1-1-1s-1,0.5-1,1c0,1.1,0,2.2-0.1,3.2
		c0,0.3,0.1,0.5,0.3,0.8C35.2,32.7,35.5,32.8,35.8,32.9L35.8,32.9z"/>
	<path class="st0" d="M36.1,36.1c-0.2-0.2-0.4-0.4-0.7-0.4c-0.1,0-0.1,0-0.2,0c-0.5,0-1,0.4-1,0.9c-1.3,9.1-4.9,17-10.7,23.6
		c-0.2,0.2-0.3,0.5-0.3,0.8s0.1,0.5,0.4,0.7c0.2,0.2,0.4,0.3,0.7,0.3c0.3,0,0.6-0.1,0.8-0.4c6-6.9,9.8-15.2,11.2-24.7
		C36.4,36.6,36.3,36.3,36.1,36.1z"/>
	<path class="st0" d="M45.4,50.2c-0.1,0-0.2-0.1-0.4-0.1c-0.4,0-0.8,0.3-1,0.7c-1.6,4.3-3.7,8.3-6.2,12.1c-0.2,0.2-0.2,0.5-0.2,0.8
		s0.2,0.5,0.4,0.7c0.2,0.1,0.4,0.2,0.6,0.2c0.4,0,0.7-0.2,0.9-0.5c2.6-3.9,4.8-8.1,6.4-12.5c0.1-0.3,0.1-0.5,0-0.8
		S45.7,50.3,45.4,50.2z"/>
	<path class="st0" d="M35.9,14.4c-2.6,0-5.1,0.7-7.3,2.1c-0.2,0.1-0.4,0.4-0.5,0.6c-0.1,0.3,0,0.6,0.1,0.8c0.2,0.3,0.5,0.5,0.9,0.5
		c0.2,0,0.4-0.1,0.5-0.2c1.9-1.1,4-1.7,6.2-1.7c6.6,0,12,5.4,12,12c0,6-0.8,11.9-2.3,17.3c-0.1,0.3,0,0.6,0.1,0.8s0.4,0.4,0.6,0.5
		c0.1,0,0.2,0,0.3,0c0.5,0,0.9-0.3,1-0.8c1.5-5.7,2.3-11.7,2.3-17.9C50,20.8,43.7,14.4,35.9,14.4z"/>
	<path class="st0" d="M19.1,47.8c3.2-5.5,4.8-12,4.8-19.2c0-2.1,0.5-4.1,1.5-5.9c0.3-0.5,0.1-1.1-0.4-1.4c-0.2-0.1-0.3-0.1-0.5-0.1
		c-0.4,0-0.7,0.2-0.9,0.5c-1.2,2.1-1.8,4.5-1.8,6.9c0,6.9-1.5,13-4.5,18.2c-0.3,0.5-0.1,1.1,0.4,1.4c0.2,0.1,0.3,0.1,0.5,0.1
		C18.6,48.3,18.9,48.1,19.1,47.8z"/>
	<path class="st0" d="M35.9,20.8c-4.3,0-7.7,3.5-7.7,7.7c0,6.8-1.3,13-3.9,18.6c-0.2,0.5,0,1.1,0.5,1.4c0.1,0.1,0.3,0.1,0.4,0.1
		c0.4,0,0.8-0.2,0.9-0.6c2.7-5.8,4.1-12.4,4.1-19.4c0-3.1,2.5-5.6,5.6-5.6s5.6,2.5,5.6,5.6c0,13-3.9,24.7-11.3,34
		C29.9,63,30,63.7,30.4,64c0.2,0.1,0.4,0.2,0.6,0.2c0.3,0,0.6-0.1,0.8-0.4c7.7-9.7,11.7-21.9,11.7-35.3
		C43.6,24.3,40.1,20.8,35.9,20.8z"/>
	<path class="st0" d="M23.2,51.3c-0.2-0.1-0.4-0.2-0.6-0.2c-0.4,0-0.7,0.2-0.9,0.5c-1,1.6-2.2,3.1-3.5,4.5c-0.2,0.2-0.3,0.5-0.3,0.8
		s0.1,0.5,0.3,0.7c0.2,0.2,0.4,0.3,0.7,0.3c0.3,0,0.6-0.1,0.8-0.3c1.3-1.5,2.6-3.1,3.7-4.8C23.8,52.3,23.7,51.6,23.2,51.3z"/>
	<path class="st0" d="M50.6,13.1c-0.2-0.1-0.4-0.2-0.6-0.2c-0.3,0-0.6,0.2-0.8,0.4S49,13.8,49,14.1s0.2,0.5,0.4,0.7
		c6.2,4.6,9.8,12.5,9.8,21.8c0,7.2-2.2,13.8-6.3,18.6l-1.8,2.1l0.4-2.8c0.3-1.6,0.9-3.6,1.4-4.9l0.1-0.2c0.2-0.5,0.3-1,0.5-1.4
		c0.8-2.7,1.5-5.5,1.8-8.2c0.1-0.6-0.3-1.1-0.9-1.2h-0.1c-0.5,0-1,0.4-1,0.9c-0.3,2.6-0.9,5.3-1.8,7.9c-0.2,0.5-0.3,1-0.5,1.5
		c-1.2,3.5-2.6,7.9-0.2,10.1c0.2,0.2,0.4,0.3,0.7,0.3s0.5-0.1,0.7-0.3c5.9-5.1,9.3-13.2,9.3-22.4C61.3,26.6,57.4,18.1,50.6,13.1z"/>
	<path class="st0" d="M54.5,34.6L54.5,34.6c0.6,0,1.1-0.5,1-1.1c0-3.2-0.4-5.1-0.4-5.1c-0.1-0.5-0.5-0.8-1-0.8c-0.1,0-0.1,0-0.2,0
		c-0.6,0.1-0.9,0.7-0.8,1.2c0,0.1,0.4,1.8,0.4,4.7C53.5,34.2,54,34.6,54.5,34.6z"/>
	<path class="st0" d="M19,26.7c0.1-0.3,0-0.6-0.1-0.8c-0.1-0.2-0.4-0.4-0.6-0.5c-0.1,0-0.2,0-0.3,0c-0.5,0-0.9,0.3-1,0.8
		c-0.3,1.2-0.5,2.7-0.6,4.3c-0.2,2.4-0.4,5-1.3,7.4c-0.1,0.3-0.1,0.5,0,0.8s0.3,0.5,0.6,0.5c0.1,0,0.2,0.1,0.4,0.1
		c0.4,0,0.8-0.3,1-0.7c1-2.6,1.2-5.6,1.4-8C18.7,29.1,18.8,27.7,19,26.7z"/>
</g>
</svg>
