<?xml version="1.0" encoding="utf-8"?>
<!-- Generator: Adobe Illustrator 22.1.0, SVG Export Plug-In . SVG Version: 6.00 Build 0)  -->
<svg version="1.1" id="Layer_1" xmlns="http://www.w3.org/2000/svg" xmlns:xlink="http://www.w3.org/1999/xlink" x="0px" y="0px"
	 viewBox="0 0 72 72" style="enable-background:new 0 0 72 72;" xml:space="preserve">
<style type="text/css">
	.st0{fill:#FFFFFF;}
</style>
<g>
	<path class="st0" d="M35.6,27.9c-0.6,0-1,0.5-1,1v28.2c0,0.6,0.5,1,1,1s1-0.5,1-1V29C36.6,28.4,36.1,27.9,35.6,27.9z"/>
	<path class="st0" d="M62.6,20.2h-4.2v-8.4c0-0.6-0.5-1-1-1c-11.5,0-18.1,6.2-21.1,9.9l-0.6,0.8l-0.6-0.8c-3-3.7-9.6-9.9-21.1-9.9
		c-0.6,0-1,0.5-1,1v8.4H8.6c-0.6,0-1,0.5-1,1v40.5c0,0.6,0.5,1,1,1h54c0.6,0,1-0.5,1-1V21.3C63.6,20.7,63.1,20.2,62.6,20.2z
		 M61.5,60.8H9.6V22.3h3.2v27.9c0,0.6,0.5,1,1,1c8,0,12.5,3.1,16,6.4c0.2,0.2,0.4,0.3,0.7,0.3c0.3,0,0.6-0.1,0.8-0.3
		c0.2-0.2,0.3-0.5,0.3-0.7s-0.1-0.5-0.3-0.7c-3.4-3.2-7.9-6.5-15.7-6.9h-0.8V12.9l0.9,0.1c13,0.9,18.7,10.6,18.9,11
		c0.2,0.3,0.5,0.5,0.9,0.5s0.7-0.2,0.9-0.5c0.2-0.4,5.9-10.1,18.9-11l0.9-0.1v36.3h-0.8c-7.7,0.4-12.3,3.8-15.7,6.9
		c-0.2,0.2-0.3,0.5-0.3,0.7c0,0.3,0.1,0.5,0.3,0.8c0.2,0.2,0.5,0.3,0.8,0.3s0.5-0.1,0.7-0.3c3.6-3.3,8-6.4,16-6.4c0.6,0,1-0.5,1-1
		V22.3h3.2L61.5,60.8L61.5,60.8z"/>
</g>
</svg>
