<?xml version="1.0" encoding="utf-8"?>
<!-- Generator: Adobe Illustrator 22.1.0, SVG Export Plug-In . SVG Version: 6.00 Build 0)  -->
<svg version="1.1" id="Layer_1" xmlns="http://www.w3.org/2000/svg" xmlns:xlink="http://www.w3.org/1999/xlink" x="0px" y="0px"
	 viewBox="0 0 72 72" style="enable-background:new 0 0 72 72;" xml:space="preserve">
<style type="text/css">
	.st0{fill:#FFFFFF;}
</style>
<g>
	<path class="st0" d="M59.4,14.9c-0.6,0-1,0.5-1,1v46.8H13.5V10.9h45.9c0.6,0,1-0.5,1-1s-0.5-1-1-1H12.5c-0.6,0-1,0.5-1,1v54
		c0,0.6,0.5,1,1,1h46.9c0.6,0,1-0.5,1-1V16C60.4,15.4,59.9,14.9,59.4,14.9z"/>
	<path class="st0" d="M39.5,22.4H18.3c-0.6,0-1,0.5-1,1s0.5,1,1,1h21.2c0.6,0,1-0.5,1-1S40.1,22.4,39.5,22.4z"/>
	<path class="st0" d="M39.5,36H18.3c-0.6,0-1,0.5-1,1s0.5,1,1,1h21.2c0.6,0,1-0.5,1-1S40.1,36,39.5,36z"/>
	<path class="st0" d="M39.5,49.6H18.3c-0.6,0-1,0.5-1,1s0.5,1,1,1h21.2c0.6,0,1-0.5,1-1S40.1,49.6,39.5,49.6z"/>
	<path class="st0" d="M54.3,19.2c-0.2-0.2-0.5-0.3-0.7-0.3c-0.3,0-0.5,0.1-0.7,0.3l-5.5,5.5l-2.1-2.1c-0.2-0.2-0.5-0.3-0.7-0.3
		s-0.5,0.1-0.7,0.3c-0.4,0.4-0.4,1.1,0,1.5l2.8,2.8c0.2,0.2,0.5,0.3,0.7,0.3s0.5-0.1,0.7-0.3l6.2-6.2C54.7,20.2,54.7,19.6,54.3,19.2
		z"/>
	<path class="st0" d="M54.3,33c-0.2-0.2-0.5-0.3-0.7-0.3S53,32.8,52.8,33l-5.5,5.5l-2.1-2.1c-0.2-0.2-0.5-0.3-0.7-0.3
		s-0.5,0.1-0.7,0.3c-0.4,0.4-0.4,1.1,0,1.5l2.8,2.8c0.2,0.2,0.5,0.3,0.7,0.3s0.5-0.1,0.7-0.3l6.2-6.2C54.7,34.1,54.7,33.4,54.3,33z"
		/>
	<path class="st0" d="M53.5,46.6c-0.3,0-0.5,0.1-0.7,0.3l-5.5,5.5l-2.1-2.1C45,50.1,44.7,50,44.5,50c-0.3,0-0.5,0.1-0.7,0.3
		s-0.3,0.5-0.3,0.7c0,0.3,0.1,0.5,0.3,0.7l2.8,2.8c0.2,0.2,0.5,0.3,0.7,0.3c0.3,0,0.5-0.1,0.7-0.3l6.2-6.2c0.4-0.4,0.4-1.1,0-1.5
		C54.1,46.7,53.8,46.6,53.5,46.6z"/>
</g>
</svg>
