<?xml version="1.0" encoding="utf-8"?>
<!-- Generator: Adobe Illustrator 22.1.0, SVG Export Plug-In . SVG Version: 6.00 Build 0)  -->
<svg version="1.1" id="Layer_1" xmlns="http://www.w3.org/2000/svg" xmlns:xlink="http://www.w3.org/1999/xlink" x="0px" y="0px"
	 viewBox="0 0 72 72" style="enable-background:new 0 0 72 72;" xml:space="preserve">
<style type="text/css">
	.st0{fill:#FFFFFF;}
</style>
<g>
	<path class="st0" d="M62.6,21.6c-0.6,0-1,0.5-1,1v33.6H9.7V17.4h53c0.6,0,1-0.5,1-1s-0.5-1-1-1h-54c-0.6,0-1,0.5-1,1v41
		c0,0.6,0.5,1,1,1h54c0.6,0,1-0.5,1-1V22.7C63.7,22.1,63.2,21.6,62.6,21.6z"/>
	<path class="st0" d="M57.1,21.9c-0.2-0.2-0.5-0.4-0.8-0.4c-0.2,0-0.5,0.1-0.7,0.2l-20,16.4l-20-16.4c-0.2-0.2-0.4-0.2-0.7-0.2
		s-0.6,0.1-0.8,0.4c-0.4,0.4-0.3,1.1,0.1,1.5l20.6,17c0.2,0.2,0.4,0.2,0.7,0.2s0.5-0.1,0.7-0.2l20.6-17C57.4,23,57.4,22.3,57.1,21.9
		z"/>
	<path class="st0" d="M25.7,39.2L14.2,50.3c-0.4,0.4-0.4,1.1,0,1.5c0.2,0.2,0.5,0.3,0.8,0.3s0.5-0.1,0.7-0.3l11.4-11.1
		c0.4-0.4,0.4-1.1,0-1.5c-0.2-0.2-0.5-0.3-0.8-0.3C26.1,38.9,25.9,39,25.7,39.2z"/>
	<path class="st0" d="M45.4,39.2c-0.2-0.2-0.5-0.3-0.7-0.3c-0.3,0-0.6,0.1-0.8,0.3c-0.4,0.4-0.4,1.1,0,1.5l11.4,11.1
		c0.2,0.2,0.5,0.3,0.7,0.3c0.3,0,0.6-0.1,0.7-0.3c0.4-0.4,0.4-1.1,0-1.5L45.4,39.2z"/>
</g>
</svg>
