<?xml version="1.0" encoding="utf-8"?>
<!-- Generator: Adobe Illustrator 22.0.1, SVG Export Plug-In . SVG Version: 6.00 Build 0)  -->
<svg version="1.1" id="Layer_1" xmlns="http://www.w3.org/2000/svg" xmlns:xlink="http://www.w3.org/1999/xlink" x="0px" y="0px"
	 viewBox="0 0 72 72" style="enable-background:new 0 0 72 72;" xml:space="preserve">
<style type="text/css">
	.st0{fill:#959595;}
</style>
<g>
	<path class="st0" d="M35.9,8.8c-15.5,0-28,12.6-28,28s12.6,28,28,28s28-12.6,28-28S51.4,8.8,35.9,8.8z M35.9,62.8
		c-14.3,0-26-11.6-26-26s11.6-26,26-26s26,11.6,26,26S50.2,62.8,35.9,62.8z"/>
	<path class="st0" d="M35.9,49.1c-0.9,0-1.7,0.8-1.7,1.7c0,0.9,0.8,1.7,1.7,1.7c0.9,0,1.7-0.8,1.7-1.7
		C37.6,49.9,36.8,49.1,35.9,49.1z"/>
	<path class="st0" d="M36.8,21.9l-0.3,0c-4.5,0-9.6,2.1-10.3,6.6c-0.1,0.6,0.3,1.1,0.9,1.2c0.1,0,0.1,0,0.2,0c0.5,0,1-0.4,1-0.9
		c0.5-3.3,4.6-4.8,8.1-4.8c0.1,0,0.3,0,0.4,0c3.8,0.1,7.9,1.8,8.3,5.4c0.3,2.7-1.7,4-4.7,5.7c-1.2,0.7-2.5,1.4-3.4,2.3
		c-2.2,2.1-2.2,4.2-2.2,6l0,0.3c0,0.6,0.5,1,1,1s1-0.5,1-1l0-0.3c0-1.7,0-3,1.5-4.5c0.7-0.7,1.8-1.3,3-1.9c2.8-1.5,6.2-3.4,5.8-7.7
		C46.6,24.3,41.6,22,36.8,21.9z"/>
</g>
</svg>
