<?xml version="1.0" encoding="utf-8"?>
<!-- Generator: Adobe Illustrator 22.1.0, SVG Export Plug-In . SVG Version: 6.00 Build 0)  -->
<svg version="1.1" id="Layer_1" xmlns="http://www.w3.org/2000/svg" xmlns:xlink="http://www.w3.org/1999/xlink" x="0px" y="0px"
	 viewBox="0 0 72 72" style="enable-background:new 0 0 72 72;" xml:space="preserve">
<style type="text/css">
	.st0{fill:#FFFFFF;}
</style>
<g>
	<path class="st0" d="M62.6,24.7c-0.6,0-1,0.5-1,1v31c0,1.6-1.3,3-3,3h-46c-1.6,0-3-1.3-3-3V16.5c0-1.6,1.3-3,3-3h21.1
		c1.8,0,4.3,1.4,5.3,2.9l0.5,0.8c1.4,2.1,4.5,3.9,7,3.9h16.1c0.6,0,1-0.5,1-1s-0.5-1-1-1H46.5c-1.8,0-4.3-1.4-5.3-2.9l-0.5-0.8
		c-1.4-2.1-4.5-3.9-7-3.9H12.6c-2.8,0-5,2.3-5,5v40.3c0,2.8,2.3,5,5,5h46c2.8,0,5-2.3,5-5v-31C63.6,25.2,63.1,24.7,62.6,24.7z"/>
	<path class="st0" d="M25.1,39c-0.6,0-1,0.5-1,1v13c0,0.6,0.5,1,1,1H46c0.6,0,1-0.5,1-1V26.2c0-0.6-0.5-1-1-1H34.2
		c-0.1,0-0.3,0-0.4,0.1c-0.1,0-0.2,0.1-0.3,0.2l-9.1,9.2c-0.3,0.3-0.4,0.7-0.2,1.1s0.5,0.6,1,0.6h9.1c0.6,0,1-0.5,1-1v-8.1h9.6V52
		H26.2V40C26.2,39.5,25.7,39,25.1,39z M33.2,34.3h-5.5l5.5-5.6V34.3z"/>
</g>
</svg>
