<?xml version="1.0" encoding="utf-8"?>
<!-- Generator: Adobe Illustrator 25.0.0, SVG Export Plug-In . SVG Version: 6.00 Build 0)  -->
<svg version="1.1" id="Layer_1" xmlns="http://www.w3.org/2000/svg" xmlns:xlink="http://www.w3.org/1999/xlink" x="0px" y="0px"
	 viewBox="0 0 300 300" style="enable-background:new 0 0 300 300;" xml:space="preserve">
<path d="M116.3,263.6c-22.9,0-45.1,0-68.1,0c0-5.3-0.2-10.5,0.2-15.6c0.1-1,2.2-2.4,3.5-2.5c5.7-0.3,11.5-0.2,17.3-0.1
	c3.4,0.1,4.8-1.1,4.9-5.2c0.1-13.8,0.2-13.8-12.2-13.8c-9.2,0-18.5,0.1-27.7,0c-13.7-0.1-19.9-7-19.9-22.3c0-35.3,0-70.6,0-105.9
	c0-14.5,7-22.1,20.1-22.1c11.4,0,22.7-0.2,34.1,0.1c4.5,0.1,6-1.7,5.5-6.4c-0.3-3-0.2-6,0-9c0.1-3.1-1.1-4.1-3.8-4.1
	c-5.9,0.1-11.8,0-17.7,0.1c-3,0.1-4.4-1.3-4.3-4.7c0.3-16.3-2-13.6,12-13.8c17-0.2,33.9,0.1,50.9-0.1c4.1,0,5.6,1.4,5.5,6
	c-0.4,14.4,1.7,12.4-11.4,12.5c-1.1,0-2.1-0.1-3.2,0c-3.6,0.3-7.1,0.6-10.7,0.9c-0.3,5.4-0.6,10.7-0.5,16c0,0.8,1.4,2.1,2.3,2.4
	c1.6,0.4,3.3,0.2,5,0.2c56.2,0,112.3,0,168.5,0c13.2,0,20,7.5,20,22.2c0,35.5,0,70.9,0,106.4c0,7.8-1.2,15.5-8.5,19
	c-3.9,1.9-8.5,2.6-12.8,2.6c-56.3,0.2-112.6,0.2-169,0c-4.6,0-6,1.2-5.9,6.4c0.3,12.7,0.1,12.7,11.7,12.7c3.6,0,7.3-0.2,10.9,0.1
	c1.2,0.1,3,1.8,3.1,2.9C116.5,253.3,116.3,258.2,116.3,263.6z M269.5,207.5c0-38,0-75.3,0-112.8c-1.5-0.1-2.5-0.2-3.6-0.2
	c-56.9,0-113.9,0-170.8-0.1c-3.7,0-4.6,1.5-4.6,5.3c0.1,34,0.1,67.9,0,101.9c0,5.1,1.6,6,5.8,6c55.9-0.1,111.7-0.1,167.6-0.1
	C265.5,207.5,267.2,207.5,269.5,207.5z M73.9,150.9c0-17.2-0.1-34.4,0.1-51.7c0-3.7-1.1-4.9-4.5-4.9c-11.3,0.2-22.7,0.2-34,0
	c-3.4-0.1-4.4,1.3-4.4,4.9c0.1,34.4,0.1,68.9,0,103.3c0,3.7,1.1,4.9,4.5,4.9c11.2-0.2,22.4-0.2,33.6,0c3.9,0.1,4.9-1.4,4.9-5.5
	C73.8,185,73.9,168,73.9,150.9z"/>
</svg>
