<?xml version="1.0" encoding="utf-8"?>
<!-- Generator: Adobe Illustrator 25.0.0, SVG Export Plug-In . SVG Version: 6.00 Build 0)  -->
<svg version="1.1" id="Layer_1" xmlns="http://www.w3.org/2000/svg" xmlns:xlink="http://www.w3.org/1999/xlink" x="0px" y="0px"
	 viewBox="0 0 300 300" style="enable-background:new 0 0 300 300;" xml:space="preserve">
<g>
	<path d="M147.9,245.4c-29.6,0-59.2,0-88.8,0c-10,0-14.7-4.7-14.7-14.8c0-50.7,0-101.4,0-152.1c0-9.6,4.3-14.1,14-14.7
		c0.5,0,0.9,0,1.4,0c58.9,0,117.7,0,176.6,0c10.3,0,15.2,5.1,15.3,15.3c0,50.3,0,100.7,0,151c0,5.6-1,10.9-6.6,13.8
		c-1.8,0.9-4.1,1.4-6.2,1.4C208.5,245.5,178.2,245.4,147.9,245.4z M57.2,232.4c2,0.1,3.4,0.2,4.9,0.2c57.3,0,114.7,0,172,0
		c4.7,0,4.7,0,4.7-4.6c0-48.7,0-97.4,0-146.2c0-4.9,0-4.9-4.9-4.9c-57.2,0-114.5,0-171.7,0c-5.1,0-5.1,0-5.1,5.1
		c0,48.6,0,97.2,0,145.8C57.2,229.1,57.2,230.5,57.2,232.4z"/>
	<path d="M147.9,141.6c-20.3,0-40.5-0.1-60.8,0.1c-3.1,0-3.9-0.9-3.9-3.9c0.1-8.8,0-8.8,8.9-8.8c38.8,0,77.6,0,116.3-0.1
		c3.5,0,4.6,0.9,4.5,4.4c-0.2,8.3-0.1,8.3-8.4,8.3C185.7,141.6,166.8,141.6,147.9,141.6z"/>
	<path d="M147.9,167.3c-20.3,0-40.5-0.1-60.8,0.1c-3.1,0-3.9-0.9-3.9-3.9c0.1-8.7-0.1-8.7,8.5-8.7c38.8,0,77.6,0,116.4,0
		c4.8,0,4.8,0,4.8,5c0,7.6,0,7.6-7.7,7.6C186.1,167.3,167,167.3,147.9,167.3z"/>
	<path d="M148.4,103.1c20.3,0,40.5,0.1,60.8-0.1c3.1,0,3.9,1,3.9,3.9c-0.1,8.7,0,8.7-8.8,8.7c-38.6,0-77.1,0-115.7,0
		c-5.2,0-5.2,0-5.2-5.1c0-7.5,0-7.5,7.4-7.5C109.9,103.1,129.1,103.1,148.4,103.1z"/>
	<path d="M135.1,193.5c-15.9,0-31.8-0.1-47.6,0.1c-3.1,0-4.3-0.8-4.2-4.1c0.3-10.1-1.4-8.7,8.5-8.7c30.2-0.1,60.3,0,90.5,0
		c4.6,0,4.6,0,4.6,4.5c0,8.2,0,8.2-8.2,8.2C164.1,193.5,149.6,193.5,135.1,193.5z"/>
</g>
</svg>
