<?xml version="1.0" encoding="utf-8"?>
<!-- Generator: Adobe Illustrator 22.1.0, SVG Export Plug-In . SVG Version: 6.00 Build 0)  -->
<svg version="1.1" id="Layer_1" xmlns="http://www.w3.org/2000/svg" xmlns:xlink="http://www.w3.org/1999/xlink" x="0px" y="0px"
	 viewBox="0 0 72 72" style="enable-background:new 0 0 72 72;" xml:space="preserve">
<style type="text/css">
	.st0{fill:#959595;}
</style>
<g>
	<path class="st0" d="M61.2,31.4c-7.1-10.9-15.5-16.2-25.8-16.2S16.8,20.5,9.7,31.4c-1.3,2-2.2,3.5-2.3,5c0,0.3,0.1,0.5,0.3,0.8
		s0.4,0.3,0.7,0.3l0.1,0c0.6,0,1-0.4,1-1c0.1-1,0.6-2,1.9-4c6.8-10.4,14.4-15.2,24-15.2s17.2,4.8,24,15.2c1.3,2,1.9,3,2,4
		c0,0.6,0.5,1,1,1l0.1,0c0.3,0,0.5-0.1,0.7-0.3s0.3-0.5,0.3-0.8C63.4,34.8,62.5,33.4,61.2,31.4z"/>
	<path class="st0" d="M60.1,40.3c-0.2-0.1-0.4-0.2-0.6-0.2c-0.4,0-0.7,0.2-0.9,0.5c-6.4,9.8-14.5,15-23.4,15
		c-8.9,0-17.7-5.4-23.6-14.5c-0.2-0.3-0.5-0.5-0.9-0.5c-0.2,0-0.4,0.1-0.6,0.2c-0.2,0.2-0.4,0.4-0.5,0.7c-0.1,0.3,0,0.6,0.1,0.8
		c6.2,9.7,15.7,15.5,25.4,15.5h0c9.6,0,18.5-5.7,25.2-16C60.7,41.3,60.6,40.6,60.1,40.3z"/>
	<path class="st0" d="M48.5,36.1c0-7.4-6-13.4-13.4-13.4c-7.4,0-13.4,6-13.4,13.4c0,7.4,6,13.4,13.4,13.4
		C42.5,49.5,48.5,43.5,48.5,36.1z M23.8,36.1c0-6.2,5.1-11.3,11.3-11.3c6.2,0,11.3,5.1,11.3,11.3c0,6.2-5.1,11.3-11.3,11.3
		C28.9,47.5,23.8,42.4,23.8,36.1z"/>
	<path class="st0" d="M41.6,36.1c0-3.6-2.9-6.5-6.5-6.5c-0.6,0-1.2,0.1-1.8,0.3c-0.6,0.2-0.9,0.7-0.7,1.3c0.1,0.4,0.5,0.8,1,0.8
		c0.1,0,0.2,0,0.3,0c0.4-0.1,0.8-0.2,1.2-0.2c2.4,0,4.4,2,4.4,4.4c0,2.4-2,4.4-4.4,4.4c-2.4,0-4.4-2-4.4-4.4c0-0.6,0.1-1.2,0.3-1.7
		c0.2-0.5,0-1.1-0.6-1.4C30.3,33,30.2,33,30.1,33c-0.4,0-0.8,0.3-1,0.6c-0.3,0.8-0.5,1.6-0.5,2.5c0,3.6,2.9,6.5,6.5,6.5
		C38.7,42.7,41.6,39.7,41.6,36.1z"/>
</g>
</svg>
