<?xml version="1.0" encoding="utf-8"?>
<!-- Generator: Adobe Illustrator 22.1.0, SVG Export Plug-In . SVG Version: 6.00 Build 0)  -->
<svg version="1.1" id="Layer_1" xmlns="http://www.w3.org/2000/svg" xmlns:xlink="http://www.w3.org/1999/xlink" x="0px" y="0px"
	 viewBox="0 0 72 72" style="enable-background:new 0 0 72 72;" xml:space="preserve">
<style type="text/css">
	.st0{fill:#FFFFFF;}
</style>
<path class="st0" d="M63.5,37.5c-0.6,0-1-0.4-1-1c-0.1-1-0.6-2-2-4c-6.8-10.4-14.4-15.2-24-15.2c-0.6,0-1-0.5-1-1s0.5-1,1-1
	c10.2,0,18.6,5.3,25.8,16.2c1.3,2,2.2,3.5,2.3,5c0,0.3-0.1,0.5-0.3,0.8S63.8,37.5,63.5,37.5L63.5,37.5z"/>
<path class="st0" d="M9.4,37.5c-0.3,0-0.5-0.1-0.7-0.3s-0.3-0.5-0.3-0.8c0.1-1.6,1-3,2.3-5c7.1-10.9,15.5-16.2,25.8-16.2
	c0.6,0,1,0.5,1,1s-0.5,1-1,1c-9.6,0-17.2,4.8-24,15.2c-1.3,2-1.9,3-1.9,4C10.5,37.1,10,37.5,9.4,37.5L9.4,37.5z"/>
<path class="st0" d="M36.2,57.8c-9.6,0-19.1-5.8-25.4-15.5c-0.2-0.2-0.2-0.5-0.1-0.8c0.1-0.3,0.2-0.5,0.5-0.7
	c0.2-0.1,0.4-0.2,0.6-0.2c0.4,0,0.7,0.2,0.9,0.5c5.9,9.1,14.7,14.5,23.6,14.5c9,0,17.1-5.2,23.4-15c0.2-0.3,0.5-0.5,0.9-0.5
	c0.2,0,0.4,0.1,0.6,0.2c0.5,0.3,0.6,1,0.3,1.4C54.7,52.1,45.8,57.8,36.2,57.8L36.2,57.8z"/>
<path class="st0" d="M36.1,49.5c-7.4,0-13.4-6-13.4-13.4s6-13.4,13.4-13.4s13.4,6,13.4,13.4S43.5,49.5,36.1,49.5z M36.1,24.8
	c-6.2,0-11.3,5.1-11.3,11.3s5.1,11.3,11.3,11.3s11.3-5.1,11.3-11.3C47.4,29.9,42.4,24.8,36.1,24.8z"/>
<path class="st0" d="M36.1,42.7c-3.6,0-6.5-2.9-6.5-6.5c0-0.9,0.2-1.7,0.5-2.5c0.2-0.4,0.5-0.6,1-0.6c0.1,0,0.3,0,0.4,0.1
	c0.5,0.2,0.8,0.8,0.6,1.4c-0.2,0.5-0.3,1.1-0.3,1.7c0,2.4,2,4.4,4.4,4.4s4.4-2,4.4-4.4s-2-4.4-4.4-4.4c-0.4,0-0.8,0.1-1.2,0.2
	c-0.1,0-0.2,0-0.3,0c-0.5,0-0.9-0.3-1-0.8c-0.2-0.6,0.2-1.1,0.7-1.3c0.6-0.2,1.2-0.3,1.8-0.3c3.6,0,6.5,2.9,6.5,6.5
	C42.6,39.7,39.7,42.7,36.1,42.7z"/>
</svg>
